<?xml version="1.0" encoding="UTF-8"?>
<svg width="22px" height="16px" viewBox="0 0 22 16" version="1.1" xmlns="http://www.w3.org/2000/svg" xmlns:xlink="http://www.w3.org/1999/xlink">
    <!-- Generator: Sketch 51.2 (57519) - http://www.bohemiancoding.com/sketch -->
    <title>Group</title>
    <desc>Created with Sketch.</desc>
    <defs>
        <linearGradient x1="0%" y1="0%" x2="100%" y2="50%" id="linearGradient">
            <stop stop-color="#CC2B5E" offset="0%"></stop>
            <stop stop-color="#F06723" offset="100%"></stop>
        </linearGradient>
    </defs>
    <g id="Symbol" stroke="none" stroke-width="1" fill="none" fill-rule="evenodd">
        <g id="Hamburger" transform="translate(-16.000000, -19.000000)" fill="url(#linearGradient)" fill-rule="nonzero">
            <g id="Group">
                <g transform="translate(16.000000, 19.500000)">
                    <path d="M1.22294119,3 C0.547411777,3 0,2.32821599 0,1.50079407 C0,0.671784012 0.547411777,0 1.22294119,0 L20.778353,0 C21.4525882,0 22,0.671784012 22,1.50079407 C22,2.32821599 21.4525882,3 20.778353,3 L1.22294119,3 Z" id="Shape"></path>
                    <path d="M1.22294119,9 C0.547411777,9 0,8.32821595 0,7.50079405 C0,6.67178405 0.547411777,6 1.22294119,6 L20.778353,6 C21.4525882,6 22,6.67178405 22,7.50079405 C22,8.32821595 21.4525882,9 20.778353,9 L1.22294119,9 Z" id="Shape"></path>
                    <path d="M20.778353,15 L1.22294119,15 C0.547411777,15 0,14.3282161 0,13.5007941 C0,12.671784 0.547411777,12 1.22294119,12 L20.778353,12 C21.4525882,12 22,12.671784 22,13.5007941 C22,14.3282161 21.4525882,15 20.778353,15" id="Shape"></path>
                </g>
            </g>
        </g>
    </g>
</svg>
