<svg xmlns="http://www.w3.org/2000/svg" xmlns:xlink="http://www.w3.org/1999/xlink" width="600" height="279" viewBox="0 0 600 279">
    <defs>
        <path id="a" d="M3.553.08v3.157H.393V.079h3.16z"/>
    </defs>
    <g fill="none" fill-rule="evenodd" opacity=".25">
        <path stroke="#DCE0E6" stroke-linecap="round" stroke-width="1.341" d="M264.237 50.7l10.18 10.159"/>
        <path stroke="#A7A9AC" stroke-linecap="round" stroke-width="1.341" d="M310.033 60.883l10.29-10.32"/>
        <path stroke="#DCE0E6" stroke-linecap="round" stroke-width="1.341" d="M5.19 32.846l23.431-.01M5.21 2.275l23.468-.009M34.765 4.802L44.96 14.985M34.807 30.268l10.239-10.215M34.807 35.354l10.164 10.17M51.11 48.095h23.433M51.12 17.563l23.45-.01M80.695 14.995L90.872 4.838M80.666 76.102L90.86 65.943M80.666 50.643l10.176 10.148M80.688 81.185L90.86 91.37M34.787 127.054l10.218 10.142M80.692 106.64l10.174-10.163M51.11 109.197l23.412-.021M51.132 139.754h23.433M34.787 121.962l10.196-10.207M96.982 155.052h23.441M80.698 142.265l10.206 10.262M142.9 170.294l23.422.02M126.515 157.613l10.254 10.182"/>
        <path stroke="#A7A9AC" stroke-linecap="round" stroke-width="1.341" d="M310.11 65.954l10.204 10.157"/>
        <path stroke="#DCE0E6" stroke-linecap="round" stroke-width="1.341" d="M172.454 167.774l10.214-10.161"/>
        <path stroke="#A7A9AC" stroke-linecap="round" stroke-width="1.341" d="M280.549 63.38l23.43-.007"/>
        <path stroke="#DCE0E6" stroke-linecap="round" stroke-width="1.341" d="M264.149 106.708l10.264-10.24M264.216 111.763l10.225 10.202M218.3 30.303l10.216-10.207M218.303 35.371l10.153 10.159M234.665 48.108l23.427.002"/>
        <path stroke="#A7A9AC" stroke-linecap="round" stroke-width="1.341" d="M310.096 127.035l10.169 10.159M310.096 152.447l10.163-10.082M280.55 155.081l23.383.01M280.543 124.491l23.376.02"/>
        <path stroke="#DCE0E6" stroke-linecap="round" stroke-width="1.341" d="M234.625 109.229l23.408-.012M218.29 157.613l10.215 10.202M264.175 167.837l10.198-10.24M264.201 198.373l10.168-10.242M264.201 228.909l10.224-10.187M218.332 183.037l10.172-10.161M188.759 155.072l23.42-.02M234.668 170.293l23.425-.026M264.175 172.827l10.25 10.239M264.15 203.363l10.276 10.24"/>
        <path stroke="#A7A9AC" stroke-linecap="round" stroke-width="1.341" d="M280.508 216.136l23.451.026"/>
        <path stroke="#DCE0E6" stroke-linecap="round" stroke-width="1.341" d="M80.575 264.39l10.357 10.407M97.023 246.689l23.42.042M142.86 231.427l23.4-.021M80.657 259.452L90.87 249.25M188.8 216.123l23.4.04M218.312 213.603l10.213-10.182M218.312 188.138l10.152 10.161M234.668 200.83l23.347.076M172.434 228.886l10.151-10.16M126.535 244.169l10.234-10.223M97.064 277.276h23.38M96.977 63.36h23.431"/>
        <path stroke="#A7A9AC" stroke-linecap="round" stroke-width="1.341" d="M280.529 93.92h23.441M310.061 91.401l10.264-10.24M326.381 48.109l23.477.014M372.31 32.823h23.464M356.016 45.527l10.156-10.17M447.675 50.626l10.216 10.183M555.7 32.844l23.566-.03M447.729 106.647l10.18-10.217M463.979 124.508l23.502.008M463.993 93.94h23.465M447.701 81.165l10.208 10.212M447.68 111.73l10.252 10.204M493.592 121.966l10.274-10.258M493.613 96.485l10.228 10.195M539.489 111.78l10.207 10.185M585.362 121.912l10.2-10.134M555.834 124.502l23.421.006M509.983 109.206l23.388.015M585.325 152.563l10.284-10.226M509.922 170.304l23.4-.009M555.861 155.023l23.37-.006M585.325 127.01l10.246 10.234M585.334 96.44l10.208 10.205M585.312 91.39l10.23-10.181M585.334 65.884l10.235 10.22M539.486 167.78l10.24-10.237M464.034 185.609l23.453-.036M493.639 183.045l10.202-10.2M447.648 203.33l10.291 10.286M493.574 188.08l10.238 10.255M447.704 198.385l10.205-10.26M493.632 213.602l10.196-10.215M418.164 231.453l23.444-.012M401.781 244.187l10.292-10.202M401.86 249.213l10.24 10.323M418.17 261.949l23.456-.008M372.208 246.716h23.465M447.712 228.95l10.245-10.27M585.334 60.873l10.223-10.234M585.362 35.379l10.155 10.15M539.424 45.576l10.22-10.187M509.95 200.87l23.379.058M418.178 48.088h23.465M372.22 2.253h23.466M418.218 17.537h23.466M401.83 30.263l10.157-10.17M447.75 15.034l10.156-10.17M447.673 76.125l10.156-10.17M401.864 35.37l10.216 10.183M401.82 4.777l10.216 10.184"/>
        <path fill="#DCE0E6" d="M33.814 32.824a1.58 1.58 0 1 1-3.16-.002 1.58 1.58 0 0 1 3.16.002M3.168 32.826a1.58 1.58 0 1 1-3.16-.002 1.58 1.58 0 0 1 3.16.002"/>
        <path fill="#F26522" d="M34.041 2.116a1.58 1.58 0 1 1-3.159-.001 1.58 1.58 0 0 1 3.16.001"/>
        <path fill="#DCE0E6" d="M49.099 17.528a1.58 1.58 0 1 1-3.16-.002 1.58 1.58 0 0 1 3.16.002M49.08 48.089a1.58 1.58 0 1 1-3.158-.002 1.58 1.58 0 0 1 3.159.002M79.717 48.08a1.58 1.58 0 1 1-3.16-.001 1.58 1.58 0 0 1 3.16.001"/>
        <path fill="#F26522" d="M94.947 63.36a1.58 1.58 0 1 1-3.16-.003 1.58 1.58 0 0 1 3.16.002"/>
        <path fill="#DCE0E6" d="M125.6 63.395a1.58 1.58 0 1 1-3.158-.002 1.58 1.58 0 0 1 3.159.002M79.692 17.54a1.58 1.58 0 1 1-3.159-.001 1.58 1.58 0 0 1 3.16.002M95.133 2.116a1.58 1.58 0 1 1-3.16-.001 1.58 1.58 0 0 1 3.16.001M79.705 109.178a1.58 1.58 0 1 1-3.16-.002 1.58 1.58 0 0 1 3.16.002M49.12 109.195a1.58 1.58 0 1 1-3.158-.002 1.58 1.58 0 0 1 3.159.002M94.953 93.938a1.58 1.58 0 1 1-3.159-.002 1.58 1.58 0 0 1 3.16.002M33.838 124.478a1.58 1.58 0 1 1-3.159-.002 1.58 1.58 0 0 1 3.16.002M49.12 139.745a1.58 1.58 0 1 1-3.158-.002 1.58 1.58 0 0 1 3.159.002M79.705 139.778a1.58 1.58 0 1 1-3.16-.001 1.58 1.58 0 0 1 3.16.001M125.588 155.045a1.58 1.58 0 1 1-3.159-.001 1.58 1.58 0 0 1 3.16.001"/>
        <path fill="#F26522" d="M94.988 155.045a1.58 1.58 0 1 1-3.159-.001 1.58 1.58 0 0 1 3.159.001"/>
        <path fill="#DCE0E6" d="M140.888 170.312a1.58 1.58 0 1 1-3.16-.002 1.58 1.58 0 0 1 3.16.002"/>
        <path fill="#A7A9AC" d="M309.144 93.992a1.58 1.58 0 1 1-3.16-.002 1.58 1.58 0 0 1 3.16.002M324.433 78.658a1.58 1.58 0 1 1-3.16-.002 1.58 1.58 0 0 1 3.16.002"/>
        <path fill="#DCE0E6" d="M278.505 155.02a1.58 1.58 0 1 1-3.159-.001 1.58 1.58 0 0 1 3.16.001M263.223 109.214a1.58 1.58 0 1 1-3.159-.002 1.58 1.58 0 0 1 3.16.002M278.524 124.517a1.58 1.58 0 1 1-3.16-.001 1.58 1.58 0 0 1 3.16.001M278.508 93.992a1.58 1.58 0 1 1-3.159-.002 1.58 1.58 0 0 1 3.16.002"/>
        <path fill="#F26522" d="M309.13 63.409a1.58 1.58 0 1 1-3.16-.002 1.58 1.58 0 0 1 3.16.002M217.311 32.836a1.58 1.58 0 1 1-3.159-.002 1.58 1.58 0 0 1 3.16.002"/>
        <path fill="#DCE0E6" d="M232.614 17.55a1.58 1.58 0 1 1-3.159-.003 1.58 1.58 0 0 1 3.16.002M232.652 48.047a1.58 1.58 0 1 1-3.16-.002 1.58 1.58 0 0 1 3.16.002M263.258 48.16a1.58 1.58 0 1 1-3.16-.002 1.58 1.58 0 0 1 3.16.002"/>
        <path fill="#A7A9AC" d="M309.098 155.025a1.58 1.58 0 1 1-3.159-.002 1.58 1.58 0 0 1 3.16.002"/>
        <path fill="#F26522" d="M324.379 139.76a1.58 1.58 0 1 1-3.16-.001 1.58 1.58 0 0 1 3.16.002"/>
        <path fill="#A7A9AC" d="M309.098 124.508a1.58 1.58 0 1 1-3.159-.002 1.58 1.58 0 0 1 3.16.002"/>
        <path fill="#F26522" d="M232.61 109.238a1.58 1.58 0 1 1-3.16-.002 1.58 1.58 0 0 1 3.16.002"/>
        <path fill="#DCE0E6" d="M186.754 155.045a1.58 1.58 0 1 1-3.159-.001 1.58 1.58 0 0 1 3.16.001M217.338 155.045a1.58 1.58 0 1 1-3.159-.001 1.58 1.58 0 0 1 3.16.001"/>
        <path fill="#F26522" d="M232.622 170.33a1.58 1.58 0 1 1-3.16-.003 1.58 1.58 0 0 1 3.16.002"/>
        <path fill="#DCE0E6" d="M263.222 170.346a1.58 1.58 0 1 1-3.16-.002 1.58 1.58 0 0 1 3.16.002M278.522 185.58a1.58 1.58 0 1 1-3.16-.003 1.58 1.58 0 0 1 3.16.002M263.205 200.846a1.58 1.58 0 1 1-3.16-.002 1.58 1.58 0 0 1 3.16.002M278.508 216.15a1.58 1.58 0 1 1-3.16-.002 1.58 1.58 0 0 1 3.16.002M263.24 231.397a1.58 1.58 0 1 1-3.159-.002 1.58 1.58 0 0 1 3.16.002M79.698 78.67a1.58 1.58 0 1 1-3.159-.001 1.58 1.58 0 0 1 3.16.002M125.6 246.72a1.58 1.58 0 1 1-3.16-.003 1.58 1.58 0 0 1 3.16.002"/>
        <path fill="#F26522" d="M94.99 246.703a1.58 1.58 0 1 1-3.159-.001 1.58 1.58 0 0 1 3.16.001"/>
        <path fill="#DCE0E6" d="M79.693 261.968a1.58 1.58 0 1 1-3.16-.001 1.58 1.58 0 0 1 3.16.001M140.865 231.423a1.58 1.58 0 1 1-3.159-.001 1.58 1.58 0 0 1 3.16.001M171.443 231.439a1.58 1.58 0 1 1-3.16-.002 1.58 1.58 0 0 1 3.16.002"/>
        <path fill="#F26522" d="M186.755 216.158a1.58 1.58 0 1 1-3.159-.001 1.58 1.58 0 0 1 3.16.001"/>
        <path fill="#DCE0E6" d="M217.355 185.596a1.58 1.58 0 1 1-3.159-.002 1.58 1.58 0 0 1 3.16.002M232.622 200.88a1.58 1.58 0 1 1-3.16-.002 1.58 1.58 0 0 1 3.16.002M217.37 216.164a1.58 1.58 0 1 1-3.16-.002 1.58 1.58 0 0 1 3.16.002M171.455 170.33a1.58 1.58 0 1 1-3.16-.003 1.58 1.58 0 0 1 3.16.002M125.6 277.233a1.58 1.58 0 1 1-3.16-.001 1.58 1.58 0 0 1 3.16.001M95.02 277.264a1.58 1.58 0 1 1-3.158-.002 1.58 1.58 0 0 1 3.159.002"/>
        <path fill="#A7A9AC" d="M355.028 48.06a1.58 1.58 0 1 1-3.159-.002 1.58 1.58 0 0 1 3.16.002M370.294 32.81a1.58 1.58 0 1 1-3.16-.001 1.58 1.58 0 0 1 3.16.002"/>
        <path fill="#F26522" d="M416.158 17.562A1.58 1.58 0 1 1 413 17.56a1.58 1.58 0 0 1 3.16.002"/>
        <path fill="#A7A9AC" d="M400.893 32.834a1.58 1.58 0 1 1-3.159-.002 1.58 1.58 0 0 1 3.16.002M324.395 48.122a1.58 1.58 0 1 1-3.159-.001 1.58 1.58 0 0 1 3.16.001"/>
        <path fill="#F26522" d="M446.738 78.652a1.58 1.58 0 1 1-3.16-.002 1.58 1.58 0 0 1 3.16.002"/>
        <path fill="#A7A9AC" d="M462.016 63.377a1.58 1.58 0 1 1-3.16-.002 1.58 1.58 0 0 1 3.16.002M446.724 48.103a1.58 1.58 0 1 1-3.159-.002 1.58 1.58 0 0 1 3.16.002"/>
        <path fill="#F26522" d="M492.636 124.5a1.58 1.58 0 1 1-3.159 0 1.58 1.58 0 0 1 3.16 0"/>
        <path fill="#A7A9AC" d="M416.168 48.129a1.58 1.58 0 1 1-3.159-.002 1.58 1.58 0 0 1 3.16.002M492.623 93.952a1.58 1.58 0 1 1-3.159-.002 1.58 1.58 0 0 1 3.16.002M462.041 93.927a1.58 1.58 0 1 1-3.159-.002 1.58 1.58 0 0 1 3.16.002M462.031 124.483a1.58 1.58 0 1 1-3.159-.002 1.58 1.58 0 0 1 3.16.002M446.738 109.214a1.58 1.58 0 1 1-3.16-.002 1.58 1.58 0 0 1 3.16.002M507.94 109.2a1.58 1.58 0 1 1-3.158-.001 1.58 1.58 0 0 1 3.159.002M599.681 109.208a1.58 1.58 0 1 1-3.159-.001 1.58 1.58 0 0 1 3.16.001M553.788 124.473a1.58 1.58 0 1 1-3.159-.002 1.58 1.58 0 0 1 3.159.002M538.523 109.215a1.58 1.58 0 1 1-3.158 0 1.58 1.58 0 0 1 3.158 0M599.64 139.788a1.58 1.58 0 1 1-3.159-.002 1.58 1.58 0 0 1 3.16.002"/>
        <path fill="#F26522" d="M584.4 124.49a1.58 1.58 0 1 1-3.158-.002 1.58 1.58 0 0 1 3.159.002"/>
        <path fill="#A7A9AC" d="M553.84 155.026a1.58 1.58 0 1 1-3.159-.001 1.58 1.58 0 0 1 3.16.001M584.385 155.06a1.58 1.58 0 1 1-3.16-.002 1.58 1.58 0 0 1 3.16.002M584.384 93.927a1.58 1.58 0 1 1-3.16-.002 1.58 1.58 0 0 1 3.16.002"/>
        <g transform="translate(596.146 76.988)">
            <mask id="b" fill="#fff">
                <use xlink:href="#a"/>
            </mask>
            <path fill="#F26522" d="M3.553 1.658a1.58 1.58 0 1 1-3.16-.002 1.58 1.58 0 0 1 3.16.002" mask="url(#b)"/>
        </g>
        <path fill="#F26522" d="M538.481 170.263a1.58 1.58 0 1 1-3.159-.002 1.58 1.58 0 0 1 3.16.002"/>
        <path fill="#A7A9AC" d="M461.993 185.596a1.58 1.58 0 1 1-3.159-.002 1.58 1.58 0 0 1 3.16.002M446.718 200.855a1.58 1.58 0 1 1-3.16-.001 1.58 1.58 0 0 1 3.16.001M507.907 170.333a1.58 1.58 0 1 1-3.16-.002 1.58 1.58 0 0 1 3.16.002M492.618 185.538a1.58 1.58 0 1 1-3.16-.002 1.58 1.58 0 0 1 3.16.002M507.907 200.844a1.58 1.58 0 1 1-3.16-.002 1.58 1.58 0 0 1 3.16.002M446.747 231.416a1.58 1.58 0 1 1-3.16-.002 1.58 1.58 0 0 1 3.16.002M400.85 246.703a1.58 1.58 0 1 1-3.16-.001 1.58 1.58 0 0 1 3.16.001M416.182 262.01a1.58 1.58 0 1 1-3.16-.002 1.58 1.58 0 0 1 3.16.002"/>
        <path fill="#F26522" d="M416.168 231.43a1.58 1.58 0 1 1-3.159-.001 1.58 1.58 0 0 1 3.16.002"/>
        <path fill="#A7A9AC" d="M446.765 262.01a1.58 1.58 0 1 1-3.16-.002 1.58 1.58 0 0 1 3.16.002M370.256 246.703a1.58 1.58 0 1 1-3.16-.001 1.58 1.58 0 0 1 3.16.001M462.022 216.143a1.58 1.58 0 1 1-3.159-.002 1.58 1.58 0 0 1 3.16.002M584.367 63.381a1.58 1.58 0 1 1-3.16-.001 1.58 1.58 0 0 1 3.16.001M599.664 48.1a1.58 1.58 0 1 1-3.159-.002 1.58 1.58 0 0 1 3.16.002M584.384 32.836a1.58 1.58 0 1 1-3.16-.001 1.58 1.58 0 0 1 3.16.001M553.771 32.836a1.58 1.58 0 1 1-3.16-.001 1.58 1.58 0 0 1 3.16.001"/>
        <path fill="#F26522" d="M538.517 48.135a1.58 1.58 0 1 1-3.16-.001 1.58 1.58 0 0 1 3.16.001"/>
        <path fill="#A7A9AC" d="M538.484 200.878a1.58 1.58 0 1 1-3.159-.002 1.58 1.58 0 0 1 3.16.002M400.848 2.267a1.58 1.58 0 1 1-3.159-.002 1.58 1.58 0 0 1 3.16.002M446.758 17.54a1.58 1.58 0 1 1-3.16-.003 1.58 1.58 0 0 1 3.16.002"/>
        <path fill="#F26522" d="M309.135 216.136a1.58 1.58 0 1 1-3.16-.002 1.58 1.58 0 0 1 3.16.002"/>
        <path fill="#DCE0E6" d="M278.524 63.409a1.58 1.58 0 1 1-3.16-.002 1.58 1.58 0 0 1 3.16.002"/>
        <path fill="#F26522" d="M492.618 216.15a1.58 1.58 0 1 1-3.16-.002 1.58 1.58 0 0 1 3.16.002"/>
        <path fill="#A7A9AC" d="M462.078 2.34a1.58 1.58 0 1 1-3.16-.003 1.58 1.58 0 0 1 3.16.002"/>
        <path fill="#DCE0E6" d="M3.16 2.257a1.58 1.58 0 1 1-3.159-.002 1.58 1.58 0 0 1 3.159.002"/>
        <path fill="#A7A9AC" d="M370.271 2.289a1.58 1.58 0 1 1-3.16-.002 1.58 1.58 0 0 1 3.16.002"/>
    </g>
</svg>
