<svg width="72" height="95" viewBox="0 0 72 95" fill="none" xmlns="http://www.w3.org/2000/svg">
<path d="M40.4608 51.3C38.3025 52.9856 8.81518 49.1425 6.43118 28.6798C4.04718 8.21715 43.8257 2.4213 52.3175 11.4189C60.8093 20.4166 48.99 51.2005 48.99 51.2005M48.99 51.2005C45.8213 64.8639 44.9981 65.31 46.9557 74.1375C49.7636 82.0341 52.0225 87.5764 60.0546 81.9898C66.7929 73.8738 53.4676 55.5928 48.99 51.2005Z" stroke="#F4BD19" stroke-width="4"/>
<path d="M40.1589 51.368C35.903 49.8082 33.0283 47.8726 32.6878 44.9494C32.3472 42.0262 41.5463 46.256 42.3622 48.4723C43.1781 50.6886 41.1738 50.2396 41.1738 50.2396C35.6433 46.9245 36.4649 41.9995 37.7817 40.8033C39.0986 39.6071 43.8583 42.6697 45.7925 46.8005C45.7925 46.8005 44.7969 49.4244 43.679 47.276C42.5612 45.1276 42.4646 37.6497 44.7065 37.7452C46.9485 37.8407 48.4895 43.3453 46.6982 46.5967" stroke="black"/>
</svg>
