<?xml version="1.0" encoding="UTF-8"?>
<svg width="512px" height="512px" viewBox="0 0 512 512" version="1.1" xmlns="http://www.w3.org/2000/svg" xmlns:xlink="http://www.w3.org/1999/xlink">
    <!-- Generator: Sketch 53.2 (72643) - https://sketchapp.com -->
    <title>connect</title>
    <desc>Created with Sketch.</desc>
    <defs>
        <linearGradient x1="0%" y1="49.1531093%" x2="100%" y2="48.9869969%" id="linearGradient-1">
            <stop stop-color="#2193B0" offset="0%"></stop>
            <stop stop-color="#6DD5ED" offset="100%"></stop>
        </linearGradient>
        <linearGradient x1="0%" y1="33.657514%" x2="100%" y2="30.4520364%" id="linearGradient-2">
            <stop stop-color="#2193B0" offset="0%"></stop>
            <stop stop-color="#6DD5ED" offset="100%"></stop>
        </linearGradient>
        <linearGradient x1="0%" y1="44.9011401%" x2="100%" y2="43.9010303%" id="linearGradient-3">
            <stop stop-color="#2193B0" offset="0%"></stop>
            <stop stop-color="#6DD5ED" offset="100%"></stop>
        </linearGradient>
        <linearGradient x1="16.7831067%" y1="33.657514%" x2="83.2168933%" y2="30.4520364%" id="linearGradient-4">
            <stop stop-color="#2193B0" offset="0%"></stop>
            <stop stop-color="#6DD5ED" offset="100%"></stop>
        </linearGradient>
        <linearGradient x1="98.1096912%" y1="0.689957481%" x2="58.9456869%" y2="40.8636065%" id="linearGradient-5">
            <stop stop-color="#0052CC" offset="18%"></stop>
            <stop stop-color="#2684FF" offset="100%"></stop>
        </linearGradient>
        <linearGradient x1="100.638638%" y1="1.00697849%" x2="55.3752034%" y2="44.7885393%" id="linearGradient-6">
            <stop stop-color="#0052CC" offset="18%"></stop>
            <stop stop-color="#2684FF" offset="100%"></stop>
        </linearGradient>
    </defs>
    <g id="connect" stroke="none" stroke-width="1" fill="none" fill-rule="evenodd">
        <rect id="Rectangle" fill-opacity="0.01" fill="#FFFFFF" x="0" y="0" width="512" height="512"></rect>
        <g transform="translate(13.000000, 85.000000)">
            <polyline id="Path" stroke="url(#linearGradient-1)" stroke-width="6" stroke-linecap="round" stroke-linejoin="round" points="138.324444 29.1613104 166.525404 0.377777778 402.346916 0.377777778 451.213333 37.4547972 451.213333 71.6047976"></polyline>
            <path d="M451.213333,142.827556 C470.065173,142.827556 485.346667,127.546062 485.346667,108.694222 C485.346667,89.8429511 470.065173,74.5608889 451.213333,74.5608889 C432.361493,74.5608889 417.08,89.8429511 417.08,108.694222 C417.08,127.546062 432.361493,142.827556 451.213333,142.827556 Z" id="Path" stroke="url(#linearGradient-2)" stroke-width="6" stroke-linecap="round" stroke-linejoin="round"></path>
            <path d="M34.7866667,242.155556 C15.9353956,242.155556 0.653333333,226.874062 0.653333333,208.022222 C0.653333333,189.170382 15.9353956,173.888889 34.7866667,173.888889 C53.6379378,173.888889 68.92,189.170382 68.92,208.022222 C68.92,226.874062 53.6379378,242.155556 34.7866667,242.155556 Z M59.8177778,233.260721 L116.706667,280.256271 L59.8177778,233.260721 Z M138.324444,341.482795 C119.472604,341.482795 104.191111,326.201301 104.191111,307.349461 C104.191111,288.497621 119.472604,273.216128 138.324444,273.216128 C157.176284,273.216128 172.457778,288.497621 172.457778,307.349461 C172.457778,326.201301 157.176284,341.482795 138.324444,341.482795 Z M156.528889,274.229854 L293.062222,140.792493 L156.528889,274.229854 Z M425.536702,177.287496 L343.124444,122.883339 L425.536702,177.287496 C430.937911,173.703138 437.418381,171.615236 444.386667,171.615236 C463.238507,171.615236 478.52,186.896729 478.52,205.748569 C478.52,224.600409 463.238507,239.881903 444.386667,239.881903 C425.534827,239.881903 410.253333,224.600409 410.253333,205.748569 C410.253333,193.865015 416.325603,183.400176 425.536702,177.287495 Z M308.991111,142.827556 C290.139271,142.827556 274.857778,127.546062 274.857778,108.694222 C274.857778,89.8429511 290.139271,74.5608889 308.991111,74.5608889 C327.842951,74.5608889 343.124444,89.8429511 343.124444,108.694222 C343.124444,127.546062 327.842951,142.827556 308.991111,142.827556 Z M372.706667,341.482795 C353.854827,341.482795 338.573333,326.201301 338.573333,307.349461 C338.573333,288.497621 353.854827,273.216128 372.706667,273.216128 C391.558507,273.216128 406.84,288.497621 406.84,307.349461 C406.84,326.201301 391.558507,341.482795 372.706667,341.482795 Z M435.284444,240.110219 L389.773333,277.345234 L435.284444,240.110219 Z" id="Combined-Shape" stroke="url(#linearGradient-3)" stroke-width="6" stroke-linecap="round" stroke-linejoin="round"></path>
            <polyline id="Path" stroke="url(#linearGradient-4)" stroke-width="6" stroke-linecap="round" stroke-linejoin="round" points="121.257778 95.1291713 121.257778 112.873938 52.9911111 178.884837"></polyline>
            <path d="M125.808889,94.8133333 C144.660729,94.8133333 159.942222,79.5312711 159.942222,60.68 C159.942222,41.8287289 144.660729,26.5466667 125.808889,26.5466667 C106.957618,26.5466667 91.6755556,41.8287289 91.6755556,60.68 C91.6755556,79.5312711 106.957618,94.8133333 125.808889,94.8133333 Z" id="Path" stroke="url(#linearGradient-2)" stroke-width="6" stroke-linecap="round" stroke-linejoin="round"></path>
            <g id="Group" transform="translate(16.582222, 44.751111)">
                <g id="sentry" transform="translate(103.537778, 244.963556)">
                    <rect id="Bg" x="0" y="0" width="36.4088889" height="36.4088889"></rect>
                    <g id="Logo" fill="#221F20" fill-rule="nonzero">
                        <path d="M20.9519236,1.66754343 C20.3555594,0.635597844 19.2541448,0 18.0622715,0 C16.8703981,0 15.7689836,0.635597844 15.1726193,1.66754343 L10.4151912,9.90808861 L11.6288208,10.604712 C18.4046147,14.5236128 22.7643094,21.5786069 23.2384018,29.3916987 L19.8984931,29.3916987 C19.4289682,22.7653108 15.7000211,16.8044524 9.94673013,13.4834415 L8.7331005,12.7892454 L4.30092509,20.4957935 L5.51455472,21.1924169 C8.49477608,22.9429849 10.5049389,25.9662841 10.966179,29.3916987 L3.33730316,29.3916987 C3.13860106,29.3949549 2.95354161,29.2909576 2.85300189,29.1195374 C2.75246217,28.9481172 2.75202251,28.7358385 2.85185131,28.5640033 L4.97813042,24.881851 C4.25991192,24.2763115 3.43740176,23.8066582 2.55087116,23.4958859 L0.446437387,27.1707565 C-0.149171699,28.2033826 -0.148788193,29.475287 0.447443504,30.5075538 C1.0436752,31.5398206 2.14521803,32.1757014 3.33730316,32.1757651 L13.8351995,32.1757651 L13.8351995,30.7849455 C13.8365985,26.3234203 11.6923785,22.1334302 8.07288598,19.5248898 L9.74284035,16.6315968 C14.3841126,19.8443038 17.1556963,25.1280886 17.1605446,30.7728092 L17.1605446,32.166056 L26.0564498,32.166056 L26.0564498,30.7752365 C26.048273,21.9552968 21.5898952,13.7350486 14.2017156,8.91776684 L17.5780332,3.06079024 C17.6765133,2.89052179 17.8582928,2.78566497 18.0549897,2.78566497 C18.2516866,2.78566497 18.4334661,2.89052179 18.5319461,3.06079024 L33.2557008,28.5640033 C33.3555296,28.7358385 33.3550899,28.9481172 33.2545502,29.1195374 C33.1540105,29.2909576 32.9689511,29.3949549 32.7702489,29.3916987 L29.3259681,29.3916987 C29.3696587,30.321339 29.3745132,31.2509793 29.3259681,32.1781923 L32.7823852,32.1781923 C33.9744704,32.1781286 35.0760132,31.5422479 35.6722449,30.5099811 C36.2684766,29.4777143 36.2688601,28.2058099 35.673251,27.1731837 L20.9519236,1.66754343 Z" id="Path"></path>
                    </g>
                </g>
                <g id="jira" transform="translate(91.022222, 0.000000)">
                    <rect id="Bg" x="0" y="0" width="36.4088889" height="36.4088889"></rect>
                    <g id="jira-logo-gradient-blue" fill-rule="nonzero">
                        <path d="M34.4837065,0.30922618 L17.2368658,0.30922618 C17.2368658,4.6090486 20.7225605,8.09474338 25.022383,8.09474338 L28.1944451,8.09474338 L28.1944451,11.1620676 C28.1917958,13.2281846 29.011043,15.2105133 30.4715417,16.6719476 C31.9320403,18.1333819 33.913844,18.9538984 35.9799623,18.9525739 L35.9799623,1.80548189 C35.9799623,0.979122678 35.3100658,0.30922618 34.4837065,0.30922618 Z" id="Path" fill="#2684FF"></path>
                        <path d="M25.9350989,8.90272146 L8.69823318,8.90272146 C8.69823318,13.2025439 12.183928,16.6882387 16.4837504,16.6882387 L19.6608,16.6882387 L19.6608,19.7505753 C19.6607921,24.0445613 23.1373766,27.5278402 27.4313546,27.5360925 L27.4313546,10.3989772 C27.4313546,9.57261796 26.7614581,8.90272146 25.9350989,8.90272146 L25.9350989,8.90272146 Z" id="Path" fill="url(#linearGradient-5)"></path>
                        <path d="M17.4114289,17.4962167 L0.164586527,17.4962167 C0.163264801,19.5606055 0.982412591,21.5408952 2.4416884,23.0011065 C3.90096422,24.4613177 5.8807286,25.2817344 7.94511781,25.2817339 L11.1221674,25.2817339 L11.1221674,28.3440706 C11.1221674,32.643893 14.6078622,36.1295878 18.9076846,36.1295878 L18.9076846,18.9924725 C18.9076846,18.1661132 18.2377881,17.4962167 17.4114289,17.4962167 Z" id="Path" fill="url(#linearGradient-6)"></path>
                    </g>
                </g>
                <g id="gitlab" transform="translate(0.000000, 145.066667)">
                    <rect id="Bg" x="0" y="0" width="36.4088889" height="36.4088889"></rect>
                    <g id="Logo" transform="translate(0.000000, 1.399467)" fill-rule="nonzero">
                        <g id="g44" fill="#FC6D26">
                            <path d="M36.3011703,19.261164 L34.2642114,13.0005586 L30.2333812,0.582757659 C30.1382228,0.298659735 29.8721386,0.10717084 29.5725275,0.10717084 C29.2729165,0.10717084 29.0068323,0.298659735 28.9116739,0.582757659 L24.882998,12.9930183 L11.4892665,12.9930183 L7.45843629,0.582757659 C7.36327785,0.298659735 7.09719366,0.10717084 6.79758264,0.10717084 C6.49797163,0.10717084 6.23188744,0.298659735 6.13672899,0.582757659 L2.11343905,12.9930183 L0.0754030243,19.261164 C-0.109876519,19.8320393 0.0926183861,20.4573401 0.577371729,20.8112347 L18.1850551,33.6082051 L35.7927385,20.8112347 C36.2795873,20.4588593 36.4847293,19.8334369 36.3011703,19.261164" id="path46"></path>
                        </g>
                        <g id="g48" transform="translate(11.418172, 12.926233)" fill="#E24329">
                            <polygon id="path50" points="6.77119158 20.6701233 6.77119158 20.6701233 13.4648258 0.0657083498 0.0754030243 0.0657083498"></polygon>
                        </g>
                        <g id="g56" transform="translate(2.046654, 12.926233)" fill="#FC6D26">
                            <polygon id="path58" points="16.1384016 20.6712005 9.44261302 0.0657083498 0.0710942801 0.0657083498"></polygon>
                        </g>
                        <g id="g64" transform="translate(0.000000, 12.926233)" fill="#FCA326">
                            <path d="M2.1102075,0.0732486522 L2.1102075,0.0732486522 L0.0721714661,6.33385404 C-0.113108077,6.9047294 0.089386828,7.53003019 0.574140171,7.88392479 L18.1818235,20.6819724 L2.1102075,0.0732486522 Z" id="path66"></path>
                        </g>
                        <g id="g72" transform="translate(2.046654, 0.107719)" fill="#E24329">
                            <path d="M0.0657083498,12.8917628 L9.44907613,12.8917628 L5.41070559,0.48150217 C5.31554715,0.197404245 5.04946295,0.00591535003 4.74985194,0.00591535003 C4.45024093,0.00591535003 4.18415673,0.197404245 4.08899829,0.48150217 L0.0657083498,12.8917628 Z" id="path74"></path>
                        </g>
                        <g id="g76" transform="translate(18.096726, 12.926233)" fill="#FC6D26">
                            <polygon id="path78" points="0.0926380013 20.6712005 6.78627219 0.0657083498 16.1685628 0.0657083498"></polygon>
                        </g>
                        <g id="g80" transform="translate(18.096726, 12.926233)" fill="#FCA326">
                            <path d="M16.1653312,0.0732486522 L16.1653312,0.0732486522 L18.2044444,6.33385404 C18.389724,6.9047294 18.1872291,7.53003019 17.7024757,7.88392479 L0.0937151874,20.6701233 L16.1653312,0.0732486522 Z" id="path82"></path>
                        </g>
                        <g id="g84" transform="translate(24.882998, 0.107719)" fill="#E24329">
                            <path d="M9.38444497,12.8917628 L0,12.8917628 L4.03083024,0.48150217 C4.12598869,0.197404245 4.39207288,0.00591535003 4.69168389,0.00591535003 C4.99129491,0.00591535003 5.2573791,0.197404245 5.35253754,0.48150217 L9.38336778,12.8917628 L9.38444497,12.8917628 Z" id="path86"></path>
                        </g>
                    </g>
                </g>
                <path d="M409.6,162.595528 C409.6,170.841 414.815573,177.837053 422.050702,180.305561 C422.960924,180.47705 423.293156,179.900754 423.293156,179.406119 C423.293156,178.962814 423.277227,177.789222 423.268124,176.231822 C418.203876,177.359917 417.135502,173.729482 417.135502,173.729482 C416.308338,171.57362 415.114809,170.999657 415.114809,170.999657 C413.461618,169.841231 415.239964,169.864563 415.239964,169.864563 C417.066098,169.996388 418.02752,171.788273 418.02752,171.788273 C419.652267,174.640591 422.288498,173.816977 423.326151,173.338674 C423.491129,172.132418 423.962169,171.30997 424.482133,170.843333 C420.439609,170.37203 416.190009,168.771466 416.190009,161.61909 C416.190009,159.581054 416.898844,157.915161 418.063929,156.609744 C417.876196,156.137274 417.251556,154.240396 418.241422,151.670394 C418.241422,151.670394 419.770596,151.168759 423.247644,153.583604 C424.700587,153.169464 426.257067,152.962978 427.805582,152.954811 C429.351822,152.962978 430.90944,153.169464 432.36352,153.583604 C435.838293,151.168759 437.364053,151.670394 437.364053,151.670394 C438.357333,154.240396 437.732693,156.137274 437.54496,156.609744 C438.71232,157.915161 439.416604,159.581054 439.416604,161.61909 C439.416604,168.788965 435.160178,170.367364 431.105138,170.829334 C431.758222,171.405631 432.340764,172.544225 432.340764,174.285947 C432.340764,176.781287 432.318009,178.793658 432.318009,179.406119 C432.318009,179.90542 432.645689,180.486383 433.569564,180.303228 C440.797867,177.830053 446.008889,170.838667 446.008889,162.595528 C446.008889,152.285188 437.857849,143.928889 427.803307,143.928889 C417.75104,143.928889 409.6,152.285188 409.6,162.595528 Z" id="github" fill="#000000"></path>
                <g id="elastic" transform="translate(416.426667, 45.738667)" fill-rule="nonzero">
                    <path d="M36.4088889,19.055487 C36.4088889,15.9839893 34.5065244,13.3299457 31.6830151,12.2865388 C31.8022542,11.637115 31.8623289,10.9780106 31.8614187,10.3179016 C31.8614187,4.6221328 27.254784,2.13162821e-14 21.577728,2.13162821e-14 C18.2790827,2.13162821e-14 15.187968,1.58031625 13.2555662,4.29427014 C12.304384,3.54840544 11.1456711,3.16118047 9.92688356,3.16118047 C6.92497067,3.16118047 4.45826844,5.60617739 4.45826844,8.64799394 C4.45826844,9.30417588 4.57750756,9.96035781 4.78503822,10.5566295 C1.93149156,11.5406741 0,14.2843091 0,17.3261257 C0,20.397806 1.90236444,23.0809828 4.75500089,24.1248464 C4.636672,24.7513472 4.57750756,25.4070725 4.57750756,26.0938488 C4.57750756,31.7588406 9.18414222,36.3817953 14.8311609,36.3817953 C18.1598436,36.3817953 21.2209209,34.7707933 23.1533227,32.0876165 C24.1045049,32.8328419 25.2932551,33.2502047 26.5120427,33.2502047 C29.5130453,33.2502047 31.9806578,30.8053904 31.9806578,27.7632999 C31.9806578,27.1075746 31.8614187,26.450936 31.653888,25.854573 C34.44736,24.8408473 36.4088889,22.0973949 36.4088889,19.055487 Z" id="Path" fill="#FFFFFF"></path>
                    <path d="M14.2367858,15.6257149 L22.3514169,19.3533945 L30.5543396,12.1366718 C30.6735787,11.5380256 30.7336533,10.9286029 30.7327431,10.317719 C30.7327431,5.2483596 26.6303716,1.13290702 21.577728,1.13290702 C18.546688,1.13290702 15.7231787,2.62408847 14.0283449,5.12899567 L12.6611911,12.2263545 L14.2367858,15.6261715 L14.2367858,15.6257149 Z" id="Path" fill="#F4BD19"></path>
                    <path d="M5.82542222,24.2444843 C5.70709333,24.8408473 5.64701867,25.467348 5.64701867,26.0938488 C5.64701867,31.1624776 9.77851733,35.307794 14.8311609,35.307794 C17.8922382,35.307794 20.7166578,33.7872054 22.4397084,31.2821155 L23.7777351,24.185122 L21.9645724,20.7256687 L13.8208142,16.9978064 L5.82542222,24.2444843 Z" id="Path" fill="#3CBEB1"></path>
                    <path d="M5.76625778,10.1389927 L11.3240747,11.4509 L12.5719893,5.09885788 C11.7992107,4.50258622 10.8780658,4.20449605 9.89684622,4.20449605 C7.49021867,4.20449605 5.49865244,6.17258524 5.49865244,8.6180388 C5.49865244,9.12517565 5.58785422,9.66153703 5.76625778,10.1389927 L5.76625778,10.1389927 Z" id="Path" fill="#E9478C"></path>
                    <path d="M5.29021156,11.4804898 C2.793472,12.2857168 1.07042133,14.7015806 1.07042133,17.3258517 C1.07042133,19.8902125 2.64510578,22.186895 5.02260622,23.0809828 L12.8395947,15.9837153 L11.4123662,12.9122176 L5.29021156,11.4809464 L5.29021156,11.4804898 Z" id="Path" fill="#2C458F"></path>
                    <path d="M23.8660267,31.2519777 C24.6388053,31.8483407 25.5608604,32.1771166 26.5120427,32.1771166 C28.9195804,32.1771166 30.9102364,30.2090274 30.9102364,27.7632999 C30.9102364,27.2262992 30.8210347,26.7194363 30.6435413,26.2427113 L25.0848142,24.9303474 L23.8660267,31.2519777 Z" id="Path" fill="#95C63D"></path>
                    <path d="M24.9965227,23.4691211 L31.1186773,24.9002096 C33.6154169,24.0645708 35.3384676,21.6791188 35.3384676,19.0551217 C35.3384676,16.4902129 33.7637831,14.2240335 31.3862827,13.2998992 L23.3617636,20.3375304 L24.9965227,23.4691211 Z" id="Path" fill="#176655"></path>
                </g>
                <g id="datadog" transform="translate(274.204444, 45.738667)">
                    <g id="Logo">
                        <path d="M7.93700268,26.8015132 L9.92594425,26.4609603 C10.8978987,27.5393778 10.5151213,27.9669609 11.3482251,28.5799561 C12.7329788,29.6016148 14.4667354,29.1437604 15.0596651,28.3112977 C15.757671,27.3274782 15.7088857,26.3890658 15.4912279,25.5036283 L17.7466126,25.1176683 L18.0205612,27.4447798 L30.8586161,25.1025326 L30.0968139,15.7448957 L29.6577457,15.8243581 L28.2917557,0.809759117 L5.11495728,3.25795607 L7.9407554,26.7977293 L7.93700268,26.8015132 Z" id="Path"></path>
                        <path d="M18.1744227,9.07005889 C18.3733168,8.88086284 17.1837046,8.62734012 16.2605355,9.26303887 C15.5812932,9.73224509 15.5587769,10.7387681 16.2079974,11.3101402 C16.2717937,11.366899 16.3280845,11.4085221 16.3768698,11.4387935 C16.5682585,11.3479794 16.7821636,11.2571653 17.0335958,11.173919 C17.4539005,11.0339139 17.8066561,10.9658034 18.0918628,10.9241802 C18.2307135,10.7690395 18.3883277,10.4928132 18.3508005,9.99711956 C18.2945097,9.32358161 17.7916453,9.4295314 18.17067,9.06627497 L18.1744227,9.07005889 Z M28.689544,0 L28.6670276,0 L4.47699489,2.83794083 L7.46040725,27.3199104 L10.2937108,26.9036791 C10.0685476,26.5782619 9.71579193,26.1809501 9.11160402,25.6739047 C8.27850019,24.9738793 8.57121235,23.7819442 9.06281866,23.0289439 C9.71579193,21.7575464 13.0707236,20.1418121 12.8793348,18.1098464 C12.8117859,17.3719818 12.6954516,16.4108658 12.0162093,15.7524636 C11.9899402,16.0249059 12.0349729,16.2897804 12.0349729,16.2897804 C12.0349729,16.2897804 11.7572716,15.9303079 11.6184209,15.442182 C11.4795703,15.252986 11.3707414,15.1924432 11.2243854,14.9427045 C11.1193092,15.2340664 11.1343201,15.5708354 11.1343201,15.5708354 C11.1343201,15.5708354 10.9054042,15.0259507 10.867877,14.5680963 C10.732779,14.772428 10.6990046,15.1659558 10.6990046,15.1659558 C10.6990046,15.1659558 10.4025397,14.3070057 10.4700886,13.8453673 C10.3349907,13.4442717 9.93344969,12.6458643 10.049784,10.8333661 C10.7890698,11.3555472 12.4139976,11.2344618 13.0482072,10.2884815 C13.2583596,9.97441604 13.4047156,9.12303379 12.9431311,7.4391889 C12.6466662,6.36077138 11.9186385,4.75260491 11.6334318,4.14339361 L11.5996573,4.16988106 C11.7497661,4.6617908 12.0612419,5.69101734 12.1775762,6.19049493 C12.5378373,7.70406337 12.635408,8.23381233 12.4665357,8.93005381 C12.3239323,9.53548119 11.9786821,9.93279291 11.1042983,10.3792956 C10.2299146,10.8257983 9.07407682,9.73981293 8.99902242,9.67927019 C8.15090772,8.99438047 7.49418173,7.88190767 7.41912733,7.33702303 C7.34407293,6.74294741 7.75687212,6.38725883 7.96702444,5.90291693 C7.66680684,5.98994711 7.33656749,6.14130396 7.33656749,6.14130396 C7.33656749,6.14130396 7.7343558,5.72507263 8.22596212,5.36560013 C8.42860899,5.22937897 8.54869603,5.14234878 8.76260107,4.96450449 C8.45112531,4.96072057 8.19969308,4.96828841 8.19969308,4.96828841 C8.19969308,4.96828841 8.71756843,4.68449433 9.25045466,4.48016259 C8.86017179,4.46124298 8.48489979,4.47637867 8.48489979,4.47637867 C8.48489979,4.47637867 9.63698481,3.95419756 10.5488958,3.57202152 C11.1756,3.31093097 11.7872933,3.39039331 12.1287909,3.8898709 C12.5791172,4.54827317 13.05196,4.90396175 14.0576889,5.1272131 C14.673135,4.85098686 14.860771,4.70719786 15.637584,4.49529827 C16.320579,3.73851405 16.8534653,3.6401321 16.8534653,3.6401321 C16.8534653,3.6401321 16.5870221,3.88608698 16.5157205,4.27204693 C16.9022506,3.96554932 17.326308,3.70824268 17.326308,3.70824268 C17.326308,3.70824268 17.1611883,3.91257442 17.0110795,4.23799164 L17.044854,4.29096654 C17.4951804,4.01852422 18.0243139,3.80284071 18.0243139,3.80284071 C18.0243139,3.80284071 17.8742051,3.99582069 17.6940745,4.2493434 C18.035572,4.24555948 18.7223198,4.26447909 18.9925156,4.29475046 C20.5724107,4.32880575 20.8988974,2.58820204 21.506838,2.36873461 C22.2648874,2.09629229 22.6063849,1.92979976 23.9010733,3.21254902 C25.0118784,4.31745398 25.8787567,6.2926608 25.4471939,6.73537957 C25.0869328,7.10241992 24.373916,6.59159057 23.5858448,5.59641932 C23.1692929,5.07045428 22.8540645,4.4461073 22.7039557,3.65526779 C22.5801159,2.98551375 22.0922623,2.5995538 22.0922623,2.5995538 C22.0922623,2.5995538 22.3737163,3.23525255 22.3737163,3.79527287 C22.3737163,4.10177048 22.4112435,5.24451465 22.8953444,5.88399732 C22.846559,5.97859535 22.8240427,6.34941962 22.7715046,6.4175302 C22.2085966,5.72885656 20.9964681,5.23694681 20.8013266,5.08937389 C21.4693108,5.64182637 23.0041733,6.91322386 23.5933503,8.13164646 C24.1525056,9.2857424 23.8222662,10.3414564 24.1037202,10.6138987 C24.1825273,10.693361 25.3045906,12.1009797 25.5184956,12.8123569 C25.8937676,14.0459151 25.5410119,15.3438001 25.0494056,16.1497753 L23.6759101,16.3654588 C23.4732632,16.3087 23.3381653,16.2822125 23.1580348,16.1762627 C23.2556055,15.9984184 23.4544996,15.5556997 23.4582524,15.4648856 L23.3794452,15.3286644 C22.9516352,15.9416596 22.2348657,16.5357352 21.6419359,16.8762881 C20.8651229,17.3227908 19.9682228,17.2546802 19.3827985,17.0692681 C17.7240963,16.5508709 16.1592121,15.4194785 15.7801874,15.1205487 C15.7801874,15.1205487 15.7689292,15.3589358 15.8402309,15.4119107 C16.2567828,15.8886847 17.2137264,16.7514187 18.1406482,17.3530622 L16.1667175,17.5725296 L17.1011448,24.9171205 C16.6883456,24.9776632 16.6245493,25.0079346 16.1704702,25.0722613 C15.7726819,23.645723 15.0071271,22.7148784 14.1740232,22.1737777 C13.4384901,21.6970036 12.4252557,21.5872699 11.4533013,21.7840338 L11.389505,21.8559283 C12.0649946,21.7840338 12.8605712,21.8824158 13.6786642,22.4083808 C14.4817463,22.9229941 15.1309668,24.2511504 15.3673882,25.0495577 C15.6713585,26.0712164 15.8852635,27.1647696 15.0634179,28.3226495 C14.4779935,29.1475443 12.7742587,29.6016148 11.3932577,28.6177953 C11.7610243,29.2156549 12.2601361,29.7075646 12.9281202,29.7983787 C13.922591,29.9345999 14.8682764,29.7605395 15.517497,29.0870015 C16.0728995,28.5080616 16.3656117,27.3047747 16.2905573,26.0333772 L17.1686937,25.9047239 L17.4839222,28.1864283 L32.0182066,26.4155532 L30.8323471,14.7156692 L30.0930612,14.8594582 L28.6707804,0.0151356844 L28.689544,0 Z M24.4114432,12.7253267 C24.2988616,12.661 23.7734808,12.6874875 23.4019616,12.7328945 C22.6964502,12.8161408 21.9346481,13.0658796 21.7695284,13.1945329 C21.4655581,13.4329199 21.6044087,13.8453673 21.8295719,14.0156438 C22.4562761,14.4886339 23.007926,14.8064833 23.5895976,14.7308049 C23.946106,14.6816139 24.2613344,14.1140257 24.4827449,13.5918446 C24.6366064,13.236156 24.6366064,12.8501961 24.4114432,12.7253267 Z M22.0059497,8.51003857 C21.9646698,8.6046366 21.9008736,8.66517933 21.9984443,8.97167694 L22.0059497,8.99059655 L22.0209606,9.02843576 L22.0622405,9.11924987 C22.2348657,9.47493845 22.4225017,9.81170743 22.7414829,9.9857678 C22.8240427,9.97063212 22.9066025,9.96306427 22.9966678,9.95928035 C23.2931327,9.94792859 23.4807687,9.99333564 23.6008557,10.0576623 C23.6121139,9.99711956 23.6121139,9.91008938 23.6083612,9.78143606 C23.5858448,9.33114945 23.6984264,8.55922954 22.8390536,8.15813391 C22.5163197,8.00677706 22.0584878,8.05218412 21.908379,8.24138017 C21.9346481,8.24516409 21.9609171,8.25273193 21.9796807,8.25651585 C22.2085966,8.3359782 22.0547351,8.41544054 22.0134552,8.51382249 L22.0059497,8.51003857 Z M16.9322724,18.0757911 L18.759847,17.8222684 C19.0563119,17.9584896 19.2627115,18.0076805 19.6154671,18.0984947 C20.167117,18.2422837 20.8088321,18.3822887 21.7545175,17.9017308 C21.975928,17.791997 22.4337598,17.3681979 22.6213958,17.1260269 L30.1155775,15.7524636 L30.8811324,25.1101005 L18.0430775,27.4485637 L16.9322724,18.079575 L16.9322724,18.0757911 Z M27.563728,21.1823904 L25.1094491,19.5439525 L23.0604641,23.0024564 L20.6812396,22.2986471 L18.5834692,25.5338996 L18.692298,26.5517744 L30.0893085,24.4289947 L29.4288298,17.2244089 L27.563728,21.1786064 L27.563728,21.1823904 Z" id="Shape" fill="#7C54A0"></path>
                        <path d="M35.3956545,34.149888 L35.3956545,35.4326372 C35.1629859,35.49318 34.9528336,35.5234513 34.772703,35.5234513 C33.5380581,35.5234513 32.9226121,34.8650491 32.9226121,33.5520285 C32.9226121,32.3373898 33.5755853,31.7319624 34.8852846,31.7319624 C35.429429,31.7319624 35.9397989,31.8341283 36.4088889,32.03846 L36.4088889,31.1189672 C35.9397989,30.9411229 35.4069127,30.8503088 34.8102302,30.8503088 C32.8550631,30.8503088 31.8793559,31.750882 31.8793559,33.5520285 C31.8793559,35.4553408 32.8400522,36.4088889 34.7614448,36.4088889 C35.4219235,36.4088889 35.9735734,36.3105069 36.4088889,36.117527 L36.4088889,33.2493148 L34.7802084,33.2493148 L34.4387109,34.149888 L35.3994072,34.149888 L35.3956545,34.149888 Z M28.4944025,35.5234513 C29.5901968,35.5234513 30.1380939,34.8877526 30.1380939,33.6125712 C30.1380939,32.3563094 29.5901968,31.7281785 28.4944025,31.7281785 C27.3685865,31.7281785 26.8094313,32.3563094 26.8094313,33.6125712 C26.8094313,34.8877526 27.3723393,35.5234513 28.4944025,35.5234513 Z M25.7586697,33.6352747 C25.7586697,31.7773695 26.6705806,30.8503088 28.4944025,30.8503088 C30.2882027,30.8503088 31.1851027,31.7773695 31.1851027,33.6352747 C31.1851027,35.4818282 30.2882027,36.405105 28.4944025,36.405105 C26.7531405,36.405105 25.8412295,35.4818282 25.7586697,33.6352747 Z M21.1728459,35.4856121 L22.3737163,35.4856121 C23.503285,35.4856121 24.0699457,34.8158581 24.0699457,33.47635 C24.0699457,32.3373898 23.503285,31.7660177 22.3737163,31.7660177 L21.1728459,31.7660177 L21.1728459,35.4818282 L21.1728459,35.4856121 Z M22.5238251,36.3672658 L20.1633643,36.3672658 L20.1633643,30.888148 L22.5238251,30.888148 C24.2238072,30.888148 25.0756747,31.750882 25.0756747,33.47635 C25.0756747,35.4023659 24.2238072,36.3672658 22.5238251,36.3672658 Z M14.7707057,36.3672658 L13.734955,36.3672658 L16.0466305,30.888148 L17.1311665,30.888148 L19.4916274,36.3672658 L18.4070913,36.3672658 L17.7203436,34.8726169 L15.9753288,34.8726169 L16.320579,33.9909633 L17.4501477,33.9909633 L16.5570004,31.9325102 L14.7632003,36.3672658 L14.7707057,36.3672658 Z M10.1210857,30.888148 L14.2528303,30.888148 L14.2528303,31.7698016 L12.6916988,31.7698016 L12.6916988,36.3672658 L11.6822172,36.3672658 L11.6822172,31.7698016 L10.1210857,31.7698016 L10.1210857,30.888148 Z M5.97057743,36.3672658 L4.93482673,36.3672658 L7.24650221,30.888148 L8.33103827,30.888148 L10.6914991,36.3672658 L9.60696305,36.3672658 L8.9202153,34.8726169 L7.17520053,34.8726169 L7.52045077,33.9909633 L8.65001947,33.9909633 L7.75687212,31.9325102 L5.96307199,36.3672658 L5.97057743,36.3672658 Z M1.00948166,35.4856121 L2.20659933,35.4856121 C3.33616803,35.4856121 3.89907602,34.8158581 3.89907602,33.47635 C3.89907602,32.3373898 3.33616803,31.7660177 2.20659933,31.7660177 L1.00948166,31.7660177 L1.00948166,35.4818282 L1.00948166,35.4856121 Z M2.36046084,36.3672658 L0,36.3672658 L0,30.888148 L2.36046084,30.888148 C4.06044298,30.888148 4.91231041,31.750882 4.91231041,33.47635 C4.91231041,35.4023659 4.06044298,36.3672658 2.36046084,36.3672658 Z" id="Shape" fill="#7C54A0"></path>
                    </g>
                </g>
                <g id="crashlytics" transform="translate(337.920000, 244.394667)">
                    <rect id="Bg" x="0" y="0" width="36.4088889" height="36.4088889"></rect>
                    <g id="Logo" transform="translate(1.319822, 0.000000)" fill="#9B1B1D" fill-rule="nonzero">
                        <path d="M13.9352384,7.19458113 C13.9352384,7.19458113 13.9351065,3.83295897 13.9443406,2.46380006 C13.9544982,0.985546409 14.8872781,0.0536899195 16.350889,0.0493366828 C17.7886444,0.0449834461 19.2263997,0.0451153623 20.6641551,0.0493366828 C22.1128595,0.053426087 23.0482777,0.974069694 23.0517076,2.41485913 C23.0583034,5.22190531 23.0540821,8.0289515 23.052631,10.8359977 C23.0524991,10.9838758 23.0360095,11.131622 23.0234775,11.3407093 C20.3798756,9.80995298 17.6823199,9.58292509 14.9397807,10.8530149 C12.8895382,11.8024162 11.4688,13.3847518 10.7134475,15.5186293 C9.20722757,19.7741161 11.5111451,24.4488327 15.8180792,25.9070351 C20.2876661,27.4201147 25.3434888,24.9332292 26.5966933,19.8268826 C26.7249159,19.9337348 30.9647047,24.0974078 32.9583552,26.0733815 C34.0416515,27.147048 34.0399366,28.4329677 32.9612573,29.5061065 C31.9783691,30.4839162 30.9926867,31.4589133 30.0042224,32.4310859 C28.9057556,33.5114801 27.6036102,33.5158333 26.5129265,32.4440137 C25.5240822,31.4723185 23.0408904,29.0447954 23.0408904,29.0447954 C23.0408904,29.0447954 23.0609417,32.5367508 23.0514437,33.957357 C23.0422096,35.3387842 22.1053403,36.2761811 20.7285302,36.2837004 C19.2566086,36.2918792 17.784555,36.2906919 16.3126333,36.2840961 C14.9077251,36.278028 13.9629408,35.3477545 13.9460555,33.9345355 C13.9298298,32.5655085 13.94223,29.0734212 13.94223,29.0734212 C13.94223,29.0734212 11.5476859,31.477727 10.5704502,32.4368902 C9.47264309,33.5143822 8.17617005,33.5145141 7.0791544,32.438737 C6.10175195,31.4797371 5.12706276,30.5179757 4.15509849,29.5534645 C3.02312502,28.4305932 3.02721443,27.1744866 4.13794937,26.0479217 C5.21742016,24.9530167 7.4539285,22.6614993 7.4539285,22.6614993 C7.4539285,22.6614993 3.91290023,22.6674355 2.42382944,22.6597843 C0.891094364,22.6520013 0.00883838969,21.763941 0.00382557166,20.2313378 C-0.000791497585,18.8448979 -0.0018468277,17.458458 0.00422132045,16.072018 C0.0106852174,14.5766153 0.900328502,13.6847294 2.40377816,13.6747038 C3.85855072,13.6650739 7.47226486,13.6723293 7.47226486,13.6723293 C7.47226486,13.6723293 5.03168206,11.232538 4.02555671,10.2297105 C2.9929162,9.20036792 2.98420973,7.89782673 4.00735227,6.87415652 C5.03590338,5.84520966 6.06907156,4.82087987 7.1116058,3.80604805 C8.0930628,2.85084238 9.44784283,2.84160824 10.4145252,3.81251195 C11.5356815,4.93841726 13.9352384,7.19458113 13.9352384,7.19458113" id="Path"></path>
                        <path d="M21.8680229,18.1491715 C21.8696059,19.9911183 20.3987396,21.4542016 18.5395118,21.4601378 C16.6509985,21.4660741 15.1718214,20.0007482 15.1792088,18.1316267 C15.1864642,16.3023438 16.6862202,14.82752 18.5315968,14.8350392 C20.3826458,14.8425585 21.866308,16.3164589 21.8680229,18.1491715" id="Path"></path>
                    </g>
                </g>
            </g>
        </g>
    </g>
</svg>