<?xml version="1.0" encoding="UTF-8"?>
<svg width="20px" height="20px" viewBox="0 0 20 20" version="1.1" xmlns="http://www.w3.org/2000/svg" xmlns:xlink="http://www.w3.org/1999/xlink">
    <!-- Generator: Sketch 52.6 (67491) - http://www.bohemiancoding.com/sketch -->
    <title>Mail</title>
    <desc>Created with Sketch.</desc>
    <g id="SignUp-and-SignIN" stroke="none" stroke-width="1" fill="none" fill-rule="evenodd">
        <g id="SignIN---Email" transform="translate(-906.000000, -324.000000)" fill="#FFFFFF">
            <g id="SignIN">
                <g id="Right" transform="translate(845.000000, 150.000000)">
                    <g id="Content">
                        <g id="SignIN-Options" transform="translate(45.000000, 160.000000)">
                            <g id="EMail">
                                <g id="Mail.InputText" transform="translate(16.000000, 14.000000)">
                                    <path d="M0,0 L20,0 L20,20 L0,20 L0,0 Z M1.53574131,16.2170984 C1.62508544,16.2386173 1.71823447,16.25 1.81397379,16.25 L18.1618607,16.25 C18.2473011,16.25 18.3306785,16.2409345 18.4111296,16.2236895 L13.3775227,10.873822 L12.2518084,12.0373167 C11.0564863,13.2727553 9.11848618,13.2727553 7.92316403,12.0373167 L6.67866268,10.7510483 L1.53574131,16.2170984 Z M19.3426917,4.70845445 L13.8905249,10.3436028 L19.0618332,15.8398234 C19.2564637,15.6189648 19.375,15.3261297 19.375,15.004879 L19.375,4.99512103 C19.375,4.89646509 19.3638208,4.80048901 19.3426917,4.70845445 Z M0.625,15.2533883 C0.66723207,15.4673894 0.762935402,15.6614783 0.897177939,15.8203293 L6.16566045,10.2208291 L0.773166926,4.64735667 C0.678703163,4.82455663 0.625,5.02791408 0.625,5.24414524 L0.625,15.2533883 Z M18.9352824,4.03581234 C18.7253268,3.85729703 18.4558022,3.75 18.1618607,3.75 L1.81397379,3.75 C1.54092017,3.75 1.28893653,3.84258954 1.08620099,3.99884765 L8.31311133,11.4162797 C9.26063204,12.3887797 10.7968666,12.3887797 11.7443873,11.4162797 L18.9352824,4.03581234 Z" id="Combined-Shape"></path>
                                </g>
                            </g>
                        </g>
                    </g>
                </g>
            </g>
        </g>
    </g>
</svg>
