<?xml version="1.0" encoding="UTF-8"?>
<svg width="64px" height="64px" viewBox="0 0 64 64" version="1.1" xmlns="http://www.w3.org/2000/svg" xmlns:xlink="http://www.w3.org/1999/xlink">
    <!-- Generator: Sketch 53.2 (72643) - https://sketchapp.com -->
    <title>Github</title>
    <desc>Created with Sketch.</desc>
    <g id="Github" stroke="none" stroke-width="1" fill="none" fill-rule="evenodd">
        <rect id="Form" stroke="#000000" fill="#000000" x="0.5" y="0.5" width="63" height="63" rx="31.5"></rect>
        <path d="M8,32.6093385 C8,43.4798344 14.876,52.7031456 24.4145,55.9575273 C25.6145,56.1836114 26.0525,55.4238456 26.0525,54.7717389 C26.0525,54.1873036 26.0315,52.6400881 26.0195,50.5868748 C19.343,52.0741087 17.9345,47.2878915 17.9345,47.2878915 C16.844,44.4456906 15.2705,43.6890007 15.2705,43.6890007 C13.091,42.1617791 15.4355,42.1925388 15.4355,42.1925388 C17.843,42.3663314 19.1105,44.7286803 19.1105,44.7286803 C21.2525,48.4890598 24.728,47.4032406 26.096,46.7726657 C26.3135,45.1823866 26.9345,44.0981054 27.62,43.4829104 C22.2905,42.8615634 16.688,40.7514445 16.688,31.322043 C16.688,28.6351787 17.6225,26.4389325 19.1585,24.7179245 C18.911,24.0950395 18.0875,21.5942718 19.3925,18.2060853 C19.3925,18.2060853 21.4085,17.5447506 25.9925,20.7283848 C27.908,20.1823992 29.96,19.9101755 32.0015,19.8994095 C34.04,19.9101755 36.0935,20.1823992 38.0105,20.7283848 C42.5915,17.5447506 44.603,18.2060853 44.603,18.2060853 C45.9125,21.5942718 45.089,24.0950395 44.8415,24.7179245 C46.3805,26.4389325 47.309,28.6351787 47.309,31.322043 C47.309,40.7745143 41.6975,42.8554115 36.3515,43.4644545 C37.2125,44.2242204 37.9805,45.7252962 37.9805,48.0215116 C37.9805,51.3112669 37.9505,53.9642954 37.9505,54.7717389 C37.9505,55.4299975 38.3825,56.1959153 39.6005,55.9544513 C49.13,52.6939177 56,43.4767584 56,32.6093385 C56,19.0166047 45.254,8 31.9985,8 C18.746,8 8,19.0166047 8,32.6093385 Z" fill="#FFFFFF"></path>
    </g>
</svg>