<?xml version="1.0" encoding="UTF-8"?>
<svg width="116px" height="29px" viewBox="0 0 116 29" version="1.1" xmlns="http://www.w3.org/2000/svg" xmlns:xlink="http://www.w3.org/1999/xlink">
    <!-- Generator: Sketch 53.2 (72643) - https://sketchapp.com -->
    <title>Kloudi Text Logo</title>
    <desc>Created with Sketch.</desc>
    <defs>
        <linearGradient x1="0%" y1="50%" x2="100%" y2="50%" id="linearGradient-1">
            <stop stop-color="#CC2B5E" offset="0%"></stop>
            <stop stop-color="#F06723" offset="100%"></stop>
        </linearGradient>
    </defs>
    <g id="Kloudi-Text-Logo" stroke="none" stroke-width="1" fill="none" fill-rule="evenodd">
        <g id="Group">
            <rect id="Bg" fill-opacity="0.01" fill="#FFFFFF" x="0" y="0" width="116" height="29"></rect>
            <path d="M2,4.50806452 L5.61689208,4.50806452 L5.61689208,13.1451613 L5.70300856,13.1451613 L14.1998344,4.50806452 L19.0797681,4.50806452 L9.57825007,13.7379032 L19.711289,24.4919355 L14.6304168,24.4919355 L5.70300856,14.4717742 L5.61689208,14.4717742 L5.61689208,24.4919355 L2,24.4919355 L2,4.50806452 Z M21.7780845,4.50806452 L25.3949765,4.50806452 L25.3949765,21.3306452 L34.0353298,21.3306452 L34.0353298,24.4919355 L21.7780845,24.4919355 L21.7780845,4.50806452 Z M34.6094397,14.4435484 C34.6094397,12.844078 34.8821391,11.399872 35.4275462,10.1108871 C35.9729533,8.82190216 36.7288571,7.72581097 37.6952802,6.82258065 C38.6617032,5.91935032 39.8099115,5.22312073 41.1399393,4.73387097 C42.4699671,4.24462121 43.91958,4 45.4888214,4 C47.0772,4 48.5411654,4.24462121 49.8807618,4.73387097 C51.2203582,5.22312073 52.3781348,5.91935032 53.3541264,6.82258065 C54.330118,7.72581097 55.090806,8.82190216 55.6362131,10.1108871 C56.1816202,11.399872 56.4543196,12.844078 56.4543196,14.4435484 C56.4543196,16.0053842 56.1816202,17.4307731 55.6362131,18.7197581 C55.090806,20.008743 54.330118,21.118947 53.3541264,22.0504032 C52.3781348,22.9818595 51.2203582,23.7063146 49.8807618,24.2237903 C48.5411654,24.741266 47.0772,25 45.4888214,25 C43.91958,25 42.4699671,24.741266 41.1399393,24.2237903 C39.8099115,23.7063146 38.6617032,22.9818595 37.6952802,22.0504032 C36.7288571,21.118947 35.9729533,20.008743 35.4275462,18.7197581 C34.8821391,17.4307731 34.6094397,16.0053842 34.6094397,14.4435484 Z M38.5420922,14.4435484 C38.5420922,15.5161344 38.7095392,16.4993235 39.0444383,17.3931452 C39.3793374,18.2869668 39.8577575,19.0631687 40.4797129,19.7217742 C41.1016684,20.3803796 41.8384353,20.8931433 42.6900359,21.2600806 C43.5416364,21.627018 44.484124,21.8104839 45.5175269,21.8104839 C46.5509298,21.8104839 47.4982016,21.627018 48.3593707,21.2600806 C49.2205398,20.8931433 49.9620909,20.3803796 50.5840464,19.7217742 C51.2060018,19.0631687 51.6844219,18.2869668 52.019321,17.3931452 C52.3542201,16.4993235 52.5216671,15.5161344 52.5216671,14.4435484 C52.5216671,13.408597 52.3542201,12.4489292 52.019321,11.5645161 C51.6844219,10.6801031 51.210786,9.90860544 50.5983991,9.25 C49.9860122,8.59139456 49.2492453,8.07392661 48.3880762,7.69758065 C47.5269071,7.32123468 46.5700669,7.13306452 45.5175269,7.13306452 C44.4649869,7.13306452 43.5129309,7.32123468 42.6613304,7.69758065 C41.8097298,8.07392661 41.0777471,8.59139456 40.4653602,9.25 C39.8529733,9.90860544 39.3793374,10.6801031 39.0444383,11.5645161 C38.7095392,12.4489292 38.5420922,13.408597 38.5420922,14.4435484 Z M76.1462876,17.1532258 C76.1462876,18.3575329 75.9357828,19.4442156 75.5147668,20.4133065 C75.0937508,21.3823973 74.5196467,22.2056418 73.7924372,22.8830645 C73.0652278,23.5604873 72.2040716,24.0826595 71.2089429,24.4495968 C70.2138141,24.8165341 69.1325847,25 67.9652222,25 C66.7978597,25 65.7166302,24.8165341 64.7215015,24.4495968 C63.7263728,24.0826595 62.8604324,23.5604873 62.1236544,22.8830645 C61.3868764,22.2056418 60.8127723,21.3823973 60.4013249,20.4133065 C59.9898774,19.4442156 59.7841568,18.3575329 59.7841568,17.1532258 L59.7841568,4.50806452 L63.4010489,4.50806452 L63.4010489,17.0120968 C63.4010489,17.595433 63.4775961,18.1740563 63.6306928,18.7479839 C63.7837895,19.3219115 64.0373522,19.8346752 64.3913884,20.2862903 C64.7454245,20.7379055 65.2142762,21.1048373 65.7979575,21.3870968 C66.3816388,21.6693562 67.1040531,21.8104839 67.9652222,21.8104839 C68.8263913,21.8104839 69.5488056,21.6693562 70.1324869,21.3870968 C70.7161682,21.1048373 71.1850199,20.7379055 71.539056,20.2862903 C71.8930922,19.8346752 72.1466549,19.3219115 72.2997516,18.7479839 C72.4528483,18.1740563 72.5293955,17.595433 72.5293955,17.0120968 L72.5293955,4.50806452 L76.1462876,4.50806452 L76.1462876,17.1532258 Z M80.4521115,4.50806452 L87.6571902,4.50806452 C88.9776494,4.50806452 90.3076573,4.67741766 91.6472537,5.01612903 C92.98685,5.3548404 94.1924687,5.91464663 95.2641457,6.69556452 C96.3358228,7.4764824 97.2065474,8.50200978 97.8763456,9.77217742 C98.5461437,11.0423451 98.8810378,12.6182702 98.8810378,14.5 C98.8810378,16.2500087 98.5461437,17.75537 97.8763456,19.016129 C97.2065474,20.276888 96.3358228,21.3118239 95.2641457,22.1209677 C94.1924687,22.9301116 92.98685,23.5275518 91.6472537,23.9133065 C90.3076573,24.2990611 88.9776494,24.4919355 87.6571902,24.4919355 L80.4521115,24.4919355 L80.4521115,4.50806452 Z M87.0830803,21.3870968 C88.0207978,21.3870968 88.9585012,21.2788989 89.8962186,21.0625 C90.8339361,20.8461011 91.6807396,20.4791693 92.4366547,19.9616935 C93.1925698,19.4442178 93.8097317,18.743284 94.288159,17.858871 C94.7665863,16.9744579 95.0057963,15.8548455 95.0057963,14.5 C95.0057963,13.0698853 94.7665863,11.9032303 94.288159,11 C93.8097317,10.0967697 93.1925698,9.39113157 92.4366547,8.88306452 C91.6807396,8.37499746 90.8339361,8.02688266 89.8962186,7.83870968 C88.9585012,7.65053669 88.0207978,7.55645161 87.0830803,7.55645161 L84.0690036,7.55645161 L84.0690036,21.3870968 L87.0830803,21.3870968 Z M102.383108,4.50806452 L106,4.50806452 L106,24.4919355 L102.383108,24.4919355 L102.383108,4.50806452 Z" id="KLOUDI" fill="url(#linearGradient-1)"></path>
        </g>
    </g>
</svg>