<?xml version="1.0" encoding="UTF-8"?>
<svg width="16px" height="16px" viewBox="0 0 16 16" version="1.1" xmlns="http://www.w3.org/2000/svg" xmlns:xlink="http://www.w3.org/1999/xlink">
    <!-- Generator: Sketch 53.2 (72643) - https://sketchapp.com -->
    <title>Linkedin</title>
    <desc>Created with Sketch.</desc>
    <g id="Landing-Page-v2" stroke="none" stroke-width="1" fill="none" fill-rule="evenodd">
        <g transform="translate(-1340.000000, -2392.000000)" id="Body---3">
            <g transform="translate(0.000000, 2000.000000)">
                <g id="Bottom" transform="translate(268.000000, 384.000000)">
                    <g id="Social-Icons" transform="translate(968.000000, 0.000000)">
                        <g id="Linkedin" transform="translate(96.000000, 0.000000)">
                            <rect id="BG" x="0" y="0" width="32" height="32"></rect>
                            <g id="icons8-linkedin" transform="translate(8.000000, 8.000000)" fill-rule="nonzero">
                                <path d="M16,13.7777778 C16,15.0053333 15.0053333,16 13.7777778,16 L2.22222222,16 C0.995111111,16 0,15.0053333 0,13.7777778 L0,2.22222222 C0,0.994666667 0.995111111,0 2.22222222,0 L13.7777778,0 C15.0053333,0 16,0.994666667 16,2.22222222 L16,13.7777778 Z" id="Path" fill="#0288D1"></path>
                                <path d="M2.66666667,5.77777778 L4.88888889,5.77777778 L4.88888889,13.3333333 L2.66666667,13.3333333 L2.66666667,5.77777778 Z M3.77111111,4.88888889 L3.75866667,4.88888889 C3.09555556,4.88888889 2.66666667,4.39466667 2.66666667,3.77733333 C2.66666667,3.14666667 3.10888889,2.66666667 3.784,2.66666667 C4.46,2.66666667 4.87644444,3.14666667 4.88888889,3.77733333 C4.88888889,4.39422222 4.46,4.88888889 3.77111111,4.88888889 Z M13.3333333,13.3333333 L11.1111111,13.3333333 L11.1111111,9.28933333 C11.1111111,8.31244444 10.5666667,7.64577778 9.69244444,7.64577778 C9.02533333,7.64577778 8.66444444,8.09555556 8.48933333,8.53022222 C8.42533333,8.68577778 8.44444444,9.116 8.44444444,9.33333333 L8.44444444,13.3333333 L6.22222222,13.3333333 L6.22222222,5.77777778 L8.44444444,5.77777778 L8.44444444,6.94044444 C8.76488889,6.44444444 9.26666667,5.77777778 10.5502222,5.77777778 C12.1404444,5.77777778 13.3328889,6.77777778 13.3328889,9.01066667 L13.3333333,13.3333333 L13.3333333,13.3333333 Z" id="Shape" fill="#FFFFFF"></path>
                            </g>
                        </g>
                    </g>
                </g>
            </g>
        </g>
    </g>
</svg>