<?xml version="1.0" encoding="UTF-8"?>
<svg width="20px" height="20px" viewBox="0 0 20 20" version="1.1" xmlns="http://www.w3.org/2000/svg" xmlns:xlink="http://www.w3.org/1999/xlink">
    <!-- Generator: Sketch 52.6 (67491) - http://www.bohemiancoding.com/sketch -->
    <title>Mail</title>
    <desc>Created with Sketch.</desc>
    <g id="SignUp-and-SignIN" stroke="none" stroke-width="1" fill="none" fill-rule="evenodd">
        <g id="Sign-Up---2" transform="translate(-906.000000, -360.000000)" fill="#FFFFFF">
            <g id="SignUP">
                <g id="Right" transform="translate(480.000000, 0.000000)">
                    <g id="Content" transform="translate(410.000000, 150.000000)">
                        <g id="SignIN-Options" transform="translate(0.000000, 196.000000)">
                            <g id="Name">
                                <g id="Name.InputText" transform="translate(16.000000, 14.000000)">
                                    <path d="M0,0 L20,0 L20,20 L0,20 L0,0 Z M8.23759396,10.8114513 C5.65108372,11.3727148 3.75,13.1386105 3.75,15.2520161 L3.75,16.0987903 C3.75,16.1895161 3.8125,16.25 3.90625,16.25 L16.09375,16.25 C16.1875,16.25 16.25,16.1895161 16.25,16.0987903 L16.25,15.1310484 C16.25,13.065004 14.3868979,11.3472668 11.7759789,10.8041821 C12.9515955,10.171443 13.75,8.92965142 13.75,7.5 C13.75,5.42763158 12.0723684,3.75 10,3.75 C7.92763158,3.75 6.25,5.42763158 6.25,7.5 C6.25,8.9351466 7.05455399,10.1809864 8.23759396,10.8114513 Z" id="Combined-Shape"></path>
                                </g>
                            </g>
                        </g>
                    </g>
                </g>
            </g>
        </g>
    </g>
</svg>
