<svg xmlns="http://www.w3.org/2000/svg" xmlns:xlink="http://www.w3.org/1999/xlink" width="599" height="279" viewBox="0 0 599 279">
    <defs>
        <path id="a" d="M3.547.08v3.156H.392V.079h3.155z"/>
    </defs>
    <g fill="none" fill-rule="evenodd" opacity=".25">
        <path stroke="#DCE0E6" stroke-linecap="round" stroke-width="1.341" d="M335.176 50.688l-10.164 10.156"/>
        <path stroke="#A7A9AC" stroke-linecap="round" stroke-width="1.341" d="M289.45 60.868l-10.273-10.317"/>
        <path stroke="#DCE0E6" stroke-linecap="round" stroke-width="1.341" d="M593.819 32.838l-23.396-.01M593.798 2.274l-23.431-.008M564.289 4.801l-10.178 10.18M564.247 30.26l-10.222-10.212M564.248 35.346l-10.149 10.167M547.97 48.083h-23.397M547.96 17.559l-23.413-.011M518.43 14.991L508.27 4.837M518.46 76.084l-10.177-10.157M518.46 50.63L508.3 60.778M518.438 81.166l-10.156 10.18M564.267 127.024l-10.202 10.14M518.434 106.614l-10.158-10.16M547.97 109.171l-23.375-.021M547.948 139.72h-23.397M564.267 121.933l-10.18-10.205M502.17 155.015h-23.406M518.428 142.23l-10.19 10.26M456.322 170.253l-23.385.02M472.683 157.575l-10.238 10.18"/>
        <path stroke="#A7A9AC" stroke-linecap="round" stroke-width="1.341" d="M289.373 65.938l-10.187 10.155"/>
        <path stroke="#DCE0E6" stroke-linecap="round" stroke-width="1.341" d="M426.815 167.734l-10.198-10.16"/>
        <path stroke="#A7A9AC" stroke-linecap="round" stroke-width="1.341" d="M318.889 63.366l-23.393-.009"/>
        <path stroke="#DCE0E6" stroke-linecap="round" stroke-width="1.341" d="M335.263 106.682l-10.248-10.237M335.197 111.736l-10.21 10.2M381.041 30.296l-10.2-10.204M381.038 35.363L370.9 45.519M364.702 48.096l-23.391.002"/>
        <path stroke="#A7A9AC" stroke-linecap="round" stroke-width="1.341" d="M289.388 127.004l-10.153 10.157M289.388 152.41l-10.147-10.08M318.888 155.044l-23.346.009M318.895 124.461l-23.34.02"/>
        <path stroke="#DCE0E6" stroke-linecap="round" stroke-width="1.341" d="M364.74 109.203l-23.37-.012M381.05 157.575l-10.198 10.2M335.237 167.796l-10.182-10.237M335.21 198.325l-10.151-10.24M335.21 228.853l-10.207-10.184M381.008 182.993l-10.156-10.159M410.536 155.035l-23.385-.02M364.698 170.252l-23.388-.026M335.237 172.786l-10.235 10.236M335.263 203.314l-10.26 10.237"/>
        <path stroke="#A7A9AC" stroke-linecap="round" stroke-width="1.341" d="M318.93 216.084l-23.415.026"/>
        <path stroke="#DCE0E6" stroke-linecap="round" stroke-width="1.341" d="M518.551 264.326L508.21 274.73M502.128 246.63l-23.384.041M456.363 231.371l-23.364-.02M518.47 259.39l-10.199-10.2M410.495 216.071l-23.364.04M381.029 213.552l-10.197-10.18M381.029 188.093l-10.136 10.158M364.698 200.78l-23.31.078M426.835 228.831L416.7 218.673M472.662 244.11l-10.217-10.22M502.088 277.21h-23.344M502.174 63.344H478.78"/>
        <path stroke="#A7A9AC" stroke-linecap="round" stroke-width="1.341" d="M318.909 93.897h-23.405M289.422 91.38l-10.248-10.238M273.128 48.097l-23.44.014M227.272 32.815h-23.429M243.54 45.516L233.4 35.349M152.023 50.614l-10.2 10.18M44.167 32.836l-23.53-.03M151.97 106.62l-10.165-10.213M135.745 124.478l-23.466.008M135.73 93.918h-23.428M151.997 81.145l-10.192 10.21M152.02 111.703l-10.238 10.202M106.178 121.937L95.92 111.681M106.157 96.462l-10.212 10.192M60.353 111.753L50.16 121.936M14.55 121.883L4.367 111.75M44.033 124.472l-23.384.006M89.812 109.18l-23.35.015M14.588 152.526L4.32 142.303M89.874 170.263l-23.365-.009M44.006 154.986l-23.334-.006M14.588 126.98l-10.23 10.231M14.58 96.416L4.387 106.62M14.601 91.369L4.387 81.189M14.58 65.868L4.36 76.086M60.356 167.739l-10.224-10.234M135.69 185.564l-23.416-.035M106.131 183.001l-10.186-10.197M152.05 203.281l-10.275 10.284M106.196 188.034l-10.222 10.254M151.994 198.337l-10.189-10.258M106.138 213.55l-10.18-10.212M181.488 231.398l-23.407-.012M197.846 244.129l-10.276-10.2M197.766 249.153l-10.223 10.32M181.483 261.886l-23.42-.008M227.372 246.657h-23.428M151.987 228.895l-10.23-10.267M14.58 60.858L4.372 50.627M14.55 35.37L4.413 45.518M60.417 45.565L50.213 35.38M89.845 200.821l-23.342.059M181.475 48.076h-23.429M227.36 2.253h-23.429M181.434 17.532h-23.428M197.797 30.256l-10.141-10.167M151.95 15.03L141.808 4.864M152.025 76.107l-10.14-10.168M197.763 35.361l-10.2 10.182M197.808 4.776l-10.2 10.181"/>
        <path fill="#DCE0E6" d="M565.239 32.816a1.578 1.578 0 1 0 3.156 0 1.578 1.578 0 0 0-3.156 0M595.837 32.818a1.578 1.578 0 1 0 3.156 0 1.578 1.578 0 0 0-3.156 0"/>
        <path fill="#F26522" d="M565.012 2.116a1.578 1.578 0 1 0 3.156 0 1.578 1.578 0 0 0-3.156 0"/>
        <path fill="#DCE0E6" d="M549.978 17.524a1.578 1.578 0 1 0 3.156 0 1.578 1.578 0 0 0-3.156 0M549.996 48.077a1.578 1.578 0 1 0 3.156 0 1.578 1.578 0 0 0-3.156 0M519.408 48.069a1.578 1.578 0 1 0 3.156 0 1.578 1.578 0 0 0-3.156 0"/>
        <path fill="#F26522" d="M504.201 63.344a1.578 1.578 0 1 0 3.157 0 1.578 1.578 0 0 0-3.157 0"/>
        <path fill="#DCE0E6" d="M473.595 63.38a1.578 1.578 0 1 0 3.156 0 1.578 1.578 0 0 0-3.156 0M519.432 17.536a1.578 1.578 0 1 0 3.156 0 1.578 1.578 0 0 0-3.156 0M504.016 2.116a1.578 1.578 0 1 0 3.156 0 1.578 1.578 0 0 0-3.156 0M519.42 109.151a1.578 1.578 0 1 0 3.156 0 1.578 1.578 0 0 0-3.156 0M549.956 109.168a1.578 1.578 0 1 0 3.156 0 1.578 1.578 0 0 0-3.156 0M504.195 93.916a1.578 1.578 0 1 0 3.156 0 1.578 1.578 0 0 0-3.156 0M565.215 124.448a1.578 1.578 0 1 0 3.156 0 1.578 1.578 0 0 0-3.156 0M549.956 139.711a1.578 1.578 0 1 0 3.156 0 1.578 1.578 0 0 0-3.156 0M519.42 139.745a1.578 1.578 0 1 0 3.156 0 1.578 1.578 0 0 0-3.156 0M473.608 155.008a1.578 1.578 0 1 0 3.156 0 1.578 1.578 0 0 0-3.156 0"/>
        <path fill="#F26522" d="M504.16 155.008a1.578 1.578 0 1 0 3.156 0 1.578 1.578 0 0 0-3.156 0"/>
        <path fill="#DCE0E6" d="M458.332 170.271a1.578 1.578 0 1 0 3.156 0 1.578 1.578 0 0 0-3.156 0"/>
        <path fill="#A7A9AC" d="M290.338 93.97a1.578 1.578 0 1 0 3.157 0 1.578 1.578 0 0 0-3.157 0M275.073 78.639a1.578 1.578 0 1 0 3.157 0 1.578 1.578 0 0 0-3.157 0"/>
        <path fill="#DCE0E6" d="M320.93 154.983a1.578 1.578 0 1 0 3.156 0 1.578 1.578 0 0 0-3.157 0M336.188 109.187a1.578 1.578 0 1 0 3.156 0 1.578 1.578 0 0 0-3.156 0M320.911 124.487a1.578 1.578 0 1 0 3.156 0 1.578 1.578 0 0 0-3.156 0M320.926 93.97a1.578 1.578 0 1 0 3.156 0 1.578 1.578 0 0 0-3.156 0"/>
        <path fill="#F26522" d="M290.353 63.394a1.578 1.578 0 1 0 3.156 0 1.578 1.578 0 0 0-3.156 0M382.028 32.828a1.578 1.578 0 1 0 3.156 0 1.578 1.578 0 0 0-3.156 0"/>
        <path fill="#DCE0E6" d="M366.749 17.545a1.578 1.578 0 1 0 3.156 0 1.578 1.578 0 0 0-3.156 0M366.711 48.035a1.578 1.578 0 1 0 3.156 0 1.578 1.578 0 0 0-3.156 0M336.153 48.148a1.578 1.578 0 1 0 3.156 0 1.578 1.578 0 0 0-3.156 0"/>
        <path fill="#A7A9AC" d="M290.384 154.988a1.578 1.578 0 1 0 3.156 0 1.578 1.578 0 0 0-3.156 0"/>
        <path fill="#F26522" d="M275.127 139.727a1.578 1.578 0 1 0 3.156 0 1.578 1.578 0 0 0-3.156 0"/>
        <path fill="#A7A9AC" d="M290.384 124.478a1.578 1.578 0 1 0 3.156 0 1.578 1.578 0 0 0-3.156 0"/>
        <path fill="#F26522" d="M366.753 109.212a1.578 1.578 0 1 0 3.156 0 1.578 1.578 0 0 0-3.156 0"/>
        <path fill="#DCE0E6" d="M412.537 155.008a1.578 1.578 0 1 0 3.156 0 1.578 1.578 0 0 0-3.156 0M382 155.008a1.578 1.578 0 1 0 3.157 0 1.578 1.578 0 0 0-3.156 0"/>
        <path fill="#F26522" d="M366.741 170.288a1.578 1.578 0 1 0 3.157 0 1.578 1.578 0 0 0-3.157 0"/>
        <path fill="#DCE0E6" d="M336.189 170.305a1.578 1.578 0 1 0 3.156 0 1.578 1.578 0 0 0-3.156 0M320.913 185.535a1.578 1.578 0 1 0 3.156 0 1.578 1.578 0 0 0-3.156 0M336.206 200.798a1.578 1.578 0 1 0 3.156 0 1.578 1.578 0 0 0-3.156 0M320.927 216.098a1.578 1.578 0 1 0 3.156 0 1.578 1.578 0 0 0-3.156 0M336.17 231.34a1.578 1.578 0 1 0 3.157.001 1.578 1.578 0 0 0-3.156 0M519.426 78.652a1.578 1.578 0 1 0 3.156 0 1.578 1.578 0 0 0-3.156 0M473.597 246.66a1.578 1.578 0 1 0 3.156 0 1.578 1.578 0 0 0-3.156 0"/>
        <path fill="#F26522" d="M504.158 246.644a1.578 1.578 0 1 0 3.156 0 1.578 1.578 0 0 0-3.156 0"/>
        <path fill="#DCE0E6" d="M519.431 261.905a1.578 1.578 0 1 0 3.157 0 1.578 1.578 0 0 0-3.157 0M458.355 231.368a1.578 1.578 0 1 0 3.156 0 1.578 1.578 0 0 0-3.156 0M427.825 231.383a1.578 1.578 0 1 0 3.156 0 1.578 1.578 0 0 0-3.156 0"/>
        <path fill="#F26522" d="M412.536 216.106a1.578 1.578 0 1 0 3.156 0 1.578 1.578 0 0 0-3.156 0"/>
        <path fill="#DCE0E6" d="M381.984 185.552a1.578 1.578 0 1 0 3.156 0 1.578 1.578 0 0 0-3.156 0M366.741 200.831a1.578 1.578 0 1 0 3.157 0 1.578 1.578 0 0 0-3.157 0M381.97 216.112a1.578 1.578 0 1 0 3.156 0 1.578 1.578 0 0 0-3.156 0M427.813 170.288a1.578 1.578 0 1 0 3.156 0 1.578 1.578 0 0 0-3.156 0M473.597 277.167a1.578 1.578 0 1 0 3.156 0 1.578 1.578 0 0 0-3.156 0M504.127 277.197a1.578 1.578 0 1 0 3.157 0 1.578 1.578 0 0 0-3.157 0"/>
        <path fill="#A7A9AC" d="M244.526 48.049a1.578 1.578 0 1 0 3.156 0 1.578 1.578 0 0 0-3.156 0M229.284 32.803a1.578 1.578 0 1 0 3.156 0 1.578 1.578 0 0 0-3.156 0"/>
        <path fill="#F26522" d="M183.49 17.557a1.578 1.578 0 1 0 3.157 0 1.578 1.578 0 0 0-3.156 0"/>
        <path fill="#A7A9AC" d="M198.732 32.826a1.578 1.578 0 1 0 3.156 0 1.578 1.578 0 0 0-3.156 0M275.11 48.11a1.578 1.578 0 1 0 3.157.001 1.578 1.578 0 0 0-3.156 0"/>
        <path fill="#F26522" d="M152.96 78.633a1.578 1.578 0 1 0 3.156 0 1.578 1.578 0 0 0-3.157 0"/>
        <path fill="#A7A9AC" d="M137.705 63.362a1.578 1.578 0 1 0 3.156 0 1.578 1.578 0 0 0-3.156 0M152.972 48.091a1.578 1.578 0 1 0 3.157 0 1.578 1.578 0 0 0-3.157 0"/>
        <path fill="#F26522" d="M107.132 124.471a1.578 1.578 0 1 0 3.157 0 1.578 1.578 0 0 0-3.157 0"/>
        <path fill="#A7A9AC" d="M183.481 48.117a1.578 1.578 0 1 0 3.156 0 1.578 1.578 0 0 0-3.156 0M107.145 93.93a1.578 1.578 0 1 0 3.157 0 1.578 1.578 0 0 0-3.157 0M137.68 93.904a1.578 1.578 0 1 0 3.156 0 1.578 1.578 0 0 0-3.156 0M137.69 124.453a1.578 1.578 0 1 0 3.156 0 1.578 1.578 0 0 0-3.157 0M152.96 109.187a1.578 1.578 0 1 0 3.156 0 1.578 1.578 0 0 0-3.157 0M91.852 109.174a1.578 1.578 0 1 0 3.156 0 1.578 1.578 0 0 0-3.156 0M.254 109.182a1.578 1.578 0 1 0 3.156 0 1.578 1.578 0 0 0-3.156 0M46.076 124.443a1.578 1.578 0 1 0 3.156 0 1.578 1.578 0 0 0-3.156 0M61.317 109.189a1.578 1.578 0 1 0 3.155 0 1.578 1.578 0 0 0-3.155 0M.295 139.754a1.578 1.578 0 1 0 3.157 0 1.578 1.578 0 0 0-3.157 0"/>
        <path fill="#F26522" d="M15.511 124.46a1.578 1.578 0 1 0 3.156 0 1.578 1.578 0 0 0-3.156 0"/>
        <path fill="#A7A9AC" d="M46.023 154.99a1.578 1.578 0 1 0 3.157 0 1.578 1.578 0 0 0-3.157 0M15.527 155.022a1.578 1.578 0 1 0 3.156 0 1.578 1.578 0 0 0-3.156 0M15.528 93.905a1.578 1.578 0 1 0 3.156 0 1.578 1.578 0 0 0-3.156 0"/>
        <g transform="matrix(-1 0 0 1 3.784 76.97)">
            <mask id="b" fill="#fff">
                <use xlink:href="#a"/>
            </mask>
            <path fill="#F26522" d="M3.547 1.657a1.578 1.578 0 1 1-3.156 0 1.578 1.578 0 0 1 3.156 0" mask="url(#b)"/>
        </g>
        <path fill="#F26522" d="M61.359 170.222a1.578 1.578 0 1 0 3.156 0 1.578 1.578 0 0 0-3.156 0"/>
        <path fill="#A7A9AC" d="M137.727 185.552a1.578 1.578 0 1 0 3.156 0 1.578 1.578 0 0 0-3.156 0M152.979 200.807a1.578 1.578 0 1 0 3.156 0 1.578 1.578 0 0 0-3.156 0M91.886 170.292a1.578 1.578 0 1 0 3.156 0 1.578 1.578 0 0 0-3.156 0M107.15 185.493a1.578 1.578 0 1 0 3.157 0 1.578 1.578 0 0 0-3.156 0M91.886 200.796a1.578 1.578 0 1 0 3.156 0 1.578 1.578 0 0 0-3.156 0M152.95 231.36a1.578 1.578 0 1 0 3.156 0 1.578 1.578 0 0 0-3.156 0M198.776 246.644a1.578 1.578 0 1 0 3.156 0 1.578 1.578 0 0 0-3.156 0M183.467 261.947a1.578 1.578 0 1 0 3.156 0 1.578 1.578 0 0 0-3.156 0"/>
        <path fill="#F26522" d="M183.481 231.375a1.578 1.578 0 1 0 3.156 0 1.578 1.578 0 0 0-3.156 0"/>
        <path fill="#A7A9AC" d="M152.932 261.947a1.578 1.578 0 1 0 3.157 0 1.578 1.578 0 0 0-3.157 0M229.322 246.644a1.578 1.578 0 1 0 3.156 0 1.578 1.578 0 0 0-3.156 0M137.699 216.09a1.578 1.578 0 1 0 3.156 0 1.578 1.578 0 0 0-3.156 0M15.545 63.366a1.578 1.578 0 1 0 3.156 0 1.578 1.578 0 0 0-3.156 0M.271 48.089a1.578 1.578 0 1 0 3.156 0 1.578 1.578 0 0 0-3.156 0M15.528 32.829a1.578 1.578 0 1 0 3.156 0 1.578 1.578 0 0 0-3.156 0M46.093 32.829a1.578 1.578 0 1 0 3.156 0 1.578 1.578 0 0 0-3.156 0"/>
        <path fill="#F26522" d="M61.324 48.124a1.578 1.578 0 1 0 3.156 0 1.578 1.578 0 0 0-3.156 0"/>
        <path fill="#A7A9AC" d="M61.356 200.83a1.578 1.578 0 1 0 3.156 0 1.578 1.578 0 0 0-3.156 0M198.777 2.267a1.578 1.578 0 1 0 3.156 0 1.578 1.578 0 0 0-3.156 0M152.939 17.535a1.578 1.578 0 1 0 3.156 0 1.578 1.578 0 0 0-3.156 0"/>
        <path fill="#F26522" d="M290.347 216.084a1.578 1.578 0 1 0 3.157 0 1.578 1.578 0 0 0-3.157 0"/>
        <path fill="#DCE0E6" d="M320.911 63.394a1.578 1.578 0 1 0 3.156 0 1.578 1.578 0 0 0-3.156 0"/>
        <path fill="#F26522" d="M107.15 216.098a1.578 1.578 0 1 0 3.157 0 1.578 1.578 0 0 0-3.156 0"/>
        <path fill="#A7A9AC" d="M137.643 2.339a1.578 1.578 0 1 0 3.156 0 1.578 1.578 0 0 0-3.156 0"/>
        <path fill="#DCE0E6" d="M595.845 2.256a1.578 1.578 0 1 0 3.156 0 1.578 1.578 0 0 0-3.156 0"/>
        <path fill="#A7A9AC" d="M229.307 2.288a1.578 1.578 0 1 0 3.156 0 1.578 1.578 0 0 0-3.156 0"/>
    </g>
</svg>
