<svg xmlns="http://www.w3.org/2000/svg" xmlns:xlink="http://www.w3.org/1999/xlink" width="599" height="279" viewBox="0 0 599 279">
    <defs>
        <path id="a" d="M3.547.08v3.156H.392V.079h3.155z"/>
    </defs>
    <g fill="none" fill-rule="evenodd" opacity=".25">
        <path stroke="#DCE0E6" stroke-linecap="round" stroke-width="1.341" d="M263.824 50.688l10.164 10.156"/>
        <path stroke="#A7A9AC" stroke-linecap="round" stroke-width="1.341" d="M309.55 60.868l10.273-10.317"/>
        <path stroke="#DCE0E6" stroke-linecap="round" stroke-width="1.341" d="M5.181 32.838l23.396-.01M5.202 2.274l23.431-.008M34.711 4.801l10.178 10.18M34.753 30.26l10.222-10.212M34.752 35.346l10.149 10.167M51.03 48.083h23.397M51.04 17.559l23.413-.011M80.57 14.991L90.73 4.837M80.54 76.084l10.177-10.157M80.54 50.63L90.7 60.778M80.562 81.166l10.156 10.18M34.733 127.024l10.202 10.14M80.566 106.614l10.158-10.16M51.03 109.171l23.375-.021M51.052 139.72h23.397M34.733 121.933l10.18-10.205M96.83 155.015h23.406M80.572 142.23l10.19 10.26M142.678 170.253l23.385.02M126.317 157.575l10.238 10.18"/>
        <path stroke="#A7A9AC" stroke-linecap="round" stroke-width="1.341" d="M309.627 65.938l10.187 10.155"/>
        <path stroke="#DCE0E6" stroke-linecap="round" stroke-width="1.341" d="M172.185 167.734l10.198-10.16"/>
        <path stroke="#A7A9AC" stroke-linecap="round" stroke-width="1.341" d="M280.111 63.366l23.393-.009"/>
        <path stroke="#DCE0E6" stroke-linecap="round" stroke-width="1.341" d="M263.737 106.682l10.248-10.237M263.803 111.736l10.21 10.2M217.959 30.296l10.2-10.204M217.962 35.363L228.1 45.519M234.298 48.096l23.391.002"/>
        <path stroke="#A7A9AC" stroke-linecap="round" stroke-width="1.341" d="M309.612 127.004l10.153 10.157M309.612 152.41l10.147-10.08M280.112 155.044l23.346.009M280.105 124.461l23.34.02"/>
        <path stroke="#DCE0E6" stroke-linecap="round" stroke-width="1.341" d="M234.26 109.203l23.37-.012M217.95 157.575l10.198 10.2M263.763 167.796l10.182-10.237M263.79 198.325l10.151-10.24M263.79 228.853l10.207-10.184M217.992 182.993l10.156-10.159M188.464 155.035l23.385-.02M234.302 170.252l23.388-.026M263.763 172.786l10.235 10.236M263.737 203.314l10.26 10.237"/>
        <path stroke="#A7A9AC" stroke-linecap="round" stroke-width="1.341" d="M280.07 216.084l23.415.026"/>
        <path stroke="#DCE0E6" stroke-linecap="round" stroke-width="1.341" d="M80.449 264.326L90.79 274.73M96.872 246.63l23.384.041M142.637 231.371l23.364-.02M80.53 259.39l10.199-10.2M188.505 216.071l23.364.04M217.971 213.552l10.197-10.18M217.971 188.093l10.136 10.158M234.302 200.78l23.31.078M172.165 228.831l10.136-10.158M126.338 244.11l10.217-10.22M96.912 277.21h23.344M96.826 63.344h23.394"/>
        <path stroke="#A7A9AC" stroke-linecap="round" stroke-width="1.341" d="M280.091 93.897h23.405M309.578 91.38l10.248-10.238M325.872 48.097l23.44.014M371.728 32.815h23.429M355.46 45.516l10.14-10.167M446.977 50.614l10.2 10.18M554.833 32.836l23.53-.03M447.03 106.62l10.165-10.213M463.255 124.478l23.466.008M463.27 93.918h23.428M447.003 81.145l10.192 10.21M446.98 111.703l10.238 10.202M492.822 121.937l10.257-10.256M492.843 96.462l10.212 10.192M538.647 111.753l10.192 10.183M584.45 121.883l10.184-10.132M554.967 124.472l23.384.006M509.188 109.18l23.35.015M584.412 152.526l10.268-10.223M509.126 170.263l23.365-.009M554.994 154.986l23.334-.006M584.412 126.98l10.23 10.231M584.42 96.416l10.193 10.203M584.399 91.369l10.214-10.18M584.42 65.868l10.22 10.218M538.644 167.739l10.224-10.234M463.31 185.564l23.416-.035M492.869 183.001l10.186-10.197M446.95 203.281l10.275 10.284M492.804 188.034l10.222 10.254M447.006 198.337l10.189-10.258M492.862 213.55l10.18-10.212M417.512 231.398l23.407-.012M401.154 244.129l10.276-10.2M401.234 249.153l10.223 10.32M417.517 261.886l23.42-.008M371.628 246.657h23.428M447.013 228.895l10.23-10.267M584.42 60.858l10.208-10.231M584.45 35.37l10.138 10.148M538.583 45.565l10.204-10.185M509.155 200.821l23.342.059M417.525 48.076h23.429M371.64 2.253h23.429M417.566 17.532h23.428M401.203 30.256l10.141-10.167M447.05 15.03l10.141-10.167M446.975 76.107l10.14-10.168M401.237 35.361l10.2 10.182M401.192 4.776l10.2 10.181"/>
        <path fill="#DCE0E6" d="M33.761 32.816a1.578 1.578 0 1 1-3.156 0 1.578 1.578 0 0 1 3.156 0M3.163 32.818a1.578 1.578 0 1 1-3.156 0 1.578 1.578 0 0 1 3.156 0"/>
        <path fill="#F26522" d="M33.988 2.116a1.578 1.578 0 1 1-3.156 0 1.578 1.578 0 0 1 3.156 0"/>
        <path fill="#DCE0E6" d="M49.022 17.524a1.578 1.578 0 1 1-3.156 0 1.578 1.578 0 0 1 3.156 0M49.004 48.077a1.578 1.578 0 1 1-3.156 0 1.578 1.578 0 0 1 3.156 0M79.592 48.069a1.578 1.578 0 1 1-3.156 0 1.578 1.578 0 0 1 3.156 0"/>
        <path fill="#F26522" d="M94.799 63.344a1.578 1.578 0 1 1-3.157 0 1.578 1.578 0 0 1 3.157 0"/>
        <path fill="#DCE0E6" d="M125.405 63.38a1.578 1.578 0 1 1-3.156 0 1.578 1.578 0 0 1 3.156 0M79.568 17.536a1.578 1.578 0 1 1-3.156 0 1.578 1.578 0 0 1 3.156 0M94.984 2.116a1.578 1.578 0 1 1-3.156 0 1.578 1.578 0 0 1 3.156 0M79.58 109.151a1.578 1.578 0 1 1-3.156 0 1.578 1.578 0 0 1 3.156 0M49.044 109.168a1.578 1.578 0 1 1-3.156 0 1.578 1.578 0 0 1 3.156 0M94.805 93.916a1.578 1.578 0 1 1-3.156 0 1.578 1.578 0 0 1 3.156 0M33.785 124.448a1.578 1.578 0 1 1-3.156 0 1.578 1.578 0 0 1 3.156 0M49.044 139.711a1.578 1.578 0 1 1-3.156 0 1.578 1.578 0 0 1 3.156 0M79.58 139.745a1.578 1.578 0 1 1-3.156 0 1.578 1.578 0 0 1 3.156 0M125.392 155.008a1.578 1.578 0 1 1-3.156 0 1.578 1.578 0 0 1 3.156 0"/>
        <path fill="#F26522" d="M94.84 155.008a1.578 1.578 0 1 1-3.156 0 1.578 1.578 0 0 1 3.156 0"/>
        <path fill="#DCE0E6" d="M140.668 170.271a1.578 1.578 0 1 1-3.156 0 1.578 1.578 0 0 1 3.156 0"/>
        <path fill="#A7A9AC" d="M308.662 93.97a1.578 1.578 0 1 1-3.157 0 1.578 1.578 0 0 1 3.157 0M323.927 78.639a1.578 1.578 0 1 1-3.157 0 1.578 1.578 0 0 1 3.157 0"/>
        <path fill="#DCE0E6" d="M278.07 154.983a1.578 1.578 0 1 1-3.156 0 1.578 1.578 0 0 1 3.157 0M262.812 109.187a1.578 1.578 0 1 1-3.156 0 1.578 1.578 0 0 1 3.156 0M278.089 124.487a1.578 1.578 0 1 1-3.156 0 1.578 1.578 0 0 1 3.156 0M278.074 93.97a1.578 1.578 0 1 1-3.156 0 1.578 1.578 0 0 1 3.156 0"/>
        <path fill="#F26522" d="M308.647 63.394a1.578 1.578 0 1 1-3.156 0 1.578 1.578 0 0 1 3.156 0M216.972 32.828a1.578 1.578 0 1 1-3.156 0 1.578 1.578 0 0 1 3.156 0"/>
        <path fill="#DCE0E6" d="M232.251 17.545a1.578 1.578 0 1 1-3.156 0 1.578 1.578 0 0 1 3.156 0M232.289 48.035a1.578 1.578 0 1 1-3.156 0 1.578 1.578 0 0 1 3.156 0M262.847 48.148a1.578 1.578 0 1 1-3.156 0 1.578 1.578 0 0 1 3.156 0"/>
        <path fill="#A7A9AC" d="M308.616 154.988a1.578 1.578 0 1 1-3.156 0 1.578 1.578 0 0 1 3.156 0"/>
        <path fill="#F26522" d="M323.873 139.727a1.578 1.578 0 1 1-3.156 0 1.578 1.578 0 0 1 3.156 0"/>
        <path fill="#A7A9AC" d="M308.616 124.478a1.578 1.578 0 1 1-3.156 0 1.578 1.578 0 0 1 3.156 0"/>
        <path fill="#F26522" d="M232.247 109.212a1.578 1.578 0 1 1-3.156 0 1.578 1.578 0 0 1 3.156 0"/>
        <path fill="#DCE0E6" d="M186.463 155.008a1.578 1.578 0 1 1-3.156 0 1.578 1.578 0 0 1 3.156 0M217 155.008a1.578 1.578 0 1 1-3.157 0 1.578 1.578 0 0 1 3.156 0"/>
        <path fill="#F26522" d="M232.259 170.288a1.578 1.578 0 1 1-3.157 0 1.578 1.578 0 0 1 3.157 0"/>
        <path fill="#DCE0E6" d="M262.811 170.305a1.578 1.578 0 1 1-3.156 0 1.578 1.578 0 0 1 3.156 0M278.087 185.535a1.578 1.578 0 1 1-3.156 0 1.578 1.578 0 0 1 3.156 0M262.794 200.798a1.578 1.578 0 1 1-3.156 0 1.578 1.578 0 0 1 3.156 0M278.073 216.098a1.578 1.578 0 1 1-3.156 0 1.578 1.578 0 0 1 3.156 0M262.83 231.34a1.578 1.578 0 1 1-3.157.001 1.578 1.578 0 0 1 3.156 0M79.574 78.652a1.578 1.578 0 1 1-3.156 0 1.578 1.578 0 0 1 3.156 0M125.403 246.66a1.578 1.578 0 1 1-3.156 0 1.578 1.578 0 0 1 3.156 0"/>
        <path fill="#F26522" d="M94.842 246.644a1.578 1.578 0 1 1-3.156 0 1.578 1.578 0 0 1 3.156 0"/>
        <path fill="#DCE0E6" d="M79.569 261.905a1.578 1.578 0 1 1-3.157 0 1.578 1.578 0 0 1 3.157 0M140.645 231.368a1.578 1.578 0 1 1-3.156 0 1.578 1.578 0 0 1 3.156 0M171.175 231.383a1.578 1.578 0 1 1-3.156 0 1.578 1.578 0 0 1 3.156 0"/>
        <path fill="#F26522" d="M186.464 216.106a1.578 1.578 0 1 1-3.156 0 1.578 1.578 0 0 1 3.156 0"/>
        <path fill="#DCE0E6" d="M217.016 185.552a1.578 1.578 0 1 1-3.156 0 1.578 1.578 0 0 1 3.156 0M232.259 200.831a1.578 1.578 0 1 1-3.157 0 1.578 1.578 0 0 1 3.157 0M217.03 216.112a1.578 1.578 0 1 1-3.156 0 1.578 1.578 0 0 1 3.156 0M171.187 170.288a1.578 1.578 0 1 1-3.156 0 1.578 1.578 0 0 1 3.156 0M125.403 277.167a1.578 1.578 0 1 1-3.156 0 1.578 1.578 0 0 1 3.156 0M94.873 277.197a1.578 1.578 0 1 1-3.157 0 1.578 1.578 0 0 1 3.157 0"/>
        <path fill="#A7A9AC" d="M354.474 48.049a1.578 1.578 0 1 1-3.156 0 1.578 1.578 0 0 1 3.156 0M369.716 32.803a1.578 1.578 0 1 1-3.156 0 1.578 1.578 0 0 1 3.156 0"/>
        <path fill="#F26522" d="M415.51 17.557a1.578 1.578 0 1 1-3.157 0 1.578 1.578 0 0 1 3.156 0"/>
        <path fill="#A7A9AC" d="M400.268 32.826a1.578 1.578 0 1 1-3.156 0 1.578 1.578 0 0 1 3.156 0M323.89 48.11a1.578 1.578 0 1 1-3.157.001 1.578 1.578 0 0 1 3.156 0"/>
        <path fill="#F26522" d="M446.04 78.633a1.578 1.578 0 1 1-3.156 0 1.578 1.578 0 0 1 3.157 0"/>
        <path fill="#A7A9AC" d="M461.295 63.362a1.578 1.578 0 1 1-3.156 0 1.578 1.578 0 0 1 3.156 0M446.028 48.091a1.578 1.578 0 1 1-3.157 0 1.578 1.578 0 0 1 3.157 0"/>
        <path fill="#F26522" d="M491.868 124.471a1.578 1.578 0 1 1-3.157 0 1.578 1.578 0 0 1 3.157 0"/>
        <path fill="#A7A9AC" d="M415.519 48.117a1.578 1.578 0 1 1-3.156 0 1.578 1.578 0 0 1 3.156 0M491.855 93.93a1.578 1.578 0 1 1-3.157 0 1.578 1.578 0 0 1 3.157 0M461.32 93.904a1.578 1.578 0 1 1-3.156 0 1.578 1.578 0 0 1 3.156 0M461.31 124.453a1.578 1.578 0 1 1-3.156 0 1.578 1.578 0 0 1 3.157 0M446.04 109.187a1.578 1.578 0 1 1-3.156 0 1.578 1.578 0 0 1 3.157 0M507.148 109.174a1.578 1.578 0 1 1-3.156 0 1.578 1.578 0 0 1 3.156 0M598.746 109.182a1.578 1.578 0 1 1-3.156 0 1.578 1.578 0 0 1 3.156 0M552.924 124.443a1.578 1.578 0 1 1-3.156 0 1.578 1.578 0 0 1 3.156 0M537.683 109.189a1.578 1.578 0 1 1-3.155 0 1.578 1.578 0 0 1 3.155 0M598.705 139.754a1.578 1.578 0 1 1-3.157 0 1.578 1.578 0 0 1 3.157 0"/>
        <path fill="#F26522" d="M583.489 124.46a1.578 1.578 0 1 1-3.156 0 1.578 1.578 0 0 1 3.156 0"/>
        <path fill="#A7A9AC" d="M552.977 154.99a1.578 1.578 0 1 1-3.157 0 1.578 1.578 0 0 1 3.157 0M583.473 155.022a1.578 1.578 0 1 1-3.156 0 1.578 1.578 0 0 1 3.156 0M583.472 93.905a1.578 1.578 0 1 1-3.156 0 1.578 1.578 0 0 1 3.156 0"/>
        <g transform="translate(595.216 76.97)">
            <mask id="b" fill="#fff">
                <use xlink:href="#a"/>
            </mask>
            <path fill="#F26522" d="M3.547 1.657a1.578 1.578 0 1 1-3.156 0 1.578 1.578 0 0 1 3.156 0" mask="url(#b)"/>
        </g>
        <path fill="#F26522" d="M537.641 170.222a1.578 1.578 0 1 1-3.156 0 1.578 1.578 0 0 1 3.156 0"/>
        <path fill="#A7A9AC" d="M461.273 185.552a1.578 1.578 0 1 1-3.156 0 1.578 1.578 0 0 1 3.156 0M446.021 200.807a1.578 1.578 0 1 1-3.156 0 1.578 1.578 0 0 1 3.156 0M507.114 170.292a1.578 1.578 0 1 1-3.156 0 1.578 1.578 0 0 1 3.156 0M491.85 185.493a1.578 1.578 0 1 1-3.157 0 1.578 1.578 0 0 1 3.156 0M507.114 200.796a1.578 1.578 0 1 1-3.156 0 1.578 1.578 0 0 1 3.156 0M446.05 231.36a1.578 1.578 0 1 1-3.156 0 1.578 1.578 0 0 1 3.156 0M400.224 246.644a1.578 1.578 0 1 1-3.156 0 1.578 1.578 0 0 1 3.156 0M415.533 261.947a1.578 1.578 0 1 1-3.156 0 1.578 1.578 0 0 1 3.156 0"/>
        <path fill="#F26522" d="M415.519 231.375a1.578 1.578 0 1 1-3.156 0 1.578 1.578 0 0 1 3.156 0"/>
        <path fill="#A7A9AC" d="M446.068 261.947a1.578 1.578 0 1 1-3.157 0 1.578 1.578 0 0 1 3.157 0M369.678 246.644a1.578 1.578 0 1 1-3.156 0 1.578 1.578 0 0 1 3.156 0M461.301 216.09a1.578 1.578 0 1 1-3.156 0 1.578 1.578 0 0 1 3.156 0M583.455 63.366a1.578 1.578 0 1 1-3.156 0 1.578 1.578 0 0 1 3.156 0M598.729 48.089a1.578 1.578 0 1 1-3.156 0 1.578 1.578 0 0 1 3.156 0M583.472 32.829a1.578 1.578 0 1 1-3.156 0 1.578 1.578 0 0 1 3.156 0M552.907 32.829a1.578 1.578 0 1 1-3.156 0 1.578 1.578 0 0 1 3.156 0"/>
        <path fill="#F26522" d="M537.676 48.124a1.578 1.578 0 1 1-3.156 0 1.578 1.578 0 0 1 3.156 0"/>
        <path fill="#A7A9AC" d="M537.644 200.83a1.578 1.578 0 1 1-3.156 0 1.578 1.578 0 0 1 3.156 0M400.223 2.267a1.578 1.578 0 1 1-3.156 0 1.578 1.578 0 0 1 3.156 0M446.061 17.535a1.578 1.578 0 1 1-3.156 0 1.578 1.578 0 0 1 3.156 0"/>
        <path fill="#F26522" d="M308.653 216.084a1.578 1.578 0 1 1-3.157 0 1.578 1.578 0 0 1 3.157 0"/>
        <path fill="#DCE0E6" d="M278.089 63.394a1.578 1.578 0 1 1-3.156 0 1.578 1.578 0 0 1 3.156 0"/>
        <path fill="#F26522" d="M491.85 216.098a1.578 1.578 0 1 1-3.157 0 1.578 1.578 0 0 1 3.156 0"/>
        <path fill="#A7A9AC" d="M461.357 2.339a1.578 1.578 0 1 1-3.156 0 1.578 1.578 0 0 1 3.156 0"/>
        <path fill="#DCE0E6" d="M3.155 2.256a1.578 1.578 0 1 1-3.156 0 1.578 1.578 0 0 1 3.156 0"/>
        <path fill="#A7A9AC" d="M369.693 2.288a1.578 1.578 0 1 1-3.156 0 1.578 1.578 0 0 1 3.156 0"/>
    </g>
</svg>
