<?xml version="1.0" encoding="UTF-8"?>
<svg width="16px" height="14px" viewBox="0 0 16 14" version="1.1" xmlns="http://www.w3.org/2000/svg" xmlns:xlink="http://www.w3.org/1999/xlink">
    <!-- Generator: Sketch 53.2 (72643) - https://sketchapp.com -->
    <title>Twitter</title>
    <desc>Created with Sketch.</desc>
    <g id="Landing-Page-v2" stroke="none" stroke-width="1" fill="none" fill-rule="evenodd">
        <g transform="translate(-1308.000000, -2393.000000)" id="Body---3">
            <g transform="translate(0.000000, 2000.000000)">
                <g id="Bottom" transform="translate(268.000000, 384.000000)">
                    <g id="Social-Icons" transform="translate(968.000000, 0.000000)">
                        <g id="Twitter" transform="translate(64.000000, 0.000000)">
                            <rect id="BG" x="0" y="0" width="32" height="32"></rect>
                            <g id="icons8-twitter" transform="translate(8.000000, 9.730000)" fill="#03A9F4" fill-rule="nonzero">
                                <path d="M16,1.48281081 C15.4278919,1.73621622 14.8125405,1.9052973 14.1634595,1.9852973 C14.8233514,1.59351351 15.331027,0.968648649 15.5692973,0.230486486 C14.9517838,0.592432432 14.2676757,0.858378378 13.5398919,0.998486486 C12.9587027,0.38227027 12.1297297,0 11.2112432,0 C9.44691892,0 8.01686486,1.41751351 8.01686486,3.16540541 C8.01686486,3.41275676 8.04583784,3.65362162 8.10032432,3.88756757 C5.44605405,3.75437838 3.09189189,2.49254054 1.51697297,0.57772973 C1.24021622,1.04562162 1.08454054,1.59351351 1.08454054,2.17167568 C1.08454054,3.27048649 1.64713514,4.23783784 2.50508108,4.80778378 C1.98140541,4.79178378 1.48843243,4.64605405 1.05686486,4.41254054 C1.05686486,4.42205405 1.05686486,4.43632432 1.05686486,4.44972973 C1.05686486,5.9852973 2.15827027,7.264 3.61816216,7.55502703 C3.35135135,7.62810811 3.06940541,7.66875676 2.77881081,7.66875676 C2.57254054,7.66875676 2.37145946,7.64540541 2.17686486,7.61037838 C2.58335135,8.8652973 3.76259459,9.78248649 5.15978378,9.80972973 C4.06659459,10.6572973 2.68972973,11.164973 1.19264865,11.164973 C0.934054054,11.164973 0.681081081,11.1502703 0.431135135,11.12 C1.84562162,12.0155676 3.52518919,12.5405405 5.328,12.5405405 C11.2025946,12.5405405 14.4164324,7.71632432 14.4164324,3.53124324 C14.4164324,3.39416216 14.4121081,3.25751351 14.4056216,3.12259459 C15.0326486,2.67978378 15.5731892,2.12108108 16,1.48281081" id="Path"></path>
                            </g>
                        </g>
                    </g>
                </g>
            </g>
        </g>
    </g>
</svg>