<?xml version="1.0" encoding="UTF-8"?>
<svg width="232px" height="44px" viewBox="0 0 232 44" version="1.1" xmlns="http://www.w3.org/2000/svg" xmlns:xlink="http://www.w3.org/1999/xlink">
    <!-- Generator: Sketch 53.2 (72643) - https://sketchapp.com -->
    <title>Text</title>
    <desc>Created with Sketch.</desc>
    <defs>
        <linearGradient x1="0%" y1="50%" x2="75.044308%" y2="50%" id="linearGradient-1">
            <stop stop-color="#CC2B5E" offset="0%"></stop>
            <stop stop-color="#F06723" offset="100%"></stop>
        </linearGradient>
    </defs>
    <g id="Symbols" stroke="none" stroke-width="1" fill="none" fill-rule="evenodd">
        <g id="Kloudi-Big-Logo" transform="translate(-96.000000, -18.000000)">
            <g id="Text" transform="translate(96.000000, 18.000000)">
                <rect id="Bg" fill-opacity="0.01" fill="#FFFFFF" x="0" y="0" width="232" height="44"></rect>
                <path d="M5,10.6758065 L9.02938634,10.6758065 L9.02938634,20.4645161 L9.12532411,20.4645161 L18.5911841,10.6758065 L24.0276577,10.6758065 L13.4425238,21.1362903 L24.7312014,33.3241935 L19.0708729,33.3241935 L9.12532411,21.9680108 L9.02938634,21.9680108 L9.02938634,33.3241935 L5,33.3241935 L5,10.6758065 Z M27.0337079,10.6758065 L31.0630942,10.6758065 L31.0630942,29.7413978 L40.6888505,29.7413978 L40.6888505,33.3241935 L27.0337079,33.3241935 L27.0337079,10.6758065 Z M41.3284356,21.9360215 C41.3284356,20.1232884 41.6322355,18.4865216 42.2398444,17.025672 C42.8474533,15.5648224 43.6895653,14.3225858 44.7662057,13.2989247 C45.8428461,12.2752637 47.1220035,11.4862035 48.6037165,10.9317204 C50.0854295,10.3772374 51.7003658,10.1 53.4485739,10.1 C55.2181016,10.1 56.8490274,10.3772374 58.3414002,10.9317204 C59.8337729,11.4862035 61.1235901,12.2752637 62.2108902,13.2989247 C63.2981904,14.3225858 64.1456322,15.5648224 64.7532411,17.025672 C65.3608501,18.4865216 65.66465,20.1232884 65.66465,21.9360215 C65.66465,23.706102 65.3608501,25.3215429 64.7532411,26.7823925 C64.1456322,28.2432421 63.2981904,29.5014732 62.2108902,30.5571237 C61.1235901,31.6127741 59.8337729,32.4338232 58.3414002,33.0202957 C56.8490274,33.6067682 55.2181016,33.9 53.4485739,33.9 C51.7003658,33.9 50.0854295,33.6067682 48.6037165,33.0202957 C47.1220035,32.4338232 45.8428461,31.6127741 44.7662057,30.5571237 C43.6895653,29.5014732 42.8474533,28.2432421 42.2398444,26.7823925 C41.6322355,25.3215429 41.3284356,23.706102 41.3284356,21.9360215 Z M45.7095938,21.9360215 C45.7095938,23.151619 45.8961376,24.2659 46.2692308,25.2788978 C46.642324,26.2918957 47.1753062,27.1715913 47.8681936,27.9180108 C48.561081,28.6644303 49.3818737,29.2455624 50.3305964,29.6614247 C51.2793191,30.077287 52.3292942,30.2852151 53.4805532,30.2852151 C54.6318122,30.2852151 55.6871171,30.077287 56.6464996,29.6614247 C57.6058821,29.2455624 58.4320046,28.6644303 59.124892,27.9180108 C59.8177793,27.1715913 60.3507616,26.2918957 60.7238548,25.2788978 C61.096948,24.2659 61.2834918,23.151619 61.2834918,21.9360215 C61.2834918,20.7630766 61.096948,19.675453 60.7238548,18.6731183 C60.3507616,17.6707835 59.8231091,16.7964195 59.1408816,16.05 C58.458654,15.3035805 57.6378613,14.7171168 56.6784788,14.2905914 C55.7190963,13.864066 54.6531318,13.6508065 53.4805532,13.6508065 C52.3079745,13.6508065 51.2473398,13.864066 50.2986171,14.2905914 C49.3498944,14.7171168 48.5344315,15.3035805 47.852204,16.05 C47.1699764,16.7964195 46.642324,17.6707835 46.2692308,18.6731183 C45.8961376,19.675453 45.7095938,20.7630766 45.7095938,21.9360215 Z M87.6024201,25.0069892 C87.6024201,26.3718706 87.3679078,27.6034443 86.8988764,28.7017473 C86.429845,29.8000503 85.7902662,30.7330607 84.980121,31.5008065 C84.1699758,32.2685522 83.2106077,32.8603474 82.1019879,33.2762097 C80.9933681,33.692072 79.7888282,33.9 78.4883319,33.9 C77.1878356,33.9 75.9832957,33.692072 74.8746759,33.2762097 C73.7660561,32.8603474 72.8013582,32.2685522 71.9805532,31.5008065 C71.1597481,30.7330607 70.5201694,29.8000503 70.0617978,28.7017473 C69.6034261,27.6034443 69.3742437,26.3718706 69.3742437,25.0069892 L69.3742437,10.6758065 L73.4036301,10.6758065 L73.4036301,24.847043 C73.4036301,25.5081574 73.4889072,26.1639304 73.6594641,26.8143817 C73.830021,27.464833 74.1125016,28.0459652 74.5069144,28.5577957 C74.9013272,29.0696262 75.4236499,29.4854823 76.073898,29.8053763 C76.7241461,30.1252704 77.5289494,30.2852151 78.4883319,30.2852151 C79.4477144,30.2852151 80.2525176,30.1252704 80.9027658,29.8053763 C81.5530139,29.4854823 82.0753365,29.0696262 82.4697494,28.5577957 C82.8641622,28.0459652 83.1466428,27.464833 83.3171997,26.8143817 C83.4877565,26.1639304 83.5730337,25.5081574 83.5730337,24.847043 L83.5730337,10.6758065 L87.6024201,10.6758065 L87.6024201,25.0069892 Z M92.3993086,10.6758065 L100.426102,10.6758065 C101.897155,10.6758065 103.378846,10.86774 104.871219,11.2516129 C106.363591,11.6354858 107.706707,12.2699329 108.900605,13.1549731 C110.094503,14.0400134 111.064531,15.2022777 111.810717,16.6418011 C112.556904,18.0813244 112.929991,19.8673728 112.929991,22 C112.929991,23.9833433 112.556904,25.6894194 111.810717,27.1182796 C111.064531,28.5471398 110.094503,29.7200671 108.900605,30.6370968 C107.706707,31.5541264 106.363591,32.2312254 104.871219,32.668414 C103.378846,33.1056025 101.897155,33.3241935 100.426102,33.3241935 L92.3993086,33.3241935 L92.3993086,10.6758065 Z M99.7865169,29.8053763 C100.831178,29.8053763 101.875823,29.6827521 102.920484,29.4375 C103.965145,29.1922479 104.908524,28.7763918 105.750648,28.1899194 C106.592773,27.6034469 107.28032,26.8090552 107.81331,25.8067204 C108.346301,24.8043857 108.612792,23.5354915 108.612792,22 C108.612792,20.3792034 108.346301,19.0569944 107.81331,18.0333333 C107.28032,17.0096723 106.592773,16.2099491 105.750648,15.6341398 C104.908524,15.0583305 103.965145,14.6638003 102.920484,14.4505376 C101.875823,14.2372749 100.831178,14.1306452 99.7865169,14.1306452 L96.4286949,14.1306452 L96.4286949,29.8053763 L99.7865169,29.8053763 Z M116.831461,10.6758065 L120.860847,10.6758065 L120.860847,33.3241935 L116.831461,33.3241935 L116.831461,10.6758065 Z M132.949006,31.0849462 C132.949006,30.4025055 133.199508,29.8160419 133.700519,29.3255376 C134.201529,28.8350334 134.803799,28.5897849 135.507347,28.5897849 C136.189574,28.5897849 136.786514,28.8243704 137.298185,29.2935484 C137.809856,29.7627264 138.065687,30.3385271 138.065687,31.0209677 C138.065687,31.7034084 137.815185,32.2898721 137.314175,32.7803763 C136.813164,33.2708806 136.210894,33.516129 135.507347,33.516129 C135.166233,33.516129 134.841114,33.4521512 134.531979,33.3241935 C134.222845,33.1962359 133.951024,33.0256283 133.716508,32.8123656 C133.481992,32.5991029 133.295449,32.3431915 133.156871,32.0446237 C133.018294,31.7460559 132.949006,31.4261666 132.949006,31.0849462 Z M153,14.1946237 L146.060501,14.1946237 L146.060501,10.6758065 L163.968885,10.6758065 L163.968885,14.1946237 L157.029386,14.1946237 L157.029386,33.3241935 L153,33.3241935 L153,14.1946237 Z M166.591184,10.6758065 L181.589455,10.6758065 L181.589455,14.1946237 L170.62057,14.1946237 L170.62057,19.9526882 L181.013829,19.9526882 L181.013829,23.3435484 L170.62057,23.3435484 L170.62057,29.7413978 L182.165082,29.7413978 L182.165082,33.3241935 L166.591184,33.3241935 L166.591184,10.6758065 Z M202.439931,15.9860215 C201.842982,15.1756232 201.064828,14.583828 200.105445,14.2106183 C199.146063,13.8374085 198.208014,13.6508065 197.291271,13.6508065 C196.118692,13.6508065 195.052727,13.864066 194.093345,14.2905914 C193.133962,14.7171168 192.30784,15.3035805 191.614952,16.05 C190.922065,16.7964195 190.389083,17.6707835 190.01599,18.6731183 C189.642896,19.675453 189.456353,20.7630766 189.456353,21.9360215 C189.456353,23.1729453 189.637567,24.3032207 190,25.3268817 C190.362433,26.3505428 190.879426,27.2302383 191.550994,27.9659946 C192.222562,28.701751 193.027365,29.2722202 193.965428,29.6774194 C194.903491,30.0826185 195.958796,30.2852151 197.131374,30.2852151 C198.346592,30.2852151 199.423216,30.0452981 200.361279,29.565457 C201.299342,29.0856159 202.056177,28.4511688 202.631806,27.6620968 L205.861711,29.9333333 C204.85969,31.1915834 203.63383,32.1672456 202.184097,32.8603495 C200.734363,33.5534533 199.03948,33.9 197.099395,33.9 C195.329867,33.9 193.704271,33.6067682 192.222558,33.0202957 C190.740845,32.4338232 189.467018,31.6127741 188.401037,30.5571237 C187.335057,29.5014732 186.503604,28.2432421 185.906655,26.7823925 C185.309706,25.3215429 185.011236,23.706102 185.011236,21.9360215 C185.011236,20.1232884 185.325696,18.4865216 185.954624,17.025672 C186.583553,15.5648224 187.446984,14.3225858 188.544944,13.2989247 C189.642904,12.2752637 190.938051,11.4862035 192.430424,10.9317204 C193.922796,10.3772374 195.543062,10.1 197.291271,10.1 C198.016137,10.1 198.772972,10.1693093 199.561798,10.3079301 C200.350623,10.4465509 201.107458,10.6598104 201.832325,10.9477151 C202.557192,11.2356197 203.239409,11.5928294 203.878997,12.0193548 C204.518586,12.4458803 205.062228,12.9577031 205.509939,13.5548387 L202.439931,15.9860215 Z M208.356093,10.6758065 L212.38548,10.6758065 L212.38548,19.8247312 L222.970614,19.8247312 L222.970614,10.6758065 L227,10.6758065 L227,33.3241935 L222.970614,33.3241935 L222.970614,23.2795699 L212.38548,23.2795699 L212.38548,33.3241935 L208.356093,33.3241935 L208.356093,10.6758065 Z" id="KLOUDI.TECH" fill="url(#linearGradient-1)"></path>
            </g>
        </g>
    </g>
</svg>