<?xml version="1.0" encoding="UTF-8"?>
<svg width="188px" height="80px" viewBox="0 0 188 80" version="1.1" xmlns="http://www.w3.org/2000/svg" xmlns:xlink="http://www.w3.org/1999/xlink">
    <!-- Generator: Sketch 53.2 (72643) - https://sketchapp.com -->
    <title>Kloudi Email Logo</title>
    <desc>Created with Sketch.</desc>
    <defs>
        <linearGradient x1="0%" y1="50%" x2="100%" y2="50%" id="linearGradient-1">
            <stop stop-color="#CC2B5E" offset="0%"></stop>
            <stop stop-color="#F06723" offset="100%"></stop>
        </linearGradient>
        <linearGradient x1="0%" y1="50%" x2="100%" y2="50%" id="linearGradient-2">
            <stop stop-color="#CC2B5E" offset="0%"></stop>
            <stop stop-color="#F06723" offset="100%"></stop>
        </linearGradient>
    </defs>
    <g id="Kloudi-Email-Logo" stroke="none" stroke-width="1" fill="none" fill-rule="evenodd">
        <rect fill="#FFFFFF" x="0" y="0" width="188" height="80"></rect>
        <g id="email-logo" transform="translate(2.000000, 0.000000)">
            <g id="Logo">
                <circle id="Oval" fill="#FFFFFF" cx="40" cy="40" r="40"></circle>
                <path d="M51.2302723,60.7155272 C51.2289776,60.7054683 51.2277785,60.6953895 51.2266829,60.6852835 C51.2235519,60.6817643 51.220487,60.6781968 51.2174893,60.6745824 C51.2216091,60.6882679 51.2258703,60.7019168 51.2302723,60.7155272 Z M55.5801143,41.5988616 C55.5784333,41.5972903 55.5767524,41.595719 55.5750717,41.5941477 C55.5542393,41.5458474 55.5342403,41.4975472 55.5159079,41.4476888 C55.4950004,41.3880905 55.4774768,41.3275008 55.4634105,41.2661731 C55.4325786,41.1407482 55.40508,41.0153232 55.385081,40.8875611 C55.3742482,40.7995299 55.3667485,40.7107197 55.3609155,40.6219095 C55.3609155,40.611782 55.3609155,40.6024336 55.3609155,40.5930851 C55.3659152,40.5362154 55.3717483,40.4801247 55.3784146,40.4240341 L55.3784146,40.4131276 C55.3950805,40.3305496 55.4150795,40.2464136 55.4367451,40.1685099 C55.4434114,40.1412436 55.4500778,40.1131983 55.4575774,40.0906062 C55.4650771,40.0680141 55.4725767,40.0454221 55.4809096,40.0220509 C55.5059084,39.9503795 55.5309072,39.8779291 55.5550726,39.8054786 L55.5609057,39.791456 C55.5862258,39.7377724 55.6135085,39.6847768 55.6419553,39.632345 L55.625,39.6138373 C55.6507106,39.567105 55.6764212,39.5203727 55.7029612,39.4744193 C55.7517602,39.3926353 55.807217,39.3145155 55.8688362,39.2407579 C55.9161105,39.1870158 55.9650437,39.1309371 56.0106593,39.0803104 C56.0562749,39.0296838 56.1018905,38.9767206 56.1499942,38.9245362 L56.151653,38.9112954 C56.2188993,38.8373866 56.2903287,38.7669269 56.3656317,38.7002212 L56.3956531,38.7302176 C56.4296356,38.7021299 56.4644984,38.6749086 56.5002024,38.6485887 L56.5018953,38.6455035 L56.549295,38.6131084 L56.5587775,38.6200692 C56.5945944,38.5952726 56.6308663,38.570857 56.6674247,38.5469814 C56.7393023,38.4984177 56.8137486,38.4533192 56.8904766,38.4118595 L56.9410571,38.3868659 C57.0330971,38.3548428 57.1251371,38.3259439 57.2196646,38.3009503 C57.3538275,38.2626842 57.4903447,38.2321665 57.6284548,38.2095673 C57.6848396,38.2017568 57.7395661,38.1916032 57.7942926,38.1822306 L57.8025845,38.1822306 C57.8331392,38.1888735 57.8648989,38.1888735 57.8954537,38.1822306 C57.945205,38.1783253 57.9957855,38.1783253 58.0455369,38.1783253 L58.1442104,38.1775442 L58.2271293,38.1775442 C58.2993179,38.1808081 58.3711044,38.1867241 58.4424887,38.1939728 L58.4249264,38.1775442 L58.5688899,38.1931303 C58.6367348,38.2024819 58.7054071,38.2141714 58.773252,38.2266402 C58.8467634,38.2385871 58.9190217,38.2565799 58.9891972,38.2804119 C59.0475544,38.3032794 59.1044622,38.3292993 59.1596368,38.3583419 C59.1894224,38.3731486 59.2175532,38.3895139 59.2423745,38.4043206 C59.2671958,38.4191273 59.2944992,38.4300375 59.3209753,38.4432856 L59.3913023,38.4760163 L61.4340951,40.3829641 L62.7355584,41.5932175 C64.0808728,42.8400979 65.3103544,43.9911245 66.4951576,45.1000688 L66.6250558,45.2146259 L66.7516444,45.3338589 L66.8889889,45.4632227 L66.9030543,45.4764708 C66.9278756,45.5006291 66.9518695,45.5232289 66.9742087,45.5481665 C66.9938215,45.565955 67.0100524,45.586778 67.0221965,45.6097312 C67.0991425,45.6790889 67.1719517,45.7476673 67.2704095,45.8435213 C67.3627228,45.9387343 67.4483974,46.0394746 67.5268962,46.1451105 C67.6129683,46.2589016 67.6901188,46.3784514 67.7577343,46.5028093 C67.9012312,46.7605439 68.0046094,47.036385 68.064691,47.3218539 C68.1252675,47.6241032 68.1403083,47.9328864 68.1093694,48.2390904 C68.045938,48.8272722 67.8483793,49.3956111 67.5302057,49.9052344 C67.3865997,50.1325766 67.2203769,50.3465475 67.0337798,50.5442607 L67.0172323,50.5668604 C67.0092568,50.587672 66.9992871,50.6077569 66.9874467,50.6268665 C66.9805239,50.6395087 66.9727873,50.6517405 66.9642802,50.6634936 C66.9526969,50.6814175 66.9394589,50.6985621 66.9262208,50.7157067 L66.9138102,50.7312927 C66.891471,50.7609062 66.8666497,50.788961 66.8426558,50.8170158 L66.8186619,50.8442913 C66.8061904,50.8782455 66.7834752,50.9080364 66.7532991,50.9300143 L66.7475075,50.9362487 L66.7367516,50.9510554 L66.7218588,50.9736551 C66.7119303,50.9876825 66.7053113,50.9978134 66.6978649,51.0071651 C66.6894766,51.0203948 66.6791734,51.0324599 66.667252,51.0430129 C66.654134,51.0552232 66.6386978,51.0650041 66.6217463,51.071847 C66.595881,51.1006157 66.5682548,51.1279377 66.5390086,51.1536735 L66.4951576,51.1957557 C66.4653721,51.2245898 66.4364139,51.2542032 66.4074557,51.2838167 L66.3975272,51.2947269 L66.3197538,51.3726569 C66.2105401,51.4802003 66.0905705,51.5931989 65.9937674,51.684377 L65.973083,51.7046388 L65.9565355,51.7202248 L65.9333689,51.7412659 L65.8316016,51.8378992 L65.3881278,52.2548248 L65.2971163,52.3405479 L64.7469109,52.8603412 L64.7386371,52.8681342 L64.4821504,53.1112759 L63.9642127,53.602235 L63.7085533,53.8445974 L62.5833211,54.9122388 C61.6583141,55.7873931 60.6654622,56.7108639 59.9415077,57.3849587 L59.9117221,57.4130135 L59.8289845,57.4909435 C59.2569915,58.0224263 58.6866532,58.5546884 58.1179697,59.0877298 L57.7870191,59.39945 C57.4395209,59.7262366 57.0906438,60.0525036 56.7403877,60.3782511 L56.409437,60.6899713 L56.0784864,61.0016914 L55.7359525,61.3180873 L55.5704772,61.467713 L55.5440011,61.4918713 C55.494536,61.5408473 55.4389758,61.584021 55.3785258,61.6204558 C55.3663629,61.6278598 55.3533092,61.6338766 55.3396391,61.6383797 L55.3222642,61.6563036 L55.0244086,61.9391896 L54.8539691,62.1005048 L54.8456953,62.1082978 C54.8299751,62.127001 54.8150824,62.1418077 54.8001896,62.1566144 L54.7728862,62.1838899 C54.7530291,62.2041517 54.7306899,62.2251928 54.713315,62.2392202 C54.6959401,62.2532477 54.68022,62.2641579 54.6636724,62.2758474 C54.6272092,62.2965777 54.5854658,62.307619 54.5428755,62.3077987 C54.5361024,62.3077766 54.529396,62.3074894 54.5227671,62.3069477 L54.5090501,62.3175294 L54.5101612,62.3164183 L54.5225672,62.3069313 C54.5095736,62.305859 54.4968788,62.3038083 54.4845661,62.300858 C54.383511,62.3745082 54.2744209,62.4379689 54.1591053,62.490176 L54.112338,62.5093862 C53.9661496,62.5677062 53.8125082,62.6078052 53.6553513,62.628717 C53.6294688,62.6328028 53.6034782,62.6364033 53.5773968,62.6395147 C53.5586581,62.6428046 53.5397629,62.6452799 53.5207718,62.6469318 C53.5014654,62.6491066 53.4820552,62.6503616 53.4626161,62.6506923 C53.4069448,62.6546563 53.3511216,62.6565003 53.2953011,62.6562228 C53.2405121,62.6564984 53.185714,62.6546821 53.1310437,62.6507739 C52.9433783,62.6356231 52.7587494,62.5968535 52.5821425,62.5355122 C52.2642799,62.4236147 51.9766007,62.247585 51.7395094,62.0199083 C51.6124318,61.8968525 51.4973784,61.7633841 51.3957282,61.6211029 C51.3036059,61.4927806 51.2213502,61.3584818 51.1495841,61.2192239 C51.1290721,61.1800349 51.1102011,61.1423827 51.092971,61.1008885 C51.092971,61.1108779 51.1019963,61.1216356 51.1069192,61.131625 C50.9682185,60.8549715 50.8887747,60.5555356 50.8730823,60.2502574 L50.8730823,60.2356576 C50.870285,60.1674422 50.8711495,60.0991719 50.8756618,60.0311041 C50.8661243,59.945002 50.8729078,59.8578005 50.8958977,59.7735966 C50.9068338,59.7322122 50.920689,59.691559 50.9373714,59.6519067 C50.9498134,59.619144 50.9622555,59.5863813 50.9763566,59.5543987 L50.9838218,59.5122753 C51.0069496,59.4167369 51.0431977,59.3244346 51.0916533,59.237693 C51.1306385,59.1596866 51.1746006,59.0816803 51.2193921,59.0083543 C51.2605345,58.9334955 51.308257,58.8620009 51.3620614,58.7946169 C51.4043645,58.7407926 51.4450087,58.6877483 51.4939476,58.6386043 C51.7223875,58.3129651 51.9913845,58.0141629 52.2952182,57.7485519 L52.3375213,57.713449 C52.3707002,57.6783462 52.4047086,57.6432433 52.4403759,57.6097006 C52.5072185,57.5468396 52.5763701,57.4857158 52.6464524,57.4256811 C52.6624699,57.4085489 52.6796304,57.3923614 52.6978372,57.3772181 L52.7277702,57.3499851 L52.9597508,57.1336778 L53.4586338,56.6668273 L53.4736003,56.6535999 L54.4430963,55.7494661 L54.4505795,55.7432414 L54.700021,55.5098162 L54.7050099,55.5051477 L54.7149875,55.4965888 C55.2992349,54.9550422 55.8812651,54.4134957 56.461078,53.8719491 L57.2434929,53.1319911 L57.6110033,52.788856 L57.9219737,52.4986306 L58.5297795,51.9306292 C58.86902,51.6157645 59.2085376,51.3006405 59.5483323,50.985257 L59.6497719,50.8903308 L59.7778185,50.7728401 C60.0405636,50.5300778 60.3019228,50.2873156 60.5618963,50.0445533 C60.8438146,49.7832022 61.1249815,49.5204447 61.4053969,49.2562809 C61.4214216,49.2257845 61.4370266,49.1950908 61.4522074,49.1642074 C61.5003888,49.07476 61.5510623,48.9868683 61.5992437,48.8974209 C61.6110422,48.8770908 61.6232555,48.8569861 61.6358756,48.8371175 C61.6412896,48.8207099 61.6468246,48.8041286 61.6527871,48.7879475 C61.6851733,48.6933236 61.7085457,48.5962028 61.7226308,48.4977221 C61.7367658,48.3825656 61.7467434,48.2775243 61.7467434,48.1755953 C61.7467434,48.1195732 61.7467434,48.061995 61.7467434,48.0051948 L61.7467434,47.9989702 L61.7334399,47.9507289 C61.7184734,47.9001535 61.700181,47.8511342 61.6818886,47.8044491 L61.6760683,47.7912217 L61.6619333,47.7530956 C61.6486298,47.7173037 61.6344948,47.6822899 61.6203597,47.6464981 C61.5685226,47.5410464 61.5046846,47.4411334 61.4299527,47.3484918 L61.4133233,47.3282616 C61.3900421,47.3010287 61.3692553,47.2745738 61.3434797,47.2465628 C61.3177041,47.2185518 61.289434,47.1913188 61.2661528,47.1687544 L61.2561751,47.1594174 L61.2412087,47.14619 C61.2184818,47.1244036 61.1952006,47.1033953 61.171365,47.0831651 C61.1362136,47.0541499 61.1026356,47.0235069 61.070757,46.9913512 L61.0532961,46.9742334 L61.0308463,46.9532251 L61.0192057,46.9423319 L61.0083966,46.9314387 L61.0034078,46.9267702 L60.9975875,46.9221017 L60.8163266,46.7509232 L60.3906131,46.3470976 L60.0488783,46.0234146 L59.7919535,45.7790962 L59.454376,45.4608597 L59.0386402,45.0718177 C58.5724618,44.6340157 58.1071148,44.195695 57.6425993,43.7568555 C57.1675518,43.305048 56.6930586,42.8553154 56.2191198,42.4076577 L56.0528254,42.2520408 C55.9829818,42.1859037 55.9131382,42.1205446 55.844126,42.0544075 C55.7784398,41.9602593 55.7177423,41.8622207 55.655382,41.7657382 C55.6345952,41.717497 55.6129769,41.6762586 55.5888642,41.6194584 C55.5859456,41.6125833 55.583027,41.6057195 55.5801143,41.5988616 Z M58.799189,38.5276479 C58.8267762,38.5603362 58.8550484,38.5933715 58.879701,38.6274296 C58.9478021,38.6828023 59.0157788,38.7381749 59.0835828,38.7936838 L58.799189,38.5276479 Z M67.1774174,46.6472011 C67.1785585,46.6534619 67.1796569,46.6597305 67.1807122,46.6660065 C67.1929436,46.6835189 67.2050307,46.7011672 67.2169521,46.7189114 C67.2041389,46.694825 67.1909592,46.6709191 67.1774174,46.6472011 Z M51.1401148,60.2755082 C51.1445217,60.2634619 51.1496623,60.2516306 51.1555227,60.2400745 C51.1500914,60.2425651 51.1445639,60.2447841 51.1389616,60.2467322 C51.13909,60.2563184 51.1394966,60.2659069 51.1401148,60.2755082 Z M51.9180089,22.1487832 L52.0964691,22.151905 C52.1935847,22.151905 52.2898702,22.1565876 52.3728749,22.1565876 L52.5621257,22.1659529 L57.3847018,22.1659529 C57.3978705,22.1654747 57.410887,22.1687383 57.4220539,22.1753182 C57.5141892,22.1682942 57.6063245,22.1682942 57.6992898,22.1682942 C57.8279471,22.164392 57.9574346,22.164392 58.0860919,22.164392 L58.1267642,22.164392 C58.1583061,22.164392 58.1906779,22.1682942 58.2272,22.1682942 L58.2653822,22.1682942 L58.3799287,22.1628311 C58.418941,22.1628311 58.4513128,22.1628311 58.4961354,22.1628311 C58.540958,22.1628311 58.5915909,22.164392 58.647204,22.1682942 C58.75096,22.1760986 58.8439253,22.183903 58.9377207,22.1971705 C59.031516,22.210438 59.1228213,22.2276077 59.2166166,22.2455579 C59.2614392,22.2549232 59.3062618,22.2666298 59.3510843,22.277556 L59.3909266,22.2877017 L59.4066975,22.2877017 C59.432429,22.2939452 59.4614806,22.3017496 59.484722,22.3079932 C59.5079633,22.3142367 59.5328647,22.3212607 59.5561061,22.3290651 L59.6125493,22.3454543 L59.6216798,22.3454543 L59.6457512,22.3516979 L59.6590319,22.3516979 C59.8170519,22.3816578 59.973087,22.4202245 60.1263487,22.4672031 C60.3181026,22.5253825 60.5039425,22.5995593 60.6816505,22.6888484 C60.7729398,22.7318422 60.860869,22.780873 60.9447755,22.8355713 C61.0345948,22.8915162 61.1205398,22.9527743 61.2020903,23.018975 C61.4998083,23.2713577 61.738146,23.5794534 61.9018203,23.9235062 C61.9862431,24.0954501 62.0542964,24.2740892 62.105182,24.4573279 C62.1552211,24.633012 62.1929312,24.8115973 62.2180684,24.99193 L62.2247088,25.045 L62.2247088,25.0598284 C62.2338393,25.1050939 62.2421398,25.1503595 62.2496102,25.1964056 L62.2496102,25.2151361 L62.2496102,25.2323058 L62.2496102,25.2494755 L62.2579107,25.3017651 C62.2670412,25.3540546 62.2753417,25.4063442 62.2828121,25.4578533 C62.2944328,25.5319952 62.3027333,25.6061371 62.3118638,25.680279 C62.3226544,25.7708102 62.3309549,25.8621218 62.3384253,25.9534334 L62.3425755,26.0049425 L62.3425755,26.0299166 L62.3425755,26.0439645 C62.3467258,26.0595734 62.3467258,26.0744018 62.3467258,26.0892301 L62.3558563,26.1867853 L62.3558563,26.2094181 L62.3558563,26.2180029 C62.3649868,26.3046319 62.3741174,26.4006261 62.3799277,26.4934986 C62.3890582,26.6347584 62.3973587,26.7760183 62.403169,26.9172781 C62.403169,26.9438131 62.403169,26.9695677 62.403169,26.9953222 L62.403169,27.3254488 C62.403169,27.3894449 62.403169,27.4534411 62.403169,27.5174373 L62.403169,27.640747 C62.403169,27.6516731 62.403169,27.6625993 62.403169,27.6743059 L62.403169,27.7008409 C62.4029025,27.7114016 62.4012293,27.7218892 62.3981887,27.7320586 C62.3964918,27.7393456 62.3927681,27.7460785 62.3873981,27.7515696 C62.3838429,27.755297 62.3792387,27.7580027 62.3741174,27.759374 C62.3799277,28.0418937 62.3799277,28.3244133 62.3799277,28.606933 L62.3799277,29.0650519 C62.3799277,29.3030864 62.3799277,29.5372188 62.3799277,29.7713511 L62.3799277,29.7908621 C62.3799277,30.07026 62.3799277,30.3504384 62.3799277,30.6290558 L62.3799277,31.7099667 C62.3799277,31.844983 62.3799277,31.9792189 62.3799277,32.1134547 L62.3799277,33.0398383 C62.3799277,33.189683 62.3799277,33.3457712 62.3799277,33.5018594 C62.3799277,33.5049811 62.3799277,33.5088834 62.3799277,33.5127856 L62.3799277,33.5853666 L62.3799277,33.6072189 L62.3932084,33.6142429 L62.3832479,33.6556063 L62.3832479,33.6641911 L62.3782676,33.6860435 C62.3699671,33.7242851 62.3608366,33.7633071 62.3492159,33.8023292 C62.3442356,33.8187185 62.3384253,33.8351077 62.332615,33.851497 L62.3226544,33.8827146 L62.3226544,33.8944212 C62.3193342,33.9037865 62.3135239,33.9139323 62.3135239,33.924078 C62.1141465,34.211011 61.8545773,34.4566608 61.5507102,34.645986 C61.3920511,34.7450866 61.222931,34.8285161 61.0460413,34.8949467 C60.9608544,34.9299411 60.8732175,34.9594067 60.7837463,34.9831365 C60.6891209,35.010452 60.586195,35.0338652 60.4791189,35.0541567 C60.2856298,35.086419 60.0896069,35.1033879 59.8931053,35.1048853 L59.8665438,35.1048853 C59.655877,35.1025291 59.4457521,35.08426 59.2381979,35.0502545 C59.0325767,35.0149392 58.8306524,34.962709 58.6347533,34.8941662 C58.5325657,34.8605799 58.432518,34.8214933 58.3351062,34.7771001 C58.2886235,34.7568086 58.2421409,34.7357367 58.1964882,34.7123235 L58.1657765,34.6974951 L58.1358948,34.6818863 L58.1143135,34.6709601 C58.1072696,34.6677006 58.1005952,34.6637784 58.0943924,34.6592535 L58.0836018,34.65301 L58.0719811,34.6467664 L58.0337989,34.6249141 C58.0055773,34.6085248 57.9773557,34.5921356 57.9507942,34.5741854 C57.8926909,34.5414069 57.8403979,34.506287 57.7847847,34.467265 C57.686009,34.394684 57.5847432,34.3142985 57.4834774,34.2268891 C57.3472366,34.1068053 57.219418,33.9785441 57.1008255,33.8429121 C57.0950152,33.8366686 57.0950152,33.8288642 57.0950152,33.8218402 C57.0876644,33.8008546 57.0790739,33.780271 57.0692837,33.7601854 L57.0584931,33.738333 L57.0319316,33.6829217 C57.0142239,33.6386967 56.997623,33.5934311 56.9821287,33.547125 L56.968848,33.5096638 C56.952877,33.4697768 56.9401137,33.4288186 56.9306658,33.3871345 C56.9273456,33.3637213 56.9256855,33.3403081 56.9256855,33.3168948 C56.9257192,33.3055435 56.9240425,33.2942449 56.9207052,33.2833359 L56.9207052,33.2505574 L56.9256855,32.6574221 L56.9256855,32.5270885 L56.9256855,32.0939437 L56.9256855,31.8683962 L56.9256855,31.7575736 L56.9256855,31.5039303 L56.9256855,31.3041373 L56.9256855,31.1074662 L56.9256855,30.905332 C56.9331559,30.2645898 56.9381362,29.5262926 56.9381362,28.7037077 L56.9381362,28.6802945 L56.9381362,28.6709292 L56.9314958,28.6498573 L56.9248555,28.6287854 C56.9123812,28.587659 56.9059578,28.5451197 56.9057644,28.5023539 L56.9057644,28.4805016 L56.9057644,28.4250902 L56.9057644,28.4133836 C56.8982939,28.3837269 56.8924836,28.3603136 56.8800329,28.3244133 C56.8675822,28.2885131 56.8551315,28.2533932 56.8401906,28.2182734 L56.8111389,28.1480337 L56.7995183,28.1214987 C56.7912178,28.1027681 56.7820873,28.0840375 56.7737868,28.0684287 L56.7563558,28.0465763 L56.7505455,28.0395524 C56.7198337,28.0028716 56.6874619,27.9685322 56.6534299,27.9318515 L56.5704252,27.8413203 L56.5554843,27.8257115 C56.5222824,27.7913721 56.4874204,27.7578131 56.4525584,27.7242542 C56.4401077,27.7125475 56.4268269,27.7016214 56.4135462,27.6906952 L56.4019255,27.6821103 C56.3828344,27.6657211 56.3629133,27.6501123 56.3429922,27.6352839 L56.3313715,27.6274795 L56.3214109,27.6196751 L56.2384062,27.5619224 L56.1993939,27.5369483 L56.1869432,27.527583 L56.1545714,27.5033893 L56.096468,27.4674891 L56.0865075,27.4612455 L56.0707366,27.4510998 C56.0416849,27.4331496 56.0118032,27.4144191 55.9810914,27.3980298 C55.9636604,27.3886645 55.9453994,27.3800797 55.9246482,27.3707144 L55.9047271,27.3605686 L55.8848059,27.3519838 C55.8640547,27.341838 55.8424735,27.3309119 55.8208923,27.3215466 L55.8125918,27.3215466 C55.7951608,27.3160835 55.7702594,27.30984 55.7553185,27.3074986 C55.7403777,27.3051573 55.7254368,27.3012551 55.7046856,27.2965725 L55.693895,27.2965725 L55.6739739,27.2926703 L55.6606931,27.2926703 L55.4606516,27.2926703 L55.344445,27.2926703 L51.6241721,27.2926703 C51.2996235,27.3020355 50.9775651,27.3106204 50.6355855,27.3106204 L50.5525807,27.3106204 C50.3077167,27.30984 50.0487419,27.3012551 49.8096882,27.2926703 L37.0535181,27.2926703 L36.9564025,27.2926703 L36.9281809,27.2926703 C36.8584569,27.295792 36.7538709,27.3004747 36.6592455,27.3004747 L36.6210633,27.3004747 C36.4600341,27.2981333 36.299835,27.2950116 36.1388057,27.2903289 L36.0010178,27.2864267 L35.2539751,27.2864267 C33.4477917,27.2864267 31.6631896,27.283305 29.2892537,27.2786223 L28.1396379,27.2786223 L28.0674238,27.2786223 L26.4438508,27.2739397 L24.4434363,27.2739397 C24.280747,27.2895485 24.0923262,27.3090595 23.8507824,27.3371554 C23.6548912,27.3597882 23.4614901,27.3816405 23.2697492,27.4011516 L23.2597886,27.4112973 L23.2398674,27.4292474 L23.2207764,27.4425149 L23.2124759,27.4487585 C23.2084725,27.4520259 23.2048548,27.4556891 23.2016853,27.4596846 L23.197535,27.4643673 L23.1925547,27.4706108 C23.1826559,27.4803245 23.1721214,27.4894474 23.1610129,27.4979263 L23.145242,27.508072 L23.1369416,27.5135351 L23.1286411,27.5189982 L23.1211707,27.5236808 L23.1112101,27.5314852 C23.0946113,27.5452394 23.0788173,27.559829 23.0638974,27.5751899 L23.0539368,27.5861161 C23.040656,27.5993836 23.0273753,27.6118707 23.0149246,27.6251382 L22.9925133,27.6462101 L22.9784025,27.6610384 L22.9593114,27.679769 L22.9485208,27.6899148 C22.9244494,27.7211324 22.9020381,27.75235 22.8754766,27.7898112 L22.8148831,27.8795619 L22.7974521,27.9060969 L22.7883216,27.925608 L22.7791911,27.9427777 L22.7791911,27.9537038 L22.7791911,27.9638496 C22.7758709,27.9739953 22.7708906,27.984141 22.7708906,27.9950672 L22.7708906,28.0028716 L22.7708906,28.0137978 C22.7677952,28.0275119 22.763916,28.0410592 22.7592699,28.0543807 C22.7493094,28.0871593 22.7376887,28.1183769 22.725238,28.150375 C22.7194277,28.1659838 22.7136173,28.1815926 22.708637,28.1979819 L22.7036568,28.2151516 C22.700124,28.2243018 22.6973489,28.2336951 22.6953563,28.2432475 C22.6873099,28.2737969 22.6814861,28.3048262 22.6779253,28.33612 C22.6712849,28.355631 22.6712849,28.375142 22.6712849,28.394653 L22.6712849,28.4141641 C22.6701086,28.4314502 22.6664796,28.4485109 22.6604943,28.4648927 L22.6497037,28.4961104 L22.6497037,28.5031344 C22.6434444,28.5174866 22.6387175,28.5323882 22.6355929,28.5476195 L22.6281224,28.6162983 L22.6131816,28.7598995 C22.6106914,28.7778496 22.6065412,28.7957998 22.6065412,28.8145303 L22.6065412,28.826237 L22.6065412,28.8371631 L22.6065412,28.8473089 C22.6065412,28.8824287 22.6065412,28.9230116 22.6065412,28.9604728 C22.6065412,28.9768621 22.5957506,28.9932513 22.58496,28.9932513 L22.58496,31.0793703 C22.603018,31.2400866 22.6113319,31.401639 22.6098614,31.5632438 L22.6098614,31.6225573 C22.6106914,31.7396235 22.6065412,31.8512265 22.6015609,31.9807797 L22.6015609,31.9963886 L22.5965806,32.110333 C22.5965806,32.1595007 22.5965806,32.2086685 22.5965806,32.2586168 C22.5949205,32.3366609 22.5940905,32.414705 22.5882802,32.4927491 L22.5882802,33.3044078 C22.6140374,33.395966 22.6140374,33.4922475 22.5882802,33.5838057 L22.5882802,33.764868 C22.5883319,33.7767596 22.5854928,33.788505 22.5799797,33.7992074 L22.5799797,33.8241815 C22.5787653,33.8474403 22.5762719,33.8706244 22.5725092,33.8936408 C22.5687992,33.9144464 22.5638106,33.9350325 22.5575684,33.9552956 C22.5506429,33.9762845 22.5417543,33.9966555 22.5310069,34.01617 C22.527955,34.0230772 22.524055,34.0296253 22.5193862,34.0356811 L22.5110857,34.0473877 L22.4895045,34.0747031 L22.4795439,34.0848489 C22.4807467,34.0950564 22.4787259,34.105371 22.4737336,34.1145056 C22.4724118,34.1235471 22.468702,34.1321332 22.462943,34.1394797 L22.4421918,34.1683561 C22.4264209,34.1886475 22.4098199,34.2081585 22.394049,34.2276696 L22.3799382,34.2440588 L22.3708077,34.2588872 L22.3708077,34.2651307 C22.3688716,34.2692995 22.3647991,34.272245 22.3600171,34.2729352 L22.3193448,34.3189812 C22.2612414,34.380636 22.2047982,34.4360473 22.1475249,34.486776 C22.016091,34.6035716 21.8729307,34.7081188 21.7200505,34.7989524 C21.5696601,34.8870482 21.4110132,34.9620228 21.2460933,35.022939 C21.0768057,35.0870733 20.9010457,35.1349244 20.7215033,35.1657597 C20.5281458,35.1988437 20.3320227,35.2155601 20.1354898,35.215708 L20.0815367,35.215708 C19.6611055,35.2099014 19.244917,35.1357045 18.8514063,34.996404 C18.7534607,34.9612842 18.6571751,34.923823 18.5650399,34.8832401 C18.5185572,34.8629486 18.4729046,34.8410963 18.427252,34.8184635 L18.4114811,34.8106591 L18.3658285,34.7872458 L18.3459073,34.7778805 C18.3423804,34.7765093 18.3392509,34.7743693 18.3367768,34.771637 C18.1864,34.6902377 18.0434234,34.59731 17.9093023,34.4938 C17.7851815,34.3931221 17.6679136,34.2852085 17.5581922,34.1706974 C17.5528812,34.1616479 17.5467728,34.1530329 17.5399312,34.1449428 L17.5399312,34.1402602 L17.51918,34.1020186 C17.5000889,34.0676792 17.4801678,34.0333397 17.4619067,33.9990003 L17.4536063,33.9631001 C17.4527437,33.9524494 17.4527437,33.9417526 17.4536063,33.931102 C17.4526671,33.924367 17.4526671,33.9175455 17.4536063,33.9108105 C17.4366258,33.8912139 17.4275172,33.866626 17.4278748,33.8413512 C17.4278748,33.7992074 17.4278748,33.7609658 17.4278748,33.7211633 L17.4278748,33.6399975 L17.4228945,33.5775622 C17.4220685,33.564306 17.4220685,33.5510158 17.4228945,33.5377597 L17.4228945,33.5229313 C17.420068,33.509009 17.420068,33.4947097 17.4228945,33.4807875 L17.4228945,33.460496 C17.4228945,33.3520147 17.4228945,33.2427529 17.4228945,33.1319303 L17.4228945,33.0374969 L17.4228945,32.6956638 C17.4270447,32.5052361 17.4270447,32.3140281 17.4270447,32.1236005 C17.4331318,31.6818708 17.4361753,31.2396209 17.4361753,30.7968506 L17.4361753,30.5752054 L17.4361753,30.4495544 L17.4361753,30.2372744 L17.4361753,30.077284 L17.4361753,30.0484077 C17.4394955,29.8345668 17.4411555,29.6209861 17.4411555,29.4076655 L17.4411555,29.3756675 L17.448626,28.2276387 L17.448626,27.9997499 C17.448626,27.792933 17.448626,27.5845552 17.448626,27.375397 L17.448626,26.5848102 C17.4482489,26.5816985 17.4482489,26.5785566 17.448626,26.5754449 L17.448626,26.5684209 C17.4473818,26.5489275 17.4473818,26.5293814 17.448626,26.5098879 C17.4519462,26.4810115 17.4560964,26.4505743 17.4627368,26.4146741 L17.4627368,26.4076501 C17.4652269,26.3210211 17.4685471,26.2343922 17.4735274,26.1485437 C17.4689693,25.9967176 17.474236,25.8447714 17.4892983,25.6935465 C17.4905941,25.6571466 17.4947557,25.620887 17.501749,25.5850652 L17.501749,25.5678955 L17.501749,25.5538476 C17.5034091,25.5413605 17.5075593,25.5296539 17.5075593,25.5171668 C17.5314331,25.3697422 17.5646948,25.2237976 17.6071651,25.0801198 C17.6627785,24.8887194 17.7361024,24.702263 17.8262976,24.5228849 C18.0034523,24.1506964 18.2465113,23.8094803 18.5451187,23.5137746 C18.8330093,23.2365323 19.1620787,22.9999454 19.5220847,22.8113777 C19.6117298,22.7629903 19.6997148,22.720066 19.78936,22.6794831 L19.9238276,22.62095 L19.9445788,22.6123652 L19.9918915,22.5928542 L20.0192831,22.581928 C20.0332179,22.5754649 20.0476453,22.5699867 20.0624456,22.5655387 L20.0989677,22.5514908 L20.1080982,22.5514908 L20.1180588,22.5452472 C20.1363198,22.5343211 20.1545809,22.5226145 20.1728419,22.5124687 C20.2129435,22.4856597 20.255434,22.4621591 20.2998392,22.442229 L20.349642,22.4188158 L20.4475876,22.3954026 L20.5455332,22.3719893 L20.5546638,22.3719893 L20.5654544,22.3719893 L20.5994863,22.3641849 C20.6683803,22.3477957 20.7381043,22.3314064 20.8069982,22.316578 L20.9124142,22.2931648 L20.9323354,22.2884821 L21.0062096,22.2713124 C21.0676331,22.2580449 21.1315468,22.2478992 21.1904801,22.2393143 C21.3158173,22.2252664 21.4212334,22.2112185 21.5224992,22.1948292 C21.5664917,22.1878052 21.6096541,22.1784399 21.659457,22.1675138 L21.6727377,22.1675138 C22.1359043,22.1675138 22.5996241,22.1675138 23.0638974,22.1675138 L23.2431876,22.1675138 L23.3452835,22.1675138 L23.6773025,22.1675138 L24.4243452,22.1675138 L27.6366291,22.1620507 L27.6615305,22.1620507 L29.312495,22.1620507 L29.3880293,22.1620507 L31.0381638,22.1620507 L32.3944614,22.1620507 L34.396536,22.1620507 L37.1232421,22.1620507 L44.669204,22.1620507 L51.1253135,22.1620507 C51.3502564,22.1534658 51.571049,22.1487832 51.8582455,22.1487832 L51.9180089,22.1487832 Z M22.402942,29.1657288 L22.4051642,29.1657288 C22.4118309,29.1914834 22.4184975,29.2180184 22.4240531,29.2437729 L22.4240531,29.070515 C22.4173864,29.1025131 22.4096086,29.1345112 22.402942,29.1657288 Z M57.0612684,33.585742 L57.0568239,33.585742 C57.0742446,33.5907044 57.0899903,33.6003055 57.1023795,33.6135198 L57.0723795,33.5412975 L57.0723795,33.5301864 L57.0723795,33.5546309 L57.0612684,33.585742 Z M22.5590435,33.8494064 L22.5623768,33.8482953 C22.5588183,33.8511187 22.5546216,33.8530262 22.5501546,33.8538509 L22.5501546,33.8638509 L22.5501546,33.9127398 L22.5501546,33.8816287 C22.5506368,33.870353 22.5536763,33.8593345 22.5590435,33.8494064 Z M52.6823397,33.6485623 L52.666576,33.668059 C52.676181,33.6682262 52.685699,33.669805 52.6947847,33.6727382 C52.753691,33.6688389 52.8150864,33.6688389 52.8773114,33.6688389 C52.977701,33.6688389 53.0855577,33.6735181 53.1975626,33.6820966 C53.3269906,33.6937946 53.4398253,33.7078322 53.5427039,33.7257691 L53.5692533,33.7304483 L53.5800389,33.7304483 C53.6505606,33.7429262 53.7302086,33.7577437 53.8057082,33.7749007 C53.8136328,33.7749344 53.8214917,33.7762535 53.8289389,33.7788001 C53.9222739,33.8032883 54.0139759,33.8329757 54.1035585,33.8677049 C54.3562963,33.9589535 54.5935746,34.0842634 54.8079455,34.2397013 C54.8643628,34.2833738 54.9207801,34.3309457 54.9805161,34.3847565 L54.9879831,34.3909954 L54.9921314,34.3956746 C55.0651032,34.4643512 55.1327553,34.5378462 55.1945701,34.615597 C55.2047364,34.6219607 55.2137082,34.6298669 55.2211194,34.638993 C55.2261633,34.6419293 55.2308875,34.6453251 55.2352237,34.6491313 C55.2426907,34.6584897 55.2509874,34.6686279 55.2584544,34.6795461 L55.2667511,34.6896843 L55.2667511,34.6959233 L55.2916411,34.7294575 C55.3132124,34.7590925 55.3339541,34.7895072 55.3546957,34.819922 C55.3985015,34.8844236 55.4381211,34.9513541 55.473338,35.0203478 C55.5244152,35.1172544 55.5698376,35.2167048 55.6094034,35.3182568 C55.630145,35.3517911 55.650057,35.3853254 55.6707987,35.422759 L55.6707987,35.4422556 L55.6707987,35.4523939 L55.6707987,35.4679912 L55.6757767,35.4843684 C55.7243155,35.6347261 55.7609213,35.7882612 55.7852927,35.9437099 C55.7911003,35.9811435 55.7960783,36.0154576 55.8010563,36.0489919 C55.7960783,36.0653691 55.7960783,36.0817463 55.7960783,36.095004 C55.7836333,36.1800095 55.769529,36.2813921 55.759573,36.387454 L55.759573,36.4007117 L55.759573,36.41085 L55.759573,36.4202084 C55.752106,36.4638809 55.7462983,36.5075535 55.74215,36.5535656 L55.734683,36.5777415 L55.734683,36.58632 L55.712282,36.6643067 C55.6940294,36.7282557 55.6732877,36.8062424 55.660013,36.8842291 L55.652546,36.902166 L55.6434197,36.9224425 L55.6342934,36.9411593 L55.6044254,37.0058883 L55.56792,37.0511205 C55.550497,37.0745165 55.5322444,37.0971327 55.5139917,37.1197488 C55.495739,37.1423649 55.4749974,37.17122 55.4617227,37.1907167 C55.448448,37.2102133 55.4351734,37.22971 55.4202394,37.2484268 L55.4094537,37.2609047 L55.3878824,37.2874201 C55.3688001,37.3084765 55.3497177,37.3303128 55.3298057,37.3513692 L55.2874927,37.3981612 L55.2393721,37.4488525 C55.2109164,37.4765029 55.1848384,37.506231 55.1613834,37.5377573 C55.1517623,37.5518873 55.1447497,37.5674436 55.1406418,37.5837695 L55.1157518,37.6126245 L55.0012578,37.7179065 C54.9506481,37.7779563 54.9025274,37.8302073 54.8535771,37.878559 L54.7988191,37.9323698 L54.7780775,37.9573256 C54.7671022,37.9690759 54.7554705,37.9802698 54.7432315,37.9908598 L54.7291271,38.0041176 L54.6942811,38.0360921 L54.6818361,38.04857 L54.6561165,38.0735257 C54.5150732,38.2139017 54.3383542,38.3893717 54.1583165,38.5547034 C54.0728609,38.6326901 53.9840866,38.7106768 53.8845266,38.7886634 L52.5529117,40.0231923 L51.0113912,41.4526879 L49.4806564,42.8720452 L48.2834476,43.9817954 L48.2510906,44.0122102 L48.2120962,44.0480841 C46.2880995,45.8347586 44.552437,47.4444034 42.8192636,49.0454696 L42.5877866,49.2599329 L42.5770009,49.2692913 L42.5687042,49.2778699 C41.6427964,50.1294842 40.5003455,51.1901029 39.4026966,52.1930114 L38.2818171,53.2161964 L38.0503401,53.4275403 C37.3459532,54.067031 36.6241433,54.7260183 35.9139487,55.3772069 C35.3243323,55.9184344 34.7333332,56.458882 34.1409513,56.9985497 C33.6572556,57.4391743 33.1669227,57.8790191 32.6923534,58.3048263 L32.6857161,58.3102854 L32.4434535,58.5278682 L31.7896762,59.113548 L31.0603993,59.7662964 C30.3148056,60.4551786 29.5703181,61.1443208 28.8269369,61.8337229 C28.8226512,61.8380861 28.8166599,61.8406203 28.8103436,61.8407417 C28.8037588,61.8407417 28.7974618,61.838205 28.7929206,61.8337229 C28.7906577,61.8303943 28.7906577,61.8261334 28.7929206,61.8228048 C28.7481186,61.8571189 28.7033166,61.8906532 28.6568552,61.9234076 L28.6145422,61.9538224 L28.6012676,61.9631808 C28.5149823,62.0247902 28.4179113,62.0949782 28.3175216,62.1526884 C28.286824,62.1706253 28.254467,62.1877824 28.2229396,62.2041596 C28.2080056,62.2119582 28.192242,62.2197569 28.1756486,62.2267757 L28.1532476,62.2361341 C28.1346622,62.2442926 28.1155409,62.2513258 28.0960006,62.2571905 C28.074505,62.2636411 28.052176,62.2673141 28.0296273,62.2681086 C27.9972703,62.2821462 27.963254,62.2961838 27.9300673,62.3086617 L27.9076663,62.3172402 L27.89854,62.3172402 L27.84876,62.3351772 L27.8321667,62.342196 C27.7798977,62.3648121 27.726799,62.3835289 27.6761894,62.4014658 C27.6343419,62.4176027 27.5910212,62.4301321 27.5467614,62.4388994 L27.5318274,62.4388994 C27.5107342,62.4429569 27.4894011,62.4458216 27.467943,62.447478 L27.4472014,62.447478 C27.2707273,62.5078227 27.0866599,62.5463588 26.8996215,62.5621184 C26.8415448,62.5691372 26.7826385,62.5691372 26.7237321,62.5691372 C26.6789301,62.5691372 26.6341281,62.5652378 26.5893262,62.5652378 L26.5719032,62.5652378 C26.5497968,62.5664272 26.5276362,62.5664272 26.5055298,62.5652378 C26.4776502,62.562523 26.4499521,62.5583573 26.4225632,62.55276 C26.2433766,62.5346026 26.0680587,62.4914985 25.9023622,62.4248618 L25.8550712,62.4053652 C25.7335674,62.3500699 25.6189317,62.2823309 25.5132486,62.2033797 L25.497485,62.1924616 L25.4659576,62.1690656 C25.4311999,62.1658087 25.3975606,62.1557115 25.3672273,62.1394306 C25.3498043,62.1269528 25.3348703,62.1160346 25.3166176,62.1012172 C25.2954834,62.0839629 25.2755315,62.0654691 25.2568816,62.0458466 L25.2295026,62.0185513 C25.2153983,62.0045137 25.1996347,61.9889164 25.183871,61.9701996 L25.1755743,61.9624009 L25.004663,61.8017484 L24.705983,61.5178769 L24.6893897,61.5014997 C24.6756303,61.496217 24.6623174,61.48996 24.6495657,61.4827829 C24.5890742,61.4461596 24.5333798,61.4029697 24.4836324,61.3541049 L24.4562534,61.3299291 L24.2903201,61.1801947 C24.1758261,61.073093 24.0616087,60.967551 23.9476678,60.8635688 L23.6158012,60.5516221 L23.2839345,60.2396755 C22.9338153,59.9136912 22.5839725,59.5869271 22.2344063,59.2593831 L21.9025397,58.9474364 C21.331176,58.411928 20.7617482,57.8790191 20.1942563,57.3487098 L20.1112896,57.2707232 L20.0814216,57.2434278 L20.0266636,57.1927365 C19.3604413,56.5735224 18.3540558,55.6384623 17.4331259,54.7689109 C17.0564573,54.4127718 16.6800652,54.0566327 16.3039497,53.7004936 L16.0475827,53.4579551 L15.5282115,52.9658592 L15.2710148,52.7225409 L15.2627182,52.7155221 L14.9532525,52.4238519 L14.8503739,52.3263686 L14.7109899,52.195351 L14.6197266,52.1095657 L14.1750253,51.6915571 L14.0729763,51.5956335 L14.0505753,51.5745771 L14.033982,51.5581999 L14.0124107,51.5387033 L14.0049437,51.5316845 C13.916999,51.4482387 13.7958677,51.3343782 13.685522,51.2251969 L13.608363,51.1472102 L13.598407,51.137072 C13.5693687,51.107437 13.5395007,51.0778021 13.5096327,51.048947 C13.4955284,51.0341296 13.4805944,51.0208718 13.4656604,51.0068342 C13.4316441,50.9795389 13.4067541,50.9545832 13.3826937,50.9288476 C13.3658019,50.9218168 13.3503564,50.9120499 13.3370621,50.8999925 C13.3247304,50.8897654 13.3143485,50.8776328 13.3063644,50.8641186 C13.2988974,50.8547602 13.2922601,50.844622 13.2823041,50.8305844 L13.2673701,50.8079682 L13.2565844,50.7923709 L13.2507767,50.7869118 C13.2209268,50.7647178 13.1984689,50.7349474 13.1860628,50.7011265 L13.1620024,50.6738312 C13.1371124,50.645756 13.1130521,50.6176808 13.0898214,50.5880458 L13.0740578,50.5677693 C13.0624424,50.552172 13.0475084,50.5326753 13.0392118,50.5201974 C13.0309151,50.5077196 13.0226184,50.4952417 13.0151514,50.4827638 C13.0040165,50.4636665 12.9943134,50.4438617 12.9861131,50.423494 L12.9695198,50.4008778 C12.7826068,50.2025898 12.6159401,49.9882231 12.4717198,49.7606073 C12.1527852,49.2505629 11.9546885,48.6818361 11.8909532,48.0932524 C11.8596553,47.7868625 11.8744584,47.4778552 11.9349256,47.1753494 C11.9943266,46.8845945 12.0977006,46.6033294 12.2419022,46.3401122 C12.3106455,46.2158319 12.3885474,46.0962207 12.4750385,45.9821534 C12.5531822,45.8760387 12.639124,45.77519 12.7322351,45.680345 C12.8243281,45.5844214 12.8981685,45.5134535 12.9811351,45.446385 C12.9935985,45.42358 13.0098416,45.4027837 13.0292558,45.3847755 C13.0516568,45.3598198 13.0757171,45.3372037 13.1014368,45.3130278 L13.1147114,45.2997701 L13.2358427,45.160174 L13.3636114,45.0408544 L13.4930394,44.9191952 C14.6802922,43.8110046 15.9131768,42.6622611 17.2638739,41.4097952 L18.5681098,40.1978825 L21.1400761,37.8091509 C21.7761538,37.218012 22.4136143,36.6276529 23.0524576,36.0380738 L23.4183405,35.6996116 L24.0281455,35.1365479 C24.1891008,34.9888932 24.3503326,34.8396787 24.5118411,34.6889045 L24.760741,34.4627431 L24.8163287,34.4112719 C24.8718983,34.3563139 24.9306153,34.3042454 24.992218,34.2552986 C25.0212945,34.2260658 25.0603277,34.2073069 25.1025637,34.2022677 C25.1240935,34.1910209 25.1462498,34.180868 25.168937,34.1718529 C25.1731136,34.1412592 25.1921018,34.1141987 25.2203763,34.0985454 C25.266038,34.0729309 25.3140793,34.0512657 25.3639086,34.0338165 L25.3896283,34.0236782 C25.4418973,34.0026218 25.4933366,33.9831251 25.5464353,33.9644083 L25.5539023,33.9644083 L25.5621989,33.9644083 L25.5821109,33.9566097 C25.5904694,33.9534216 25.5990658,33.9508151 25.6078306,33.948811 L25.6161273,33.948811 C25.6841599,33.925415 25.7480443,33.9059183 25.8110989,33.8879814 L25.8185659,33.8879814 C25.9510332,33.8516045 26.0860452,33.8239818 26.2226135,33.8053155 L26.2325695,33.8014162 C26.3014319,33.7904981 26.3719535,33.7826994 26.4549202,33.7772403 C26.5113375,33.7772403 26.5660955,33.7772403 26.6208535,33.7772403 L26.6639961,33.7772403 C26.7087981,33.7772403 26.7552595,33.7834793 26.8075285,33.7834793 L26.8257811,33.7834793 L26.8498415,33.7834793 C26.9054994,33.787032 26.960899,33.7935413 27.0157748,33.8029759 L27.0473021,33.8076551 C27.1095271,33.8162337 27.1700928,33.8279317 27.2265101,33.8396297 C27.2361237,33.8403007 27.245605,33.8421356 27.2547187,33.8450887 C27.3686444,33.8708939 27.479751,33.9066637 27.5865854,33.9519305 L27.597371,33.9519305 L27.6040084,33.9519305 C27.6123855,33.9545049 27.6204503,33.9579032 27.6280687,33.9620687 C27.6737004,33.9800057 27.719332,33.9995023 27.7633043,34.0197789 C27.7759888,34.0220998 27.7879212,34.0271737 27.7981503,34.0345963 C27.8502528,34.0591915 27.9006826,34.0867998 27.9491497,34.1172622 C27.9864847,34.1398783 28.0238196,34.1624945 28.060325,34.1858905 C28.1532476,34.2443805 28.247,34.3098893 28.3399226,34.3792974 C28.4329081,34.4485081 28.5215541,34.5227195 28.6054159,34.6015594 C28.6860413,34.6799639 28.7616725,34.7627738 28.8319149,34.849557 C29.0040496,35.0601151 29.1349638,35.2977773 29.2185395,35.551437 C29.3089382,35.8173963 29.3416641,36.0976982 29.3147808,36.375756 C29.3024664,36.5166332 29.2746625,36.6559326 29.2318142,36.7914249 C29.1861806,36.9357326 29.1197435,37.0734883 29.0343535,37.2008549 C28.9925233,37.2635621 28.945059,37.3227882 28.8924805,37.3778847 C28.8940238,37.4315713 28.8724908,37.4835782 28.8327446,37.52216 C28.7066352,37.6430393 28.5780369,37.7631388 28.4469496,37.8840181 L28.4137629,37.9152128 C28.3366039,37.9861806 28.2602746,38.0571485 28.1839453,38.1296761 L27.9350453,38.3636361 L27.811425,38.4806161 L27.6255797,38.6545264 L27.4430531,38.8268769 L27.2945427,38.9711522 L27.2115761,39.0491389 C26.7602375,39.4733863 26.2947945,39.9101117 25.8310109,40.3499565 C25.2126328,40.9353764 24.5953608,41.5218361 23.9791951,42.1093356 L23.8132618,42.265309 C23.3403519,42.715292 22.8574859,43.1754133 22.394532,43.6144783 C21.931578,44.0535432 21.4686241,44.4910484 21.0015218,44.9324529 L20.5866885,45.3223862 L20.2498439,45.6413517 L19.9934769,45.8862298 L19.652484,46.2106543 C19.5114407,46.3458312 19.3695677,46.4807481 19.226865,46.6154051 L19.0468274,46.7869758 L19.0410197,46.791655 L19.0360417,46.7971141 L19.0252561,46.8072523 L19.0136407,46.8181705 L18.9912397,46.8392268 L18.9738167,46.8563839 C18.9422667,46.8888502 18.9087476,46.9195762 18.8734271,46.9484082 L18.8037351,47.0115774 L18.7888011,47.0248351 L18.7788451,47.0341935 C18.7597628,47.0521304 18.7298948,47.0809855 18.7025158,47.1121802 L18.6319941,47.1901668 L18.6154008,47.2104434 C18.5413669,47.3036354 18.4777022,47.4037226 18.4254071,47.5091323 C18.4121325,47.5442263 18.3980281,47.5793203 18.3847535,47.615974 L18.3698195,47.6534076 L18.3640118,47.6682251 C18.3465888,47.7142372 18.3275065,47.762589 18.3134021,47.8132803 L18.2992978,47.861632 L18.2992978,47.867871 C18.2992978,47.9240214 18.2992978,47.9809516 18.2992978,48.0386618 C18.3015496,48.1465947 18.3095799,48.2543526 18.3233581,48.3615265 C18.3374795,48.4601527 18.3605169,48.5574682 18.3922205,48.6524168 L18.4096435,48.7015484 L18.4096435,48.7085672 L18.4262368,48.7374223 C18.4453191,48.7732961 18.4652311,48.80917 18.4851431,48.8450439 L18.4959288,48.8645405 C18.5216484,48.9113325 18.5473681,48.9573447 18.5722581,49.0041367 L18.6095931,49.0758844 L18.6303348,49.1148777 C18.9124214,49.3810722 19.1953377,49.6467468 19.4790837,49.9119014 L20.2614592,50.6410768 L20.3892279,50.7588366 L20.4937659,50.8625589 C20.8333761,51.1786648 21.1721566,51.4945108 21.5101074,51.8100969 L22.1165937,52.3793995 L22.426889,52.6702898 L22.7936016,53.014211 L23.5792958,53.7527447 L25.0585913,55.1385677 L25.318277,55.3811063 L25.3274033,55.3896848 L25.3323813,55.394364 L25.5812813,55.628324 L25.5887483,55.6345629 L26.5561395,56.540768 L26.5710735,56.5540257 L26.8830281,56.8488153 L26.9079181,56.8246394 L26.9701431,56.7677092 L27.3020097,56.4557625 L27.6338764,56.1438158 L28.6087346,55.2438497 L28.9961889,54.8843312 L30.0847114,53.8705046 L30.4995447,53.4805712 L30.802373,53.1998192 L31.7274512,52.3419659 C33.8657785,50.3507064 36.0074245,48.3625664 38.1523891,46.3775458 L38.650189,45.9096258 C40.9317721,43.7925478 43.2133552,41.6762497 45.4949382,39.5607314 L47.110299,38.0626076 L48.7513795,36.5356287 L48.7895442,36.5013145 L48.8310275,36.4623212 C49.2831958,36.0435328 49.7278971,35.6325431 50.190851,35.2067359 L50.8122713,34.638993 L50.8952379,34.5610063 C50.9798639,34.4830197 51.0686382,34.405033 51.1516049,34.3270463 L51.2088519,34.2755751 L51.2992855,34.1975885 L51.3125602,34.1866703 C51.3241755,34.1757522 51.3357909,34.1656139 51.3474062,34.1562555 L51.3664885,34.1406582 C51.3822522,34.1281803 51.3971862,34.1149226 51.4112905,34.1016649 L51.4195872,34.0946461 L51.4552629,34.0634514 C51.4666718,34.0535282 51.4798781,34.0456046 51.4942572,34.0400554 C51.5100208,34.0283574 51.5257845,34.0166594 51.5432075,34.0057413 L51.5573118,33.995603 L51.5664382,33.9901439 L51.6004545,33.9675278 L51.6070918,33.9636285 L51.6145588,33.9589493 C51.6494048,33.9339935 51.6925475,33.9090378 51.7323715,33.8848619 C51.7520354,33.8733549 51.7725534,33.8631905 51.7937668,33.8544471 C51.8057361,33.8482951 51.8182231,33.8430784 51.8311018,33.8388498 L51.8452061,33.8326109 C51.8800521,33.8185733 51.9165575,33.8076551 51.9514035,33.796737 L51.9605298,33.796737 L51.9804418,33.7904981 C52.0161175,33.7803598 52.0509635,33.7694417 52.0849798,33.7561839 C52.1145605,33.7452415 52.1455097,33.7379031 52.1770728,33.7343477 C52.2052814,33.7234295 52.2326604,33.7140711 52.2600394,33.7047127 C52.2973106,33.6916099 52.335585,33.6811818 52.3745334,33.6735181 C52.4090517,33.6677384 52.444013,33.6646086 52.4790714,33.6641597 L52.5213844,33.6641597 C52.5628677,33.6602603 52.6035214,33.6555811 52.641686,33.6555811 C52.6475377,33.6521662 52.6540051,33.6497874 52.6607684,33.6485623 C52.667904,33.6473819 52.6752041,33.6473819 52.6823397,33.6485623 Z M26.3061197,34.0300539 L26.3061197,34.0356095 L26.3305641,34.0356095 C26.3403912,34.0329222 26.3504264,34.0310639 26.3605641,34.0300539 L26.3238975,34.0300539 L26.3061197,34.0300539 Z M27.3379875,56.767735 L27.3746541,56.7321795 L27.3413208,56.7644017 L27.3379875,56.767735 Z M40.0578773,14.054306 L40.0648317,14.0582039 C40.0949086,14.0510853 40.1258712,14.0474179 40.1569777,14.0472898 C40.218127,14.0476237 40.2780968,14.0624132 40.330838,14.0901665 C40.4103968,14.1299676 40.4682283,14.1973324 40.4907894,14.2764854 C40.4986132,14.3217008 40.5081755,14.3684754 40.5081755,14.4144704 C40.529592,14.4745635 40.5418729,14.5369725 40.5446861,14.6000097 C40.5446861,14.6265153 40.5446861,14.6522413 40.5446861,14.6779673 C40.5490326,14.6888814 40.5490326,14.6997955 40.5490326,14.7107096 C40.5649824,14.8276036 40.5722426,14.9453197 40.5707652,15.0630782 C40.5707652,15.2150956 40.5707652,15.3639948 40.5707652,15.5199101 C40.5707652,15.8551281 40.5707652,16.1942439 40.5707652,16.5333598 C40.5707652,16.9267861 40.5707652,17.3199526 40.5707652,17.7128592 L40.5707652,18.2741544 C40.5698959,18.4402042 40.5777196,18.6085928 40.5638108,18.7738631 C40.5617637,18.8657211 40.5249823,18.954231 40.4594946,19.0248867 L40.4594946,19.0607473 C40.4608118,19.1960666 40.3602242,19.3151694 40.2146182,19.3506982 C40.0690122,19.3862269 39.9150004,19.3292479 39.8396827,19.2119851 C39.8093379,19.1662437 39.7934136,19.1139711 39.7936097,19.0607473 L39.7936097,19.0256663 C39.7302684,18.9537872 39.6945857,18.8654461 39.6919014,18.7738631 C39.6919014,18.6927871 39.6919014,18.6078132 39.6919014,18.5298556 C39.6919014,18.4285106 39.6919014,18.3271656 39.6919014,18.2266002 C39.6962479,18.0402814 39.6962479,17.8539626 39.6962479,17.6676438 C39.7008842,17.273178 39.7055205,16.8787122 39.7101567,16.4842464 C39.7136339,16.1451306 39.7136339,15.8075739 39.7205884,15.4707968 C39.7240656,15.3187793 39.7240656,15.1706598 39.7292814,15.0147444 C39.730088,14.9070258 39.7387998,14.7994717 39.7553604,14.6927793 L39.7605762,14.6561392 C39.7649227,14.6327519 39.7649227,14.608585 39.7649227,14.5859773 C39.7655948,14.5430113 39.7708344,14.5002006 39.7805702,14.4581267 C39.7866635,14.439229 39.7942157,14.4207343 39.803172,14.4027768 L39.8083878,14.3513247 C39.809137,14.3300828 39.8120468,14.3089465 39.8170808,14.288179 L39.8170808,14.2725875 C39.8490724,14.1669745 39.9404603,14.0841315 40.0578773,14.054306 Z M45.056257,16.4751273 L45.0548746,16.4839142 L45.0498414,16.5203673 C45.0373749,16.5655044 45.0154274,16.6079335 44.9852488,16.6452385 L44.9709881,16.6646284 L44.9508554,16.6948767 C44.9357558,16.7165934 44.9206562,16.7390858 44.9047178,16.7608025 L44.8527081,16.8383622 L44.8191535,16.8864493 C44.8121897,16.900209 44.8040551,16.9134357 44.7948264,16.9260047 L44.7906321,16.9329851 L44.7780491,16.9515995 C44.7520443,16.9950329 44.722684,17.0376908 44.6941626,17.079573 L44.6840963,17.0943094 L44.6631246,17.1230065 C44.5339394,17.3068231 44.4332756,17.449533 44.3275786,17.5953453 L44.1933602,17.7799375 C44.0171985,18.023475 43.8401979,18.2670126 43.6623585,18.5105502 C43.5457563,18.6710989 43.4283152,18.8324231 43.3100352,18.9929718 L43.2731251,19.0441612 L43.06257,19.3326834 L43.0566979,19.341215 L43.0231433,19.3877509 C42.9784297,19.4549441 42.9276364,19.5185121 42.8713087,19.5777722 C42.8351895,19.6131146 42.7902605,19.6397431 42.7404458,19.655332 C42.6896528,19.6906237 42.6278208,19.7096799 42.5642841,19.7096238 C42.5617593,19.709442 42.5592408,19.7092351 42.5567288,19.7090033 C42.3831531,19.7186637 42.219986,19.6147484 42.1716167,19.4524533 C42.1426268,19.3614833 42.1562498,19.2633366 42.2091247,19.1822286 C42.2508002,19.1170019 42.2999773,19.0548813 42.3441533,18.9919842 C42.4083336,18.9034623 42.4716803,18.8133874 42.5358606,18.7248655 C42.6953389,18.5038196 42.8559285,18.2830325 43.0176295,18.0625043 C43.103481,17.9405926 43.1943336,17.8256694 43.2776847,17.7076402 C43.5788596,17.291432 43.879479,16.8744473 44.1795426,16.4566861 C44.5029446,16.0078646 44.8246795,15.5582666 45.1497484,15.1109981 C45.3014473,14.9067765 45.4514791,14.6978959 45.6040114,14.4897918 C45.6798609,14.3872928 45.7557103,14.2824642 45.8332267,14.1791887 C45.8699012,14.1302687 45.9057421,14.0805722 45.9432501,14.0324287 L46.018266,13.9276002 C46.0682766,13.8592675 46.1207877,13.7831697 46.1674643,13.7226021 C46.2141409,13.6620345 46.2591504,13.5991373 46.3116615,13.5424523 L46.307494,13.5331342 C46.3726369,13.4698423 46.4634613,13.4351509 46.557547,13.4376237 C46.5893016,13.437647 46.6209332,13.441298 46.6517337,13.4484948 C46.7407635,13.4728444 46.8161069,13.5285513 46.8617782,13.6037964 C46.9098816,13.6802208 46.9228064,13.7715075 46.8976192,13.8569379 C46.8890206,13.8840543 46.8769891,13.9101212 46.8617782,13.9345887 C46.8253634,13.9967373 46.7847161,14.0566509 46.7400858,14.113962 C46.6892416,14.1854008 46.6383975,14.2568395 46.5858864,14.3282782 L46.5658821,14.357009 L46.5617146,14.3624445 C46.5017019,14.4501899 46.4400221,14.5379353 46.3791759,14.6249042 C46.2185863,14.8500914 46.0579966,15.0750199 45.897407,15.2996895 C45.6170237,15.6915021 45.3366403,16.0833147 45.056257,16.4751273 Z M36.2535772,16.844375 L36.2535772,16.8467374 C36.3455682,16.8230322 36.4438201,16.8352384 36.526139,16.8805989 C36.5523729,16.8949111 36.5763032,16.9126773 36.5972057,16.9333599 C36.6649281,17.0056749 36.723822,17.0849183 36.7727824,17.1696032 C36.853046,17.2916622 36.9324735,17.4145087 37.011901,17.5365677 C37.166297,17.7728109 37.3204142,18.0090542 37.4742528,18.2452974 L37.6924695,18.5784004 C37.698322,18.5878501 37.7050107,18.5972999 37.7116993,18.6067496 C37.7953072,18.731171 37.8847677,18.8461427 37.9683756,18.9674143 C38.0193764,19.0398622 38.0695412,19.1146726 38.1247224,19.1847581 C38.1786164,19.2522377 38.2285762,19.3224268 38.2743806,19.3950146 C38.3059238,19.4456327 38.3242626,19.5025789 38.3278896,19.5611723 C38.3715825,19.6378985 38.3829285,19.7273275 38.3596606,19.8115901 L38.3554803,19.8210399 C38.3473235,19.8471959 38.3358122,19.8723179 38.321201,19.8958502 C38.2593413,19.9967699 38.1447698,20.0586912 38.0210486,20.0580706 C37.9559126,20.0582611 37.8918803,20.0422327 37.835439,20.0116094 C37.7908684,19.9866142 37.7526323,19.9527509 37.7234044,19.9123873 C37.6641569,19.8796692 37.6146811,19.8333403 37.5795988,19.7777286 C37.5269258,19.6989809 37.4851218,19.6202331 37.4391375,19.5414854 C37.3192995,19.3320164 37.1958384,19.1243848 37.0687544,18.9185907 L37.0612297,18.907566 L36.853046,18.5878501 L36.3706283,17.8484088 C36.2914795,17.7276622 36.2126093,17.6061282 36.1340179,17.4838067 C36.0822031,17.4121328 36.0395469,17.3349516 36.0069338,17.2538633 C35.956579,17.0768255 36.0664016,16.8944931 36.2535772,16.844375 Z" id="Combined-Shape" fill="url(#linearGradient-1)"></path>
            </g>
            <g id="Text" transform="translate(72.120000, 27.000000)">
                <rect id="Bg" fill-opacity="0.01" fill="#FFFFFF" x="0" y="0" width="99.8888889" height="34.9206349"></rect>
                <path d="M3.96825397,8.47286226 L7.16617964,8.47286226 L7.16617964,16.2416795 L7.24232073,16.2416795 L14.754908,8.47286226 L19.0695696,8.47286226 L10.6686697,16.7748336 L19.6279376,26.4477727 L15.1356135,26.4477727 L7.24232073,17.4349292 L7.16617964,17.4349292 L7.16617964,26.4477727 L3.96825397,26.4477727 L3.96825397,8.47286226 Z M21.4553237,8.47286226 L24.6532494,8.47286226 L24.6532494,23.604284 L32.2927385,23.604284 L32.2927385,26.4477727 L21.4553237,26.4477727 L21.4553237,8.47286226 Z M32.8003457,17.4095409 C32.8003457,15.9708638 33.0414568,14.6718426 33.5236861,13.5124381 C34.0059153,12.3530337 34.6742582,11.3671316 35.5287347,10.5547022 C36.3832112,9.74227278 37.3984155,9.11603452 38.5743782,8.6759686 C39.7503409,8.23590268 41.0320363,8.01587302 42.4195031,8.01587302 C43.8238902,8.01587302 45.1182757,8.23590268 46.3026985,8.6759686 C47.4871214,9.11603452 48.5107858,9.74227278 49.3737224,10.5547022 C50.236659,11.3671316 50.9092319,12.3530337 51.3914612,13.5124381 C51.8736905,14.6718426 52.1148016,15.9708638 52.1148016,17.4095409 C52.1148016,18.8143667 51.8736905,20.0964626 51.3914612,21.255867 C50.9092319,22.4152715 50.236659,23.4138676 49.3737224,24.2516854 C48.5107858,25.0895033 47.4871214,25.7411295 46.3026985,26.2065839 C45.1182757,26.6720382 43.8238902,26.9047619 42.4195031,26.9047619 C41.0320363,26.9047619 39.7503409,26.6720382 38.5743782,26.2065839 C37.3984155,25.7411295 36.3832112,25.0895033 35.5287347,24.2516854 C34.6742582,23.4138676 34.0059153,22.4152715 33.5236861,21.255867 C33.0414568,20.0964626 32.8003457,18.8143667 32.8003457,17.4095409 Z M36.2774554,17.4095409 C36.2774554,18.3743008 36.425506,19.2586508 36.7216117,20.0626173 C37.0177174,20.8665839 37.4407192,21.564755 37.9906298,22.1571514 C38.5405404,22.7495478 39.1919632,23.2107638 39.9449178,23.5408133 C40.6978723,23.8708627 41.5311858,24.035885 42.4448835,24.035885 C43.3585811,24.035885 44.1961247,23.8708627 44.9575393,23.5408133 C45.718954,23.2107638 46.3746068,22.7495478 46.9245174,22.1571514 C47.474428,21.564755 47.8974298,20.8665839 48.1935356,20.0626173 C48.4896413,19.2586508 48.6376919,18.3743008 48.6376919,17.4095409 C48.6376919,16.4786322 48.4896413,15.6154389 48.1935356,14.8199351 C47.8974298,14.0244314 47.4786581,13.3304917 46.9372076,12.7380952 C46.3957572,12.1456988 45.7443344,11.6802515 44.9829197,11.3417392 C44.221505,11.003227 43.3755014,10.8339734 42.4448835,10.8339734 C41.5142655,10.8339734 40.6724919,11.003227 39.9195374,11.3417392 C39.1665829,11.6802515 38.5193901,12.1456988 37.9779397,12.7380952 C37.4364892,13.3304917 37.0177174,14.0244314 36.7216117,14.8199351 C36.425506,15.6154389 36.2774554,16.4786322 36.2774554,17.4095409 Z M69.5257302,19.8468169 C69.5257302,20.9300561 69.3396094,21.9074955 68.9673622,22.7791645 C68.595115,23.6508336 68.0875129,24.391318 67.4445405,25.00064 C66.8015681,25.6099621 66.0401648,26.0796408 65.1603079,26.4096902 C64.2804509,26.7397397 63.3244668,26.9047619 62.2923269,26.9047619 C61.260187,26.9047619 60.3042029,26.7397397 59.4243459,26.4096902 C58.544489,26.0796408 57.7788557,25.6099621 57.1274231,25.00064 C56.4759906,24.391318 55.9683884,23.6508336 55.6046014,22.7791645 C55.2408144,21.9074955 55.0589236,20.9300561 55.0589236,19.8468169 L55.0589236,8.47286226 L58.2568493,8.47286226 L58.2568493,19.7198754 C58.2568493,20.2445694 58.3245296,20.7650242 58.4598922,21.2812553 C58.5952548,21.7974865 58.8194457,22.2587025 59.1324718,22.6649172 C59.4454978,23.0711319 59.8600396,23.4011764 60.3761095,23.6550606 C60.8921795,23.9089448 61.5309122,24.035885 62.2923269,24.035885 C63.0537416,24.035885 63.6924743,23.9089448 64.2085443,23.6550606 C64.7246142,23.4011764 65.139156,23.0711319 65.452182,22.6649172 C65.7652081,22.2587025 65.989399,21.7974865 66.1247616,21.2812553 C66.2601242,20.7650242 66.3278045,20.2445694 66.3278045,19.7198754 L66.3278045,8.47286226 L69.5257302,8.47286226 L69.5257302,19.8468169 Z M73.3327846,8.47286226 L79.7032555,8.47286226 C80.8707581,8.47286226 82.0467031,8.62519049 83.2311259,8.92985151 C84.4155488,9.23451253 85.4815133,9.73804195 86.4290516,10.4404549 C87.3765899,11.1428678 88.1464532,12.0652998 88.7386646,13.2077786 C89.330876,14.3502575 89.6269773,15.7677562 89.6269773,17.4603175 C89.6269773,19.0343994 89.330876,20.3884281 88.7386646,21.5224441 C88.1464532,22.6564601 87.3765899,23.5873548 86.4290516,24.3151562 C85.4815133,25.0429575 84.4155488,25.5803376 83.2311259,25.9273127 C82.0467031,26.2742877 80.8707581,26.4477727 79.7032555,26.4477727 L73.3327846,26.4477727 L73.3327846,8.47286226 Z M79.1956483,23.6550606 C80.0247443,23.6550606 80.8538278,23.5577398 81.6829238,23.3630952 C82.5120198,23.1684507 83.260733,22.8384062 83.9290859,22.3729519 C84.5974388,21.9074975 85.1431111,21.2770279 85.5661193,20.4815242 C85.9891274,19.6860204 86.2006283,18.6789615 86.2006283,17.4603175 C86.2006283,16.1739709 85.9891274,15.1245987 85.5661193,14.3121693 C85.1431111,13.4997399 84.5974388,12.865039 83.9290859,12.4080474 C83.260733,11.9510559 82.5120198,11.6379368 81.6829238,11.4686807 C80.8538278,11.2994245 80.0247443,11.2147977 79.1956483,11.2147977 L76.5307102,11.2147977 L76.5307102,23.6550606 L79.1956483,23.6550606 Z M92.7233815,8.47286226 L95.9213072,8.47286226 L95.9213072,26.4477727 L92.7233815,26.4477727 L92.7233815,8.47286226 Z" id="KLOUDI.TECH" fill="url(#linearGradient-2)"></path>
            </g>
        </g>
    </g>
</svg>