<?xml version="1.0" encoding="UTF-8"?>
<svg width="8px" height="16px" viewBox="0 0 8 16" version="1.1" xmlns="http://www.w3.org/2000/svg" xmlns:xlink="http://www.w3.org/1999/xlink">
    <!-- Generator: Sketch 46.2 (44496) - http://www.bohemiancoding.com/sketch -->
    <title>View More</title>
    <desc>Created with Sketch.</desc>
    <defs></defs>
    <g id="Website-v2" stroke="none" stroke-width="1" fill="none" fill-rule="evenodd">
        <g id="Landing-Page" transform="translate(-1317.000000, -660.000000)" fill-rule="nonzero" fill="#FFFFFF">
            <g id="Header">
                <g id="Content" transform="translate(240.000000, 300.000000)">
                    <g id="Search" transform="translate(0.000000, 336.000000)">
                        <g id="PrimaryButton" transform="translate(911.000000, 3.000000)">
                            <g id="View-More.White" transform="translate(170.000000, 29.000000) rotate(-90.000000) translate(-170.000000, -29.000000) translate(162.000000, 25.000000)">
                                <path d="M7.98623387,8 C7.74059808,8 7.53590158,7.9158227 7.33120508,7.7474681 L0.371524144,1.85505721 C-0.0788081518,1.47625937 -0.119747451,0.802840984 0.248706245,0.381954492 C0.617159942,-0.0810206497 1.27218874,-0.123109299 1.68158173,0.255688544 L7.98623387,5.60094699 L14.3318253,0.255688544 C14.7821576,-0.123109299 15.3962471,-0.0389320005 15.7647008,0.381954492 C16.1331545,0.844929633 16.0512759,1.47625937 15.6418829,1.85505721 L8.68220197,7.7474681 C8.43656617,7.9158227 8.19093037,8 7.98623387,8 Z" id="Shape"></path>
                            </g>
                        </g>
                    </g>
                </g>
            </g>
        </g>
    </g>
</svg>