<?xml version="1.0" encoding="UTF-8"?>
<svg width="8px" height="8px" viewBox="0 0 8 8" version="1.1" xmlns="http://www.w3.org/2000/svg" xmlns:xlink="http://www.w3.org/1999/xlink">
    <!-- Generator: Sketch 52.5 (67469) - http://www.bohemiancoding.com/sketch -->
    <title>Delete</title>
    <desc>Created with Sketch.</desc>
    <g id="Symbol" stroke="none" stroke-width="1" fill="none" fill-rule="evenodd">
        <g id="Delete" transform="translate(-8.000000, -8.000000)" fill="#FFF" fill-rule="nonzero">
            <g id="Shape">
                <g transform="translate(8.000000, 8.000000)">
                    <path d="M3.39417476,6.38105374 L3.39417476,2.11340276 C3.39417476,1.99442282 3.28192922,1.89785938 3.14362668,1.89785938 C3.00532415,1.89785938 2.89307861,1.99442282 2.89307861,2.11340276 L2.89307861,6.38105374 C2.89307861,6.50014145 3.00532415,6.59659711 3.14362668,6.59659711 C3.28192922,6.59659711 3.39417476,6.50014145 3.39417476,6.38105374 Z M5.10679612,6.38105374 L5.10679612,2.11340276 C5.10679612,1.99442282 4.99455058,1.89785938 4.85624804,1.89785938 C4.71794551,1.89785938 4.60569997,1.99442282 4.60569997,2.11340276 L4.60569997,6.38105374 C4.60569997,6.50014145 4.71794551,6.59659711 4.85624804,6.59659711 C4.99455058,6.59659711 5.10679612,6.50014145 5.10679612,6.38105374 Z M6.91512684,1.89785938 C6.7768243,1.89785938 6.66457877,1.99442282 6.66457877,2.11340276 L6.66457877,7.22307392 C6.66457877,7.4138298 6.4844347,7.56891326 6.26307548,7.56891326 L1.73730034,7.56891326 C1.5155653,7.56891326 1.33529596,7.4138298 1.33529596,7.22307392 L1.33529596,2.11340276 C1.33529596,1.99442282 1.22305042,1.89785938 1.08474789,1.89785938 C0.946445349,1.89785938 0.834199812,1.99442282 0.834199812,2.11340276 L0.834199812,7.22307392 C0.834199812,7.65146637 1.23933605,8 1.73730034,8 L6.2629502,8 C6.76066395,8 7.16554964,7.65146637 7.16554964,7.22307392 L7.16554964,2.11340276 C7.16567491,1.99431504 7.05342938,1.89785938 6.91512684,1.89785938 Z M7.74945193,1.10606081 L5.92270592,1.10606081 L5.92270592,0.215543371 C5.92270592,0.0965634304 5.81046038,0 5.67215785,0 L2.32784215,0 C2.18953962,0 2.07729408,0.0965634304 2.07729408,0.215543371 L2.07729408,1.10606081 L0.250548074,1.10606081 C0.112245537,1.10606081 0,1.20262424 0,1.32160418 C0,1.44058412 0.112245537,1.53714755 0.250548074,1.53714755 L7.74945193,1.53714755 C7.88775446,1.53714755 8,1.44058412 8,1.32160418 C8,1.20262424 7.88775446,1.10606081 7.74945193,1.10606081 Z M5.42160977,1.10606081 L2.57839023,1.10606081 L2.57839023,0.431086743 L5.4214845,0.431086743 L5.4214845,1.10606081 L5.42160977,1.10606081 Z"></path>
                </g>
            </g>
        </g>
    </g>
</svg>