<?xml version="1.0" encoding="UTF-8"?>
<svg width="32px" height="32px" viewBox="0 0 32 32" version="1.1" xmlns="http://www.w3.org/2000/svg" xmlns:xlink="http://www.w3.org/1999/xlink">
    <!-- Generator: Sketch 53.2 (72643) - https://sketchapp.com -->
    <title>link</title>
    <desc>Created with Sketch.</desc>
    <g id="link" stroke="none" stroke-width="1" fill="none" fill-rule="evenodd">
        <g fill="#4A4A4A" fill-rule="nonzero" id="Path">
            <path d="M30.7969925,0 L19.8897243,0 C19.5047619,0 19.2481203,0.256641604 19.2481203,0.64160401 C19.2481203,1.02656642 19.5047619,1.28320802 19.8897243,1.28320802 L29.2571429,1.28320802 L13.6661654,16.8741855 C13.4095238,17.1308271 13.4095238,17.5157895 13.6661654,17.7724311 C13.922807,18.0290727 14.3077694,18.0290727 14.564411,17.7724311 L30.1553885,2.18145363 L30.1553885,11.5488722 C30.1553885,11.9338346 30.4120301,12.1904762 30.7969925,12.1904762 C31.1819549,12.1904762 31.4385965,11.9338346 31.4385965,11.5488722 L31.4385965,0.64160401 C31.4385965,0.256641604 31.1819549,0 30.7969925,0 Z"></path>
            <path d="M27.5889724,16.6817043 C27.20401,16.6817043 26.9473684,16.9383459 26.9473684,17.3233083 L26.9473684,30.1553885 L1.28320802,30.1553885 L1.28320802,4.49122807 L14.1152882,4.49122807 C14.5002506,4.49122807 14.7568922,4.23458647 14.7568922,3.84962406 C14.7568922,3.46466165 14.5002506,3.20802005 14.1152882,3.20802005 L0.64160401,3.20802005 C0.256641604,3.20802005 -3.87245791e-13,3.46466165 -3.87245791e-13,3.84962406 L-3.87245791e-13,30.7969925 C-3.87245791e-13,31.1819549 0.256641604,31.4385965 0.64160401,31.4385965 L27.5889724,31.4385965 C27.9739348,31.4385965 28.2305764,31.1819549 28.2305764,30.7969925 L28.2305764,17.3233083 C28.2305764,16.9383459 27.9739348,16.6817043 27.5889724,16.6817043 Z"></path>
        </g>
    </g>
</svg>