<?xml version="1.0" encoding="UTF-8"?>
<svg width="32px" height="32px" viewBox="0 0 32 32" version="1.1" xmlns="http://www.w3.org/2000/svg" xmlns:xlink="http://www.w3.org/1999/xlink">
    <!-- Generator: Sketch 52.6 (67491) - http://www.bohemiancoding.com/sketch -->
    <title>Group</title>
    <desc>Created with Sketch.</desc>
    <g id="Symbol" stroke="none" stroke-width="1" fill="none" fill-rule="evenodd">
        <g id="Cards-Indicator" fill="#4A4A4A">
            <g id="Group">
                <path d="M22.4864865,26 L3.51351351,26 C1.55598456,26 0,24.4440154 0,22.4864865 L0,3.51351351 C0,1.55598456 1.55598456,-2.77555756e-17 3.51351351,-2.77555756e-17 L22.4864865,-2.77555756e-17 C24.4440154,-2.77555756e-17 26,1.55598456 26,3.51351351 L26,22.4864865 C26,24.3938224 24.3938224,26 22.4864865,26 Z M3.51351351,1.50579151 C2.40926641,1.50579151 1.50579151,2.40926641 1.50579151,3.51351351 L1.50579151,22.4864865 C1.50579151,23.5907336 2.40926641,24.4942085 3.51351351,24.4942085 L22.4864865,24.4942085 C23.5907336,24.4942085 24.4942085,23.5907336 24.4942085,22.4864865 L24.4942085,3.51351351 C24.4942085,2.40926641 23.5907336,1.50579151 22.4864865,1.50579151 L3.51351351,1.50579151 Z" id="Shape" fill-rule="nonzero"></path>
                <path d="M27.7837838,32 L10.2162162,32 C7.90733591,32 6,30.0926641 6,27.7837838 L7.50579151,27.7837838 C7.50579151,29.2895753 8.71042471,30.4942085 10.2162162,30.4942085 L27.7837838,30.4942085 C29.2895753,30.4942085 30.4942085,29.2895753 30.4942085,27.7837838 L30.4942085,10.2162162 C30.4942085,8.71042471 29.2895753,7.50579151 27.7837838,7.50579151 L27.7837838,6 C30.0926641,6 32,7.90733591 32,10.2162162 L32,27.7837838 C32,30.0926641 30.0926641,32 27.7837838,32 Z" id="Path"></path>
                <polygon id="+" points="13.7794677 12.2205323 18 12.2205323 18 13.7794677 13.7794677 13.7794677 13.7794677 18 12.2205323 18 12.2205323 13.7794677 8 13.7794677 8 12.2205323 12.2205323 12.2205323 12.2205323 8 13.7794677 8"></polygon>
            </g>
        </g>
    </g>
</svg>