<?xml version="1.0" encoding="UTF-8"?>
<svg width="32px" height="32px" viewBox="0 0 32 32" version="1.1" xmlns="http://www.w3.org/2000/svg" xmlns:xlink="http://www.w3.org/1999/xlink">
    <!-- Generator: Sketch 52.6 (67491) - http://www.bohemiancoding.com/sketch -->
    <title>Group</title>
    <desc>Created with Sketch.</desc>
    <g id="Symbol" stroke="none" stroke-width="1" fill="none" fill-rule="evenodd">
        <g id="Cards-Indicator" fill="#FFFFFF">
            <g id="Group">
                <path d="M22.4864865,26 L3.51351351,26 C1.55598456,26 0,24.4440154 0,22.4864865 L0,3.51351351 C0,1.55598456 1.55598456,0 3.51351351,0 L22.4864865,0 C24.4440154,0 26,1.55598456 26,3.51351351 L26,22.4864865 C26,24.3938224 24.3938224,26 22.4864865,26 Z M3.51351351,1.50579151 C2.40926641,1.50579151 1.50579151,2.40926641 1.50579151,3.51351351 L1.50579151,22.4864865 C1.50579151,23.5907336 2.40926641,24.4942085 3.51351351,24.4942085 L22.4864865,24.4942085 C23.5907336,24.4942085 24.4942085,23.5907336 24.4942085,22.4864865 L24.4942085,3.51351351 C24.4942085,2.40926641 23.5907336,1.50579151 22.4864865,1.50579151 L3.51351351,1.50579151 Z" id="Shape" fill-rule="nonzero"></path>
                <path d="M27.7837838,32 L10.2162162,32 C7.90733591,32 6,30.0926641 6,27.7837838 L7.50579151,27.7837838 C7.50579151,29.2895753 8.71042471,30.4942085 10.2162162,30.4942085 L27.7837838,30.4942085 C29.2895753,30.4942085 30.4942085,29.2895753 30.4942085,27.7837838 L30.4942085,10.2162162 C30.4942085,8.71042471 29.2895753,7.50579151 27.7837838,7.50579151 L27.7837838,6 C30.0926641,6 32,7.90733591 32,10.2162162 L32,27.7837838 C32,30.0926641 30.0926641,32 27.7837838,32 Z" id="Path"></path>
                <path d="M12.3330379,17.4 C12.1535602,17.4000338 11.9790006,17.34208 11.8360017,17.2349839 L8.32550349,14.605687 C8.09138201,14.4303823 7.96975983,14.1450625 8.00645084,13.8572047 C8.04314184,13.569347 8.2325718,13.3226837 8.50338428,13.2101306 C8.77419676,13.0975775 9.08524891,13.136234 9.31937038,13.3115386 L12.1334423,15.4196039 L16.4912455,8.9651001 C16.6534767,8.72205138 16.9350682,8.58336204 17.229287,8.6016002 C17.5235058,8.61983836 17.7853207,8.79221261 17.9154948,9.05338707 C18.0456688,9.31456153 18.0242784,9.62456261 17.8594312,9.86588903 L13.0171308,17.0385072 C12.8646346,17.2643457 12.6079297,17.3999953 12.3330379,17.4 Z" id="Path"></path>
            </g>
        </g>
    </g>
</svg>